SplineFontDB: 3.2
FontName: OverusedGrotesk-Light
FullName: Overused Grotesk Light
FamilyName: Overused Grotesk
Weight: Light
Copyright: Copyright (c) 2023, Bao Nguyen (RandomMaerks) (rmforbusiness@gmail.com)
UComments: "2023-7-28: Created with FontForge (http://fontforge.org)"
Version: 0.4
ItalicAngle: 0
UnderlinePosition: -102
UnderlineWidth: 51
Ascent: 819
Descent: 205
InvalidEm: 0
LayerCount: 2
Layer: 0 0 "Back" 1
Layer: 1 0 "Fore" 0
XUID: [1021 36 -67577861 30019]
StyleMap: 0x0040
FSType: 0
OS2Version: 0
OS2_WeightWidthSlopeOnly: 0
OS2_UseTypoMetrics: 1
CreationTime: 1690548111
ModificationTime: 1695386942
PfmFamily: 17
TTFWeight: 300
TTFWidth: 5
LineGap: 92
VLineGap: 92
OS2TypoAscent: 819
OS2TypoAOffset: 0
OS2TypoDescent: -205
OS2TypoDOffset: 0
OS2TypoLinegap: 92
OS2WinAscent: 1024
OS2WinAOffset: 0
OS2WinDescent: 225
OS2WinDOffset: 0
HheadAscent: 1024
HheadAOffset: 0
HheadDescent: -225
HheadDOffset: 0
OS2Vendor: 'Rand'
Lookup: 1 0 0 "'ss11' Style Set 11 in Latin lookup 22" { "'ss11' Style Set 11 in Latin lookup 22-1" ("ss11") } ['ss11' ('DFLT' <'dflt' > 'latn' <'dflt' > ) ]
Lookup: 1 0 0 "'cv05' Character Variants 05 in Latin lookup 20" { "'cv05' Character Variants 05 in Latin lookup 20-1" ("spur") } ['cv05' ('DFLT' <'dflt' > 'latn' <'dflt' > ) ]
Lookup: 1 0 0 "'cv01' Character Variants 01 in Latin lookup 16" { "'cv01' Character Variants 01 in Latin lookup 16-1" ("cv01") } ['cv01' ('DFLT' <'dflt' > 'latn' <'dflt' > ) ]
Lookup: 1 0 0 "'cv02' Character Variants 02 in Latin lookup 17" { "'cv02' Character Variants 02 in Latin lookup 17-1" ("cv02") } ['cv02' ('DFLT' <'dflt' > 'latn' <'dflt' > ) ]
Lookup: 1 0 0 "'cv03' Character Variants 03 in Latin lookup 18" { "'cv03' Character Variants 03 in Latin lookup 18-1"  } ['cv03' ('DFLT' <'dflt' > 'latn' <'dflt' > ) ]
Lookup: 1 0 0 "'cv04' Character Variants 04 in Latin lookup 19" { "'cv04' Character Variants 04 in Latin lookup 19-1"  } ['cv04' ('DFLT' <'dflt' > 'latn' <'dflt' > ) ]

StartChar: n
Encoding: 110 110 0
GlifName: n
Width: 522
Flags: HMW
AnchorPoint: "bottom1" 269 0 basechar 0
AnchorPoint: "top1" 266 573 basechar 0
LayerCount: 2
Fore
SplineSet
415 317 m 2
 415 425 356 471 265 471 c 0
 176 471 108 410 108 324 c 1
 78 330 l 1
 79 450 181 522 275 522 c 0
 386 522 466 454 466 328 c 2
 466 0 l 1
 415 0 l 1
 415 317 l 2
56 512 m 1
 108 512 l 1
 108 0 l 1
 56 0 l 1
 56 512 l 1
EndSplineSet
Substitution2: "'sups' Superscript in Latin lookup 15-1" uni207F
Substitution2: "'subs' Subscript in Latin lookup 14-1" uni2099
EndChar

StartChar: h
Encoding: 104 104 1
GlifName: h
Width: 522
Flags: HMW
AnchorPoint: "top1" 81 773 basechar 0
LayerCount: 2
Fore
SplineSet
415 317 m 6
 415 425 356 471 265 471 c 4
 176 471 108 410 108 324 c 5
 78 330 l 5
 79 450 181 522 275 522 c 4
 386 522 466 454 466 328 c 6
 466 0 l 5
 415 0 l 5
 415 317 l 6
56 717 m 5
 108 717 l 5
 108 0 l 5
 56 0 l 5
 56 717 l 5
EndSplineSet
EndChar

StartChar: m
Encoding: 109 109 2
GlifName: m
Width: 839
Flags: HMW
LayerCount: 2
Fore
SplineSet
732 317 m 6
 732 425 678 471 593 471 c 4
 510 471 445 410 445 324 c 5
 413 330 l 5
 413 450 512 522 603 522 c 4
 707 522 783 454 783 328 c 6
 783 0 l 5
 732 0 l 5
 732 317 l 6
394 317 m 6
 394 425 340 471 255 471 c 4
 172 471 108 410 108 324 c 5
 78 330 l 5
 78 450 176 522 265 522 c 4
 369 522 445 454 445 328 c 6
 445 0 l 5
 394 0 l 5
 394 317 l 6
56 512 m 5
 108 512 l 5
 108 0 l 5
 56 0 l 5
 56 512 l 5
EndSplineSet
EndChar

StartChar: u
Encoding: 117 117 3
GlifName: u
Width: 514
Flags: HMW
AnchorPoint: "top3" 407 512 basechar 0
AnchorPoint: "bottom2" 458 0 basechar 0
AnchorPoint: "bottom1" 249 0 basechar 0
AnchorPoint: "top1" 265 573 basechar 0
LayerCount: 2
Fore
SplineSet
108 205 m 6
 108 90 165 41 253 41 c 4
 340 41 407 107 407 199 c 5
 436 193 l 5
 436 67 335 -10 243 -10 c 4
 134 -10 56 63 56 195 c 6
 56 512 l 5
 108 512 l 5
 108 205 l 6
458 0 m 5
 407 0 l 5
 407 512 l 5
 458 512 l 5
 458 0 l 5
EndSplineSet
Substitution2: "'ss10' Style Set 10 in Latin lookup 9-1" u.ss10
EndChar

StartChar: i
Encoding: 105 105 4
GlifName: i
Width: 163
Flags: HMW
AnchorPoint: "bottom1" 83 0 basechar 0
AnchorPoint: "bottom2" 108 0 basechar 0
LayerCount: 2
Fore
SplineSet
49 658 m 1
 115 658 l 1
 115 587 l 1
 49 587 l 1
 49 658 l 1
56 512 m 5
 108 512 l 5
 108 0 l 5
 56 0 l 5
 56 512 l 5
EndSplineSet
Substitution2: "'ss03' Style Set 3 in Latin lookup 2-1" i.ss03
EndChar

StartChar: l
Encoding: 108 108 5
GlifName: l
Width: 163
Flags: HMW
AnchorPoint: "top2" 164 512 basechar 0
AnchorPoint: "bottom1" 82 0 basechar 0
AnchorPoint: "top1" 81 773 basechar 0
LayerCount: 2
Fore
SplineSet
56 717 m 5
 108 717 l 5
 108 0 l 5
 56 0 l 5
 56 717 l 5
EndSplineSet
Substitution2: "'ss02' Style Set 2 in Latin lookup 1-1" l.ss02
EndChar

StartChar: o
Encoding: 111 111 6
GlifName: o
Width: 558
Flags: HMW
AnchorPoint: "top3" 339 512 basechar 0
AnchorPoint: "bottom1" 280 0 basechar 0
AnchorPoint: "top1" 279 573 basechar 0
LayerCount: 2
Fore
SplineSet
46 258 m 4
 46 417 140 522 280 522 c 4
 419 522 512 417 512 258 c 4
 512 98 419 -8 280 -8 c 4
 140 -8 46 98 46 258 c 4
458 258 m 4
 458 393 393 471 280 471 c 4
 166 471 100 393 100 258 c 4
 100 122 166 43 280 43 c 4
 393 43 458 122 458 258 c 4
EndSplineSet
EndChar

StartChar: c
Encoding: 99 99 7
GlifName: c
Width: 549
Flags: HMW
AnchorPoint: "bottom1" 280 0 basechar 0
AnchorPoint: "top1" 280 573 basechar 0
LayerCount: 2
Fore
SplineSet
46 258 m 0
 46 417 140 522 279 522 c 0
 404 522 495 443 504 327 c 1
 450 327 l 1
 446 415 379 471 279 471 c 0
 165 471 100 393 100 258 c 0
 100 122 166 43 279 43 c 4
 378 43 445 95 450 178 c 5
 504 178 l 5
 493 65 404 -8 279 -8 c 4
 140 -8 46 98 46 258 c 0
EndSplineSet
EndChar

StartChar: e
Encoding: 101 101 8
GlifName: e
Width: 556
Flags: HMW
AnchorPoint: "bottom2" 433 37 basechar 0
AnchorPoint: "bottom1" 288 0 basechar 0
AnchorPoint: "top1" 278 573 basechar 0
LayerCount: 2
Fore
SplineSet
46 258 m 4
 46 421 137 522 280 522 c 4
 414 522 510 417 510 272 c 6
 510 242 l 5
 91 242 l 5
 91 291 l 5
 455 291 l 5
 446 401 377 471 280 471 c 4
 162 471 100 397 100 258 c 4
 100 118 165 43 286 43 c 4
 379 43 436 89 450 159 c 5
 504 159 l 5
 481 53 410 -8 286 -8 c 4
 139 -8 46 94 46 258 c 4
EndSplineSet
EndChar

StartChar: a
Encoding: 97 97 9
GlifName: a
Width: 513
Flags: HMW
AnchorPoint: "bottom2" 468 0 basechar 0
AnchorPoint: "bottom1" 283 0 basechar 0
AnchorPoint: "top1" 259 573 basechar 0
LayerCount: 2
Fore
SplineSet
456 111 m 6
 456 64.5531914894 460 27.5531914894 468 0 c 1
 415 0 l 1
 408 30.2030075188 404 62.7293233083 404 103 c 6
 404 344 l 2
 404 416 341 471 259 471 c 0
 165 471 114 431 105 350 c 1
 50 350 l 1
 57 454 138 522 258 522 c 0
 371 522 456 444 456 343 c 2
 456 111 l 6
440 225 m 1
 440 94 340 -10 215 -10 c 0
 116 -10 46 51 46 139 c 0
 46 218 100 269 190 275 c 2
 339 286 l 2
 386 289 404 305 404 342 c 1
 406 240 l 1
 206 226 l 2
 135 221 99 192 99 139 c 0
 99 79 148 41 225 41 c 0
 328 41 404 119 404 225 c 1
 440 225 l 1
EndSplineSet
Substitution2: "'cv05' Character Variants 05 in Latin lookup 20-1" a.spur
Substitution2: "'ss01' Style Set 1 in Latin lookup 0-1" a.ss01
EndChar

StartChar: s
Encoding: 115 115 10
GlifName: s
Width: 501
Flags: HMW
AnchorPoint: "bottom1" 267 0 basechar 0
AnchorPoint: "top1" 242 573 basechar 0
LayerCount: 2
Fore
SplineSet
287 226 m 6
 210 237 l 6
 108 250 51 290 51 376 c 4
 51 465 124 521 243 521 c 4
 358 521 433 459 443 358 c 5
 390 358 l 5
 377 435 331 471 242 471 c 4
 158 471 102 434 102 378 c 4
 102 323 140 301 214 292 c 6
 291 282 l 6
 402 268 456 220 456 131 c 4
 456 46 380 -8 266 -8 c 4
 136 -8 57 57 46 154 c 5
 101 154 l 5
 114 77 168 42 267 42 c 4
 349 42 404 77 404 131 c 4
 404 186 366 217 287 226 c 6
EndSplineSet
EndChar

StartChar: b
Encoding: 98 98 11
GlifName: b
Width: 565
Flags: HMW
LayerCount: 2
Fore
SplineSet
56 717 m 1
 108 717 l 1
 108 0 l 1
 56 0 l 1
 56 717 l 1
74 258 m 0
 74 417 160 522 290 522 c 0
 427 522 519 417 519 258 c 0
 519 98 427 -8 290 -8 c 0
 160 -8 74 98 74 258 c 0
465 258 m 0
 465 393 400 471 287 471 c 0
 173 471 108 393 108 258 c 0
 108 122 173 43 287 43 c 0
 400 43 465 122 465 258 c 0
EndSplineSet
EndChar

StartChar: d
Encoding: 100 100 12
GlifName: d
Width: 565
Flags: HMW
AnchorPoint: "top2" 565 512 basechar 0
LayerCount: 2
Fore
SplineSet
509 717 m 5
 458 717 l 5
 458 0 l 5
 509 0 l 5
 509 717 l 5
492 258 m 4
 492 417 405 522 275 522 c 4
 138 522 46 417 46 258 c 4
 46 98 138 -8 275 -8 c 4
 405 -8 492 98 492 258 c 4
100 258 m 4
 100 393 166 471 279 471 c 4
 393 471 458 393 458 258 c 4
 458 122 393 43 279 43 c 4
 166 43 100 122 100 258 c 4
EndSplineSet
EndChar

StartChar: p
Encoding: 112 112 13
GlifName: p
Width: 565
Flags: HMW
LayerCount: 2
Fore
SplineSet
56 512 m 5
 108 512 l 5
 108 -167 l 5
 56 -167 l 5
 56 512 l 5
74 258 m 4
 74 417 160 522 290 522 c 4
 427 522 519 417 519 258 c 4
 519 98 427 -8 290 -8 c 4
 160 -8 74 98 74 258 c 4
465 258 m 4
 465 393 400 471 287 471 c 4
 173 471 108 393 108 258 c 4
 108 122 173 43 287 43 c 4
 400 43 465 122 465 258 c 4
EndSplineSet
EndChar

StartChar: q
Encoding: 113 113 14
GlifName: q
Width: 565
Flags: HMW
LayerCount: 2
Fore
SplineSet
509 512 m 1
 458 512 l 1
 458 -167 l 1
 509 -167 l 1
 509 512 l 1
492 258 m 0
 492 417 405 522 275 522 c 0
 138 522 46 417 46 258 c 0
 46 98 138 -8 275 -8 c 0
 405 -8 492 98 492 258 c 0
100 258 m 0
 100 393 166 471 279 471 c 0
 393 471 458 393 458 258 c 0
 458 122 393 43 279 43 c 0
 166 43 100 122 100 258 c 0
EndSplineSet
EndChar

StartChar: g
Encoding: 103 103 15
GlifName: g
Width: 565
Flags: HMW
AnchorPoint: "top1" 274 573 basechar 0
LayerCount: 2
Fore
SplineSet
100 265 m 0
 100 395 166 471 279 471 c 0
 393 471 458 395 458 265 c 0
 458 134 393 58 279 58 c 0
 166 58 100 134 100 265 c 0
492 265 m 0
 492 420 405 522 275 522 c 0
 138 522 46 419 46 265 c 0
 46 110 138 7 275 7 c 0
 405 7 492 110 492 265 c 0
509 512 m 1
 458 512 l 1
 458 -6 l 2
 458 -95 396 -146 290 -146 c 4
 186 -146 120 -105 111 -37 c 5
 56 -37 l 5
 71 -134 161 -198 290 -198 c 4
 422 -198 509 -123 509 -11 c 2
 509 512 l 1
EndSplineSet
EndChar

StartChar: t
Encoding: 116 116 16
GlifName: t
Width: 319
Flags: HMW
AnchorPoint: "top2" 238 562 basechar 0
AnchorPoint: "bottom1" 239 0 basechar 0
LayerCount: 2
Fore
SplineSet
36 512 m 5
 284 512 l 5
 284 463 l 5
 36 463 l 5
 36 512 l 5
284 49 m 5
 284 0 l 5
 241 0 l 6
 190 0 134 29 134 121 c 6
 134 645 l 5
 185 645 l 5
 185 127 l 6
 185 64 210 49 242 49 c 6
 284 49 l 5
EndSplineSet
Substitution2: "'ss08' Style Set 8 in Latin lookup 7-1" t.ss08
EndChar

StartChar: r
Encoding: 114 114 17
GlifName: r
Width: 311
Flags: HMW
AnchorPoint: "bottom1" 83 0 basechar 0
AnchorPoint: "top1" 164 573 basechar 0
LayerCount: 2
Fore
SplineSet
275 467 m 5
 256 467 l 6
 173 467 108 408 108 324 c 5
 78 330 l 5
 78 450 170 522 255 522 c 6
 275 522 l 5
 275 467 l 5
56 512 m 5
 108 512 l 5
 108 0 l 5
 56 0 l 5
 56 512 l 5
EndSplineSet
EndChar

StartChar: v
Encoding: 118 118 19
GlifName: v
Width: 543
Flags: HMW
LayerCount: 2
Fore
SplineSet
36 512 m 5
 94 512 l 5
 273 68 l 5
 449 512 l 5
 508 512 l 5
 301 0 l 5
 243 0 l 5
 36 512 l 5
EndSplineSet
EndChar

StartChar: f
Encoding: 102 102 20
GlifName: f
Width: 319
Flags: HMW
LayerCount: 2
Fore
SplineSet
36 463 m 1
 36 512 l 1
 284 512 l 1
 284 463 l 1
 36 463 l 1
284 668 m 5
 242 668 l 6
 201 668 170 653 170 590 c 6
 170 0 l 5
 119 0 l 5
 119 596 l 6
 119 688 183 717 241 717 c 6
 284 717 l 5
 284 668 l 5
EndSplineSet
EndChar

StartChar: k
Encoding: 107 107 21
GlifName: k
Width: 478
Flags: HMW
AnchorPoint: "bottom1" 249 0 basechar 0
LayerCount: 2
Fore
SplineSet
56 717 m 5
 108 717 l 5
 108 0 l 5
 56 0 l 5
 56 717 l 5
368 512 m 5
 434 512 l 5
 206 257 l 5
 442 0 l 5
 376 0 l 5
 170 220 l 5
 106 148 l 5
 77 184 l 5
 368 512 l 5
EndSplineSet
EndChar

StartChar: j
Encoding: 106 106 22
GlifName: j
Width: 163
Flags: HMW
LayerCount: 2
Fore
SplineSet
-37 -109 m 5
 -5 -109 l 6
 30 -109 56 -94 56 -31 c 6
 56 512 l 5
 108 512 l 5
 108 -37 l 6
 108 -129 49 -158 -4 -158 c 6
 -37 -158 l 5
 -37 -109 l 5
49 658 m 5
 115 658 l 5
 115 587 l 5
 49 587 l 5
 49 658 l 5
EndSplineSet
Substitution2: "'ss03' Style Set 3 in Latin lookup 2-1" j.ss03
EndChar

StartChar: w
Encoding: 119 119 23
GlifName: w
Width: 766
Flags: HMW
AnchorPoint: "top1" 379 573 basechar 0
LayerCount: 2
Fore
SplineSet
36 512 m 5
 94 512 l 5
 213 73 l 5
 353 512 l 5
 412 512 l 5
 546 73 l 5
 673 512 l 5
 731 512 l 5
 573 0 l 5
 519 0 l 5
 383 443 l 5
 241 0 l 5
 186 0 l 5
 36 512 l 5
EndSplineSet
EndChar

StartChar: x
Encoding: 120 120 24
GlifName: x
Width: 508
Flags: HMW
LayerCount: 2
Fore
SplineSet
36 512 m 5
 99 512 l 5
 251 287 l 5
 410 512 l 5
 473 512 l 5
 298 259 l 5
 473 0 l 5
 410 0 l 5
 258 234 l 5
 99 0 l 5
 36 0 l 5
 211 261 l 5
 36 512 l 5
EndSplineSet
EndChar

StartChar: y
Encoding: 121 121 25
GlifName: y
Width: 543
Flags: HMW
AnchorPoint: "bottom1" 372 0 basechar 0
AnchorPoint: "top1" 283 573 basechar 0
LayerCount: 2
Fore
SplineSet
62 -104 m 5
 135 -104 l 6
 186 -104 212 -85 231 -31 c 6
 243 0 l 5
 36 512 l 5
 94 512 l 5
 273 68 l 5
 449 512 l 5
 508 512 l 5
 289 -37 l 6
 254 -123 217 -158 160 -158 c 6
 62 -158 l 5
 62 -104 l 5
EndSplineSet
Substitution2: "'ss07' Style Set 7 in Latin lookup 6-1" y.ss07
EndChar

StartChar: z
Encoding: 122 122 26
GlifName: z
Width: 473
Flags: HMW
AnchorPoint: "top1" 236 573 basechar 0
LayerCount: 2
Fore
SplineSet
46 512 m 5
 427 512 l 5
 427 453 l 5
 104 49 l 5
 427 49 l 5
 427 0 l 5
 46 0 l 5
 46 59 l 5
 368 463 l 5
 46 463 l 5
 46 512 l 5
EndSplineSet
EndChar

StartChar: H
Encoding: 72 72 27
GlifName: H_
Width: 624
Flags: HMW
AnchorPoint: "top1" 319 717 basechar 0
LayerCount: 2
Fore
SplineSet
56 666 m 5
 108 666 l 5
 108 369 l 5
 517 369 l 5
 517 666 l 5
 568 666 l 5
 568 0 l 5
 517 0 l 5
 517 319 l 5
 108 319 l 5
 108 0 l 5
 56 0 l 5
 56 666 l 5
EndSplineSet
EndChar

StartChar: I
Encoding: 73 73 28
GlifName: I_
Width: 163
Flags: HMW
AnchorPoint: "bottom2" 108 0 basechar 0
AnchorPoint: "bottom1" 82 0 basechar 0
AnchorPoint: "top1" 83 717 basechar 0
LayerCount: 2
Fore
SplineSet
56 666 m 5
 108 666 l 5
 108 0 l 5
 56 0 l 5
 56 666 l 5
EndSplineSet
Substitution2: "'ss11' Style Set 11 in Latin lookup 22-1" I.ss11
EndChar

StartChar: N
Encoding: 78 78 29
GlifName: N_
Width: 624
Flags: HMW
AnchorPoint: "bottom1" 327 0 basechar 0
AnchorPoint: "top1" 324 717 basechar 0
LayerCount: 2
Fore
SplineSet
517 666 m 5
 568 666 l 5
 568 0 l 5
 510 0 l 5
 108 605 l 5
 108 0 l 5
 56 0 l 5
 56 666 l 5
 128 666 l 5
 517 80 l 5
 517 666 l 5
EndSplineSet
EndChar

StartChar: M
Encoding: 77 77 30
GlifName: M_
Width: 743
Flags: HMW
LayerCount: 2
Fore
SplineSet
397 0 m 5
 346 0 l 5
 108 595 l 5
 108 0 l 5
 56 0 l 5
 56 666 l 5
 129 666 l 5
 372 74 l 5
 610 666 l 5
 687 666 l 5
 687 0 l 5
 636 0 l 5
 636 595 l 5
 397 0 l 5
EndSplineSet
EndChar

StartChar: L
Encoding: 76 76 31
GlifName: L_
Width: 481
Flags: HMW
AnchorPoint: "top2" 207 478 basechar 0
AnchorPoint: "bottom1" 253 0 basechar 0
AnchorPoint: "top1" 84 717 basechar 0
LayerCount: 2
Fore
SplineSet
445 0 m 5
 56 0 l 5
 56 666 l 5
 108 666 l 5
 108 49 l 5
 445 49 l 5
 445 0 l 5
EndSplineSet
EndChar

StartChar: E
Encoding: 69 69 32
GlifName: E_
Width: 542
Flags: HMW
AnchorPoint: "bottom2" 476 0 basechar 0
AnchorPoint: "bottom1" 286 0 basechar 0
AnchorPoint: "top1" 286 717 basechar 0
LayerCount: 2
Fore
SplineSet
497 666 m 5
 497 616 l 5
 108 616 l 5
 108 366 l 5
 468 366 l 5
 468 316 l 5
 108 316 l 5
 108 49 l 5
 497 49 l 5
 497 0 l 5
 56 0 l 5
 56 666 l 5
 497 666 l 5
EndSplineSet
EndChar

StartChar: F
Encoding: 70 70 33
GlifName: F_
Width: 542
Flags: HMW
LayerCount: 2
Fore
SplineSet
497 666 m 5
 497 616 l 5
 108 616 l 5
 108 345 l 5
 468 345 l 5
 468 296 l 5
 108 296 l 5
 108 0 l 5
 56 0 l 5
 56 666 l 5
 497 666 l 5
EndSplineSet
EndChar

StartChar: T
Encoding: 84 84 34
GlifName: T_
Width: 532
Flags: HMW
AnchorPoint: "bottom1" 266 0 basechar 0
AnchorPoint: "top1" 264 717 basechar 0
LayerCount: 2
Fore
SplineSet
497 666 m 5
 497 616 l 5
 292 616 l 5
 292 0 l 5
 241 0 l 5
 241 616 l 5
 36 616 l 5
 36 666 l 5
 497 666 l 5
EndSplineSet
EndChar

StartChar: O
Encoding: 79 79 35
GlifName: O_
Width: 680
Flags: HMW
AnchorPoint: "top3" 411 666 basechar 0
AnchorPoint: "bottom1" 340 0 basechar 0
AnchorPoint: "top1" 342 717 basechar 0
LayerCount: 2
Fore
SplineSet
46 325 m 4
 46 536 164 676 341 676 c 4
 517 676 635 536 635 325 c 4
 635 125 517 -8 341 -8 c 4
 164 -8 46 125 46 325 c 4
581 325 m 4
 581 514 493 625 341 625 c 4
 188 625 100 514 100 325 c 4
 100 147 188 43 341 43 c 4
 493 43 581 147 581 325 c 4
EndSplineSet
EndChar

StartChar: C
Encoding: 67 67 36
GlifName: C_
Width: 652
Flags: HMW
AnchorPoint: "bottom1" 329 0 basechar 0
AnchorPoint: "top1" 330 717 basechar 0
LayerCount: 2
Fore
SplineSet
46 335 m 4
 46 540 159 676 330 676 c 4
 484 676 596 584 606 450 c 5
 552 450 l 5
 547 558 461 625 330 625 c 4
 185 625 100 519 100 335 c 4
 100 150 185 43 330 43 c 4
 459 43 545 110 552 219 c 5
 606 219 l 5
 592 82 483 -8 330 -8 c 4
 160 -8 46 129 46 335 c 4
EndSplineSet
EndChar

StartChar: G
Encoding: 71 71 37
GlifName: G_
Width: 662
Flags: HMW
AnchorPoint: "bottom1" 329 0 basechar 0
AnchorPoint: "top1" 330 717 basechar 0
LayerCount: 2
Fore
SplineSet
555 330 m 1
 606 340 l 1
 606 0 l 1
 565 0 l 1
 555 330 l 1
328 340 m 1
 606 340 l 1
 596 291 l 1
 328 291 l 1
 328 340 l 1
46 335 m 0
 46 540 162.183098592 676 338 676 c 0
 487.536231884 676 596.289855072 584 606 450 c 1
 552 450 l 1
 547.18018018 558 464.279279279 625 338 625 c 0
 187.956521739 625 100 519 100 335 c 0
 100 150 185 43 330 43 c 0
 459 43 542 153 542 322 c 1
 583 322 l 1
 583 131 477 -8 330 -8 c 0
 160 -8 46 129 46 335 c 0
EndSplineSet
Substitution2: "'ss04' Style Set 4 in Latin lookup 3-1" G.ss04
EndChar

StartChar: Q
Encoding: 81 81 38
GlifName: Q_
Width: 680
Flags: HMW
LayerCount: 2
Fore
SplineSet
644 24 m 5
 614 -18 l 5
 328 190 l 5
 357 232 l 5
 644 24 l 5
46 325 m 4
 46 536 164 676 341 676 c 4
 517 676 635 536 635 325 c 4
 635 125 517 -8 341 -8 c 4
 164 -8 46 125 46 325 c 4
581 325 m 4
 581 514 493 625 341 625 c 4
 188 625 100 514 100 325 c 4
 100 147 188 43 341 43 c 4
 493 43 581 147 581 325 c 4
EndSplineSet
EndChar

StartChar: S
Encoding: 83 83 39
GlifName: S_
Width: 583
Flags: HMW
AnchorPoint: "bottom1" 306 0 basechar 0
AnchorPoint: "top1" 282 717 basechar 0
LayerCount: 2
Fore
SplineSet
328 303 m 2
 251 313 l 2
 122 329 51 386 51 484 c 4
 51 601 140 675 284 675 c 4
 422 675 513 598 525 471 c 5
 472 471 l 5
 456 573 397 622 283 622 c 4
 174 622 102 568 102 486 c 4
 102 418 154 382 255 369 c 6
 332 358 l 6
 470 341 538 281 538 176 c 4
 538 64 446 -8 307 -8 c 4
 153 -8 59 73 46 195 c 5
 101 195 l 5
 118 92 184 44 308 44 c 4
 414 44 486 95 486 176 c 4
 486 247 433 291 328 303 c 2
EndSplineSet
EndChar

StartChar: J
Encoding: 74 74 40
GlifName: J_
Width: 319
Flags: HMW
AnchorPoint: "top1" 239 717 basechar 0
LayerCount: 2
Fore
SplineSet
27 49 m 5
 89 49 l 6
 159 49 212 79 212 209 c 6
 212 666 l 5
 263 666 l 5
 263 203 l 6
 263 48 173 0 90 0 c 6
 27 0 l 5
 27 49 l 5
EndSplineSet
Substitution2: "'ss06' Style Set 6 in Latin lookup 5-1" J.ss06
EndChar

StartChar: V
Encoding: 86 86 41
GlifName: V_
Width: 630
Flags: HMW
LayerCount: 2
Fore
SplineSet
36 666 m 5
 94 666 l 5
 316 68 l 5
 536 666 l 5
 595 666 l 5
 344 0 l 5
 286 0 l 5
 36 666 l 5
EndSplineSet
EndChar

StartChar: W
Encoding: 87 87 42
GlifName: W_
Width: 977
Flags: HMW
AnchorPoint: "top1" 488 717 basechar 0
LayerCount: 2
Fore
SplineSet
36 666 m 5
 94 666 l 5
 256 73 l 5
 459 666 l 5
 517 666 l 5
 714 73 l 5
 884 666 l 5
 942 666 l 5
 741 0 l 5
 687 0 l 5
 488 597 l 5
 284 0 l 5
 229 0 l 5
 36 666 l 5
EndSplineSet
EndChar

StartChar: X
Encoding: 88 88 43
GlifName: X_
Width: 580
Flags: HMW
LayerCount: 2
Fore
SplineSet
36 666 m 5
 101 666 l 5
 289 358 l 5
 481 666 l 5
 545 666 l 5
 334 331 l 5
 545 0 l 5
 479 0 l 5
 292 306 l 5
 97 0 l 5
 36 0 l 5
 247 333 l 5
 36 666 l 5
EndSplineSet
EndChar

StartChar: Y
Encoding: 89 89 44
GlifName: Y_
Width: 580
Flags: HMW
AnchorPoint: "bottom1" 290 0 basechar 0
AnchorPoint: "top1" 301 717 basechar 0
LayerCount: 2
Fore
SplineSet
263 230 m 5
 36 666 l 5
 99 666 l 5
 289 295 l 5
 483 666 l 5
 545 666 l 5
 314 230 l 5
 314 0 l 5
 263 0 l 5
 263 230 l 5
EndSplineSet
EndChar

StartChar: A
Encoding: 65 65 45
GlifName: A_
Width: 630
Flags: HMW
AnchorPoint: "bottom2" 595 0 basechar 0
AnchorPoint: "bottom1" 313 0 basechar 0
AnchorPoint: "top1" 315 717 basechar 0
LayerCount: 2
Fore
SplineSet
147 242 m 5
 477 242 l 5
 477 193 l 5
 147 193 l 5
 147 242 l 5
595 0 m 5
 537 0 l 5
 314 598 l 5
 95 0 l 5
 36 0 l 5
 287 666 l 5
 345 666 l 5
 595 0 l 5
EndSplineSet
EndChar

StartChar: Z
Encoding: 90 90 46
GlifName: Z_
Width: 565
Flags: HMW
AnchorPoint: "top1" 288 717 basechar 0
LayerCount: 2
Fore
SplineSet
46 666 m 5
 519 666 l 5
 519 606 l 5
 104 49 l 5
 519 49 l 5
 519 0 l 5
 46 0 l 5
 46 59 l 5
 460 616 l 5
 46 616 l 5
 46 666 l 5
EndSplineSet
EndChar

StartChar: U
Encoding: 85 85 47
GlifName: U_
Width: 592
Flags: HMW
AnchorPoint: "top3" 490 666 basechar 0
AnchorPoint: "bottom2" 333 0 basechar 0
AnchorPoint: "bottom1" 298 0 basechar 0
AnchorPoint: "top1" 303 717 basechar 0
LayerCount: 2
Fore
SplineSet
51 666 m 5
 102 666 l 5
 102 253 l 6
 102 120 174 43 297 43 c 4
 419 43 490 120 490 253 c 6
 490 666 l 5
 542 666 l 5
 542 253 l 6
 542 96 443 -8 297 -8 c 4
 150 -8 51 96 51 253 c 6
 51 666 l 5
EndSplineSet
EndChar

StartChar: R
Encoding: 82 82 48
GlifName: R_
Width: 572
Flags: HMW
AnchorPoint: "bottom1" 301 0 basechar 0
AnchorPoint: "top1" 289 717 basechar 0
LayerCount: 2
Fore
SplineSet
279 286 m 5
 330 306 l 5
 450 306 495 269 508 157 c 6
 526 0 l 5
 475 0 l 5
 458 150 l 6
 447 246 395 286 279 286 c 5
319 616 m 6
 108 616 l 5
 108 335 l 5
 319 335 l 6
 415 335 472 385 472 472 c 4
 472 563 415 616 319 616 c 6
330 296 m 5
 322 286 l 5
 108 286 l 5
 108 0 l 5
 56 0 l 5
 56 666 l 5
 325 666 l 6
 446 666 526 589 526 472 c 4
 526 367 448 296 330 296 c 5
EndSplineSet
Substitution2: "'ss05' Style Set 5 in Latin lookup 4-1" R.ss05
EndChar

StartChar: B
Encoding: 66 66 49
GlifName: B_
Width: 603
Flags: HMW
LayerCount: 2
Fore
SplineSet
355 666 m 6
 457 666 526 598 526 496 c 4
 526 424 491 369 435 343 c 5
 510 318 557 257 557 175 c 4
 557 70 485 0 376 0 c 6
 56 0 l 5
 56 666 l 5
 355 666 l 6
350 616 m 6
 108 616 l 5
 108 366 l 5
 350 366 l 6
 427 366 472 414 472 496 c 4
 472 573 427 616 350 616 c 6
350 316 m 6
 108 316 l 5
 108 49 l 5
 371 49 l 6
 454 49 503 95 503 175 c 4
 503 264 446 316 350 316 c 6
EndSplineSet
EndChar

StartChar: D
Encoding: 68 68 50
GlifName: D_
Width: 623
Flags: HMW
AnchorPoint: "top1" 289 717 basechar 0
LayerCount: 2
Fore
SplineSet
108 616 m 5
 108 49 l 5
 304 49 l 6
 442 49 523 149 523 321 c 4
 523 508 436 616 284 616 c 6
 108 616 l 5
294 666 m 6
 464 666 578 528 578 321 c 4
 578 128 472 0 314 0 c 6
 56 0 l 5
 56 666 l 5
 294 666 l 6
EndSplineSet
EndChar

StartChar: P
Encoding: 80 80 51
GlifName: P_
Width: 567
Flags: HMW
LayerCount: 2
Fore
SplineSet
309 616 m 6
 108 616 l 5
 108 304 l 5
 309 304 l 6
 411 304 472 361 472 457 c 4
 472 558 412 616 309 616 c 6
319 255 m 6
 108 255 l 5
 108 0 l 5
 56 0 l 5
 56 666 l 5
 314 666 l 6
 441 666 526 583 526 457 c 4
 526 341 447 255 319 255 c 6
EndSplineSet
EndChar

StartChar: K
Encoding: 75 75 52
GlifName: K_
Width: 531
Flags: HMW
AnchorPoint: "bottom1" 272 0 basechar 0
AnchorPoint: "top1" 269 717 basechar 0
LayerCount: 2
Fore
SplineSet
56 666 m 5
 108 666 l 5
 108 0 l 5
 56 0 l 5
 56 666 l 5
439 666 m 5
 508 666 l 5
 206 345 l 5
 516 0 l 5
 450 0 l 5
 170 308 l 5
 106 237 l 5
 77 272 l 5
 439 666 l 5
EndSplineSet
EndChar

StartChar: four
Encoding: 52 52 53
GlifName: four
Width: 544
Flags: HMW
LayerCount: 2
Fore
SplineSet
414 176 m 1
 414 0 l 1
 362 0 l 1
 362 176 l 1
 36 176 l 1
 36 234 l 1
 352 666 l 1
 414 666 l 1
 414 224 l 1
 519 224 l 1
 519 176 l 1
 414 176 l 1
362 224 m 1
 362 602 l 1
 90 224 l 1
 362 224 l 1
EndSplineSet
Substitution2: "'cv04' Character Variants 04 in Latin lookup 19-1" uni2463
Substitution2: "'cv03' Character Variants 03 in Latin lookup 18-1" uni2779
Substitution2: "'cv02' Character Variants 02 in Latin lookup 17-1" four.cv02
Substitution2: "'cv01' Character Variants 01 in Latin lookup 16-1" four.cv01
Substitution2: "'sups' Superscript in Latin lookup 15-1" uni2074
Substitution2: "'subs' Subscript in Latin lookup 14-1" uni2084
Substitution2: "'numr' Numerators in Latin lookup 13-1" four.numr
Substitution2: "'dnom' Denominators in Latin lookup 12-1" four.dnom
Substitution2: "'tnum' Tabular Numbers in Latin lookup 11-1" four.tabl
EndChar

StartChar: three
Encoding: 51 51 54
GlifName: three
Width: 529
Flags: HMW
LayerCount: 2
Fore
SplineSet
343 360 m 1
 343 309 l 1
 221 309 l 1
 221 360 l 1
 343 360 l 1
292 319 m 1
 292 360 l 1
 373 360 419 406 419 485 c 0
 419 572 361 623 261 623 c 0
 172 623 114 570 111 487 c 1
 56 487 l 1
 64 598 147 674 261 674 c 0
 388 674 473 599 473 485 c 0
 473 386 401 319 292 319 c 1
292 350 m 1
 407 350 483 281 483 179 c 0
 483 66 394 -8 261 -8 c 0
 142 -8 54 66 46 175 c 1
 100 175 l 1
 104 94 167 43 261 43 c 0
 367 43 429 92 429 179 c 0
 429 262 379 309 292 309 c 1
 292 350 l 1
EndSplineSet
Substitution2: "'cv04' Character Variants 04 in Latin lookup 19-1" uni2462
Substitution2: "'cv03' Character Variants 03 in Latin lookup 18-1" uni2778
Substitution2: "'cv02' Character Variants 02 in Latin lookup 17-1" three.cv02
Substitution2: "'cv01' Character Variants 01 in Latin lookup 16-1" three.cv01
Substitution2: "'sups' Superscript in Latin lookup 15-1" uni00B3
Substitution2: "'subs' Subscript in Latin lookup 14-1" uni2083
Substitution2: "'numr' Numerators in Latin lookup 13-1" three.numr
Substitution2: "'dnom' Denominators in Latin lookup 12-1" three.dnom
Substitution2: "'tnum' Tabular Numbers in Latin lookup 11-1" three.tabl
EndChar

StartChar: period
Encoding: 46 46 55
GlifName: period
Width: 163
Flags: HMW
LayerCount: 2
Fore
SplineSet
49 72 m 5
 115 72 l 5
 115 0 l 5
 49 0 l 5
 49 72 l 5
EndSplineSet
Substitution2: "'tnum' Tabular Numbers in Latin lookup 11-1" period.tabl
Substitution2: "'ss03' Style Set 3 in Latin lookup 2-1" period.ss03
EndChar

StartChar: comma
Encoding: 44 44 56
GlifName: comma
Width: 163
Flags: HMW
LayerCount: 2
Fore
SplineSet
49 72 m 5
 115 72 l 5
 115 0 l 5
 84 -128 l 5
 42 -128 l 5
 89 0 l 5
 49 0 l 5
 49 72 l 5
EndSplineSet
Substitution2: "'ss03' Style Set 3 in Latin lookup 2-1" comma.ss03
EndChar

StartChar: colon
Encoding: 58 58 57
GlifName: colon
Width: 163
Flags: HMW
LayerCount: 2
Fore
SplineSet
49 492 m 5
 115 492 l 5
 115 420 l 5
 49 420 l 5
 49 492 l 5
49 72 m 5
 115 72 l 5
 115 0 l 5
 49 0 l 5
 49 72 l 5
EndSplineSet
Substitution2: "'tnum' Tabular Numbers in Latin lookup 11-1" colon.tabl
Substitution2: "'ss03' Style Set 3 in Latin lookup 2-1" colon.ss03
EndChar

StartChar: semicolon
Encoding: 59 59 58
GlifName: semicolon
Width: 163
Flags: HMW
LayerCount: 2
Fore
SplineSet
49 492 m 1
 115 492 l 1
 115 420 l 1
 49 420 l 1
 49 492 l 1
49 72 m 1
 115 72 l 5
 115 0 l 5
 84 -128 l 1
 42 -128 l 1
 89 0 l 5
 49 0 l 1
 49 72 l 1
EndSplineSet
Substitution2: "'ss03' Style Set 3 in Latin lookup 2-1" semicolon.ss03
EndChar

StartChar: hyphen
Encoding: 45 45 59
GlifName: hyphen
Width: 473
Flags: HMW
LayerCount: 2
Fore
SplineSet
36 307 m 5
 437 307 l 5
 437 258 l 5
 36 258 l 5
 36 307 l 5
EndSplineSet
Substitution2: "'sups' Superscript in Latin lookup 15-1" uni207B
Substitution2: "'subs' Subscript in Latin lookup 14-1" uni208B
Substitution2: "'tnum' Tabular Numbers in Latin lookup 11-1" hyphen.tabl
EndChar

StartChar: plus
Encoding: 43 43 60
GlifName: plus
Width: 559
Flags: HMW
LayerCount: 2
Fore
SplineSet
304 307 m 5
 523 307 l 5
 523 258 l 5
 304 258 l 5
 304 39 l 5
 255 39 l 5
 255 258 l 5
 36 258 l 5
 36 307 l 5
 255 307 l 5
 255 526 l 5
 304 526 l 5
 304 307 l 5
EndSplineSet
Substitution2: "'sups' Superscript in Latin lookup 15-1" uni207A
Substitution2: "'subs' Subscript in Latin lookup 14-1" uni208A
Substitution2: "'tnum' Tabular Numbers in Latin lookup 11-1" plus.tabl
EndChar

StartChar: equal
Encoding: 61 61 61
GlifName: equal
Width: 559
Flags: HMW
LayerCount: 2
Fore
SplineSet
523 169 m 1
 523 120 l 1
 36 120 l 1
 36 169 l 1
 523 169 l 1
523 435 m 5
 523 386 l 5
 36 386 l 5
 36 435 l 5
 523 435 l 5
EndSplineSet
Substitution2: "'sups' Superscript in Latin lookup 15-1" uni207C
Substitution2: "'subs' Subscript in Latin lookup 14-1" uni208C
EndChar

StartChar: quotesingle
Encoding: 39 39 62
GlifName: quotesingle
Width: 163
Flags: HMW
LayerCount: 2
Fore
SplineSet
56 717 m 5
 108 717 l 5
 97 512 l 5
 56 512 l 5
 56 717 l 5
EndSplineSet
EndChar

StartChar: quotedbl
Encoding: 34 34 63
GlifName: quotedbl
Width: 276
Flags: HMW
LayerCount: 2
Fore
SplineSet
169 717 m 5
 220 717 l 5
 210 512 l 5
 169 512 l 5
 169 717 l 5
56 717 m 5
 108 717 l 5
 97 512 l 5
 56 512 l 5
 56 717 l 5
EndSplineSet
EndChar

StartChar: one
Encoding: 49 49 64
GlifName: one
Width: 303
Flags: HMW
LayerCount: 2
Fore
SplineSet
196 666 m 5
 247 666 l 5
 247 0 l 5
 196 0 l 5
 196 512 l 5
 36 512 l 5
 36 556 l 5
 115 556 l 6
 168 556 196 572 196 625 c 6
 196 666 l 5
EndSplineSet
Substitution2: "'cv04' Character Variants 04 in Latin lookup 19-1" uni2460
Substitution2: "'cv03' Character Variants 03 in Latin lookup 18-1" uni2776
Substitution2: "'cv02' Character Variants 02 in Latin lookup 17-1" one.cv02
Substitution2: "'cv01' Character Variants 01 in Latin lookup 16-1" one.cv01
Substitution2: "'sups' Superscript in Latin lookup 15-1" uni00B9
Substitution2: "'subs' Subscript in Latin lookup 14-1" uni2081
Substitution2: "'numr' Numerators in Latin lookup 13-1" one.numr
Substitution2: "'dnom' Denominators in Latin lookup 12-1" one.dnom
Substitution2: "'tnum' Tabular Numbers in Latin lookup 11-1" one.tabl
EndChar

StartChar: exclam
Encoding: 33 33 65
GlifName: exclam
Width: 163
Flags: HMW
LayerCount: 2
Fore
SplineSet
115 0 m 5
 49 0 l 5
 49 72 l 5
 115 72 l 5
 115 0 l 5
103 146 m 5
 60 146 l 5
 56 666 l 5
 108 666 l 5
 103 146 l 5
EndSplineSet
Substitution2: "'ss03' Style Set 3 in Latin lookup 2-1" exclam.ss03
EndChar

StartChar: zero
Encoding: 48 48 66
GlifName: zero
Width: 558
Flags: HMW
LayerCount: 2
Fore
SplineSet
46 325 m 4
 46 546 134 676 280 676 c 4
 426 676 512 546 512 325 c 4
 512 115 426 -8 280 -8 c 4
 133 -8 46 115 46 325 c 4
458 325 m 4
 458 525 399 625 280 625 c 4
 160 625 100 525 100 325 c 4
 100 137 160 43 280 43 c 4
 399 43 458 137 458 325 c 4
EndSplineSet
Substitution2: "'cv04' Character Variants 04 in Latin lookup 19-1" uni24EA
Substitution2: "'cv03' Character Variants 03 in Latin lookup 18-1" uni24FF
Substitution2: "'cv02' Character Variants 02 in Latin lookup 17-1" zero.cv02
Substitution2: "'cv01' Character Variants 01 in Latin lookup 16-1" zero.cv01
Substitution2: "'sups' Superscript in Latin lookup 15-1" uni2070
Substitution2: "'subs' Subscript in Latin lookup 14-1" uni2080
Substitution2: "'numr' Numerators in Latin lookup 13-1" zero.numr
Substitution2: "'dnom' Denominators in Latin lookup 12-1" zero.dnom
Substitution2: "'zero' Slashed Zero in Latin lookup 10-1" zero.slsh
Substitution2: "'tnum' Tabular Numbers in Latin lookup 11-1" zero.tabl
EndChar

StartChar: nine
Encoding: 57 57 67
GlifName: nine
Width: 549
Flags: HMW
LayerCount: 2
Fore
SplineSet
504 333 m 0
 504 118 413 -8 256 -8 c 0
 150 -8 72 55 54 157 c 1
 109 157 l 1
 123 83 174 43 256 43 c 0
 386 43 450 138 450 333 c 0
 450 345 448 357 447 368 c 1
 415 284 340 231 252 231 c 0
 132 231 46 325 46 454 c 0
 46 583 132 676 252 676 c 0
 406 676 504 543 504 333 c 0
427 454 m 0
 427 551 353 624 256 624 c 0
 162 624 100 556 100 454 c 0
 100 352 162 284 256 284 c 0
 358 284 427 353 427 454 c 0
EndSplineSet
Substitution2: "'cv04' Character Variants 04 in Latin lookup 19-1" uni2468
Substitution2: "'cv03' Character Variants 03 in Latin lookup 18-1" uni277E
Substitution2: "'cv02' Character Variants 02 in Latin lookup 17-1" nine.cv02
Substitution2: "'cv01' Character Variants 01 in Latin lookup 16-1" nine.cv01
Substitution2: "'sups' Superscript in Latin lookup 15-1" uni2079
Substitution2: "'subs' Subscript in Latin lookup 14-1" uni2089
Substitution2: "'numr' Numerators in Latin lookup 13-1" nine.numr
Substitution2: "'dnom' Denominators in Latin lookup 12-1" nine.dnom
Substitution2: "'tnum' Tabular Numbers in Latin lookup 11-1" nine.tabl
EndChar

StartChar: seven
Encoding: 55 55 68
GlifName: seven
Width: 555
Flags: HMW
LayerCount: 2
Fore
SplineSet
244 0 m 1
 253 302 364 442 509 606 c 1
 509 666 l 1
 46 666 l 1
 46 616 l 1
 457 616 l 1
 331 465 217 351 188 0 c 1
 244 0 l 1
EndSplineSet
Substitution2: "'cv04' Character Variants 04 in Latin lookup 19-1" uni2466
Substitution2: "'cv03' Character Variants 03 in Latin lookup 18-1" uni277C
Substitution2: "'cv02' Character Variants 02 in Latin lookup 17-1" seven.cv02
Substitution2: "'cv01' Character Variants 01 in Latin lookup 16-1" seven.cv01
Substitution2: "'sups' Superscript in Latin lookup 15-1" uni2077
Substitution2: "'subs' Subscript in Latin lookup 14-1" uni2087
Substitution2: "'numr' Numerators in Latin lookup 13-1" seven.numr
Substitution2: "'dnom' Denominators in Latin lookup 12-1" seven.dnom
Substitution2: "'tnum' Tabular Numbers in Latin lookup 11-1" seven.tabl
EndChar

StartChar: two
Encoding: 50 50 69
GlifName: two
Width: 529
Flags: HMW
LayerCount: 2
Fore
SplineSet
99 49 m 1
 479 49 l 1
 479 0 l 1
 46 0 l 1
 46 14 l 1
 46 162 163 223 267 280 c 0
 352 327 429 372 429 465 c 0
 429 565 367 623 261 623 c 0
 167 623 104 563 100 470 c 1
 46 470 l 1
 54 591 142 674 261 674 c 0
 394 674 483 591 483 465 c 0
 483 354 393 293 300 240 c 0
 202 184 99 136 99 49 c 1
EndSplineSet
Substitution2: "'cv04' Character Variants 04 in Latin lookup 19-1" uni2461
Substitution2: "'cv03' Character Variants 03 in Latin lookup 18-1" uni2777
Substitution2: "'cv02' Character Variants 02 in Latin lookup 17-1" two.cv02
Substitution2: "'cv01' Character Variants 01 in Latin lookup 16-1" two.cv01
Substitution2: "'sups' Superscript in Latin lookup 15-1" uni00B2
Substitution2: "'subs' Subscript in Latin lookup 14-1" uni2082
Substitution2: "'numr' Numerators in Latin lookup 13-1" two.numr
Substitution2: "'dnom' Denominators in Latin lookup 12-1" two.dnom
Substitution2: "'tnum' Tabular Numbers in Latin lookup 11-1" two.tabl
EndChar

StartChar: eight
Encoding: 56 56 70
GlifName: eight
Width: 529
Flags: HMW
LayerCount: 2
Fore
SplineSet
362 336 m 1
 437 311 483 253 483 175 c 0
 483 64 396 -8 264 -8 c 0
 133 -8 46 64 46 175 c 0
 46 253 92 311 167 336 c 1
 104 362 67 417 67 489 c 0
 67 600 145 674 264 674 c 0
 384 674 463 600 463 489 c 0
 463 417 425 362 362 336 c 1
271 360 m 2
 358 360 409 407 409 489 c 0
 409 574 356 623 264 623 c 0
 173 623 121 574 121 489 c 0
 121 407 171 360 258 360 c 2
 271 360 l 2
271 309 m 2
 258 309 l 2
 158 309 100 260 100 175 c 0
 100 91 160 43 264 43 c 0
 368 43 429 91 429 175 c 0
 429 260 371 309 271 309 c 2
EndSplineSet
Substitution2: "'cv04' Character Variants 04 in Latin lookup 19-1" uni2467
Substitution2: "'cv03' Character Variants 03 in Latin lookup 18-1" uni277D
Substitution2: "'cv02' Character Variants 02 in Latin lookup 17-1" eight.cv02
Substitution2: "'cv01' Character Variants 01 in Latin lookup 16-1" eight.cv01
Substitution2: "'sups' Superscript in Latin lookup 15-1" uni2078
Substitution2: "'subs' Subscript in Latin lookup 14-1" uni2088
Substitution2: "'numr' Numerators in Latin lookup 13-1" eight.numr
Substitution2: "'dnom' Denominators in Latin lookup 12-1" eight.dnom
Substitution2: "'tnum' Tabular Numbers in Latin lookup 11-1" eight.tabl
EndChar

StartChar: five
Encoding: 53 53 71
GlifName: five
Width: 529
Flags: HMW
LayerCount: 2
Fore
SplineSet
429 219 m 4
 429 102 368 43 263 43 c 4
 167 43 104 91 100 168 c 5
 46 168 l 5
 54 64 141 -8 263 -8 c 4
 394 -8 483 78 483 220 c 4
 483 352 399 447 266 447 c 4
 193 447 135 418 98 372 c 5
 121 617 l 5
 460 617 l 5
 460 667 l 5
 77 667 l 5
 46 316 l 5
 96 316 l 5
 127 365 183 396 259 396 c 4
 369 396 429 328 429 219 c 4
EndSplineSet
Substitution2: "'cv04' Character Variants 04 in Latin lookup 19-1" uni2464
Substitution2: "'cv03' Character Variants 03 in Latin lookup 18-1" uni277A
Substitution2: "'cv02' Character Variants 02 in Latin lookup 17-1" five.cv02
Substitution2: "'cv01' Character Variants 01 in Latin lookup 16-1" five.cv01
Substitution2: "'sups' Superscript in Latin lookup 15-1" uni2075
Substitution2: "'subs' Subscript in Latin lookup 14-1" uni2085
Substitution2: "'numr' Numerators in Latin lookup 13-1" five.numr
Substitution2: "'dnom' Denominators in Latin lookup 12-1" five.dnom
Substitution2: "'tnum' Tabular Numbers in Latin lookup 11-1" five.tabl
EndChar

StartChar: six
Encoding: 54 54 72
GlifName: six
Width: 549
Flags: HMW
LayerCount: 2
Fore
SplineSet
46 335 m 4
 46 550 137 676 294 676 c 4
 400 676 478 613 496 511 c 5
 441 511 l 5
 427 585 376 625 294 625 c 4
 164 625 100 530 100 335 c 4
 100 323 101 311 102 300 c 5
 134 384 210 436 298 436 c 4
 418 436 504 343 504 214 c 4
 504 85 418 -8 298 -8 c 4
 144 -8 46 125 46 335 c 4
123 214 m 4
 123 117 197 44 294 44 c 4
 388 44 450 112 450 214 c 4
 450 316 388 384 294 384 c 4
 192 384 123 315 123 214 c 4
EndSplineSet
Substitution2: "'cv04' Character Variants 04 in Latin lookup 19-1" uni2465
Substitution2: "'cv03' Character Variants 03 in Latin lookup 18-1" uni277B
Substitution2: "'cv02' Character Variants 02 in Latin lookup 17-1" six.cv02
Substitution2: "'cv01' Character Variants 01 in Latin lookup 16-1" six.cv01
Substitution2: "'sups' Superscript in Latin lookup 15-1" uni2076
Substitution2: "'subs' Subscript in Latin lookup 14-1" uni2086
Substitution2: "'numr' Numerators in Latin lookup 13-1" six.numr
Substitution2: "'dnom' Denominators in Latin lookup 12-1" six.dnom
Substitution2: "'tnum' Tabular Numbers in Latin lookup 11-1" six.tabl
EndChar

StartChar: a.ss01
Encoding: 65536 -1 73
GlifName: a.ss01
Width: 565
Flags: HMW
AnchorPoint: "bottom2" 509 0 basechar 0
AnchorPoint: "bottom1" 279 0 basechar 0
AnchorPoint: "top1" 296 573 basechar 0
LayerCount: 2
Fore
SplineSet
509 512 m 1
 458 512 l 1
 458 0 l 1
 509 0 l 1
 509 512 l 1
492 258 m 0
 492 417 405 522 275 522 c 0
 138 522 46 417 46 258 c 0
 46 98 138 -8 275 -8 c 0
 405 -8 492 98 492 258 c 0
100 258 m 0
 100 393 166 471 279 471 c 0
 393 471 458 393 458 258 c 0
 458 122 393 43 279 43 c 0
 166 43 100 122 100 258 c 0
EndSplineSet
Substitution2: "'cv05' Character Variants 05 in Latin lookup 20-1" a.spur.ss01
EndChar

StartChar: l.ss02
Encoding: 65537 -1 74
GlifName: l.ss02
Width: 226
Flags: HMW
AnchorPoint: "top1" 81 773 basechar 0
AnchorPoint: "bottom1" 113 0 basechar 0
AnchorPoint: "top2" 164 512 basechar 0
LayerCount: 2
Fore
SplineSet
190 49 m 5
 190 0 l 5
 178 0 l 6
 120 0 56 29 56 121 c 6
 56 717 l 5
 108 717 l 5
 108 127 l 6
 108 64 139 49 179 49 c 6
 190 49 l 5
EndSplineSet
EndChar

StartChar: i.ss03
Encoding: 65538 -1 75
GlifName: i.ss03
Width: 163
Flags: HMW
AnchorPoint: "bottom2" 108 0 basechar 0
AnchorPoint: "bottom1" 83 0 basechar 0
LayerCount: 2
Fore
SplineSet
39 634 m 0
 39 658 58 677 82 677 c 0
 106 677 125 658 125 634 c 0
 125 610 106 591 82 591 c 0
 58 591 39 610 39 634 c 0
56 512 m 1
 108 512 l 1
 108 0 l 1
 56 0 l 1
 56 512 l 1
EndSplineSet
EndChar

StartChar: j.ss03
Encoding: 65539 -1 76
GlifName: j.ss03
Width: 163
Flags: HMW
LayerCount: 2
Fore
SplineSet
39 634 m 4
 39 658 58 677 82 677 c 4
 106 677 125 658 125 634 c 4
 125 610 106 591 82 591 c 4
 58 591 39 610 39 634 c 4
-37 -109 m 1
 -5 -109 l 2
 30 -109 56 -94 56 -31 c 2
 56 512 l 1
 108 512 l 1
 108 -37 l 2
 108 -129 49 -158 -4 -158 c 2
 -37 -158 l 1
 -37 -109 l 1
EndSplineSet
EndChar

StartChar: G.ss04
Encoding: 65540 -1 77
GlifName: G_.ss04
Width: 662
Flags: HMW
AnchorPoint: "top1" 330 717 basechar 0
AnchorPoint: "bottom1" 329 0 basechar 0
LayerCount: 2
Fore
SplineSet
46 335 m 0
 46 540 163 676 339 676 c 0
 487 676 596 584 606 450 c 1
 552 450 l 1
 547 558 464 625 339 625 c 0
 187 625 100 519 100 335 c 0
 100 150 186 43 337 43 c 0
 470 43 557 140 557 291 c 1
 328 291 l 1
 328 340 l 1
 606 340 l 1
 606 298 l 2
 606 116 498 -8 337 -8 c 0
 162 -8 46 129 46 335 c 0
EndSplineSet
EndChar

StartChar: R.ss05
Encoding: 65541 -1 78
GlifName: R_.ss05
Width: 572
Flags: HMW
AnchorPoint: "top1" 289 717 basechar 0
AnchorPoint: "bottom1" 301 0 basechar 0
LayerCount: 2
Fore
SplineSet
366 308 m 1
 521 0 l 1
 463 0 l 1
 306 308 l 1
 366 308 l 1
319 616 m 2
 108 616 l 1
 108 335 l 1
 319 335 l 2
 415 335 472 385 472 472 c 0
 472 563 415 616 319 616 c 2
332 286 m 2
 108 286 l 1
 108 0 l 1
 56 0 l 1
 56 666 l 1
 325 666 l 2
 446 666 526 589 526 472 c 0
 526 360 449 286 332 286 c 2
EndSplineSet
EndChar

StartChar: J.ss06
Encoding: 65542 -1 79
GlifName: J_.ss06
Width: 531
Flags: HMW
AnchorPoint: "top1" 456 717 basechar 0
LayerCount: 2
Fore
SplineSet
102 183 m 5
 112 94 173 43 266 43 c 4
 369 43 429 106 429 212 c 6
 429 666 l 5
 480 666 l 5
 480 212 l 6
 480 80 394 -8 266 -8 c 4
 147 -8 61 68 51 183 c 5
 102 183 l 5
EndSplineSet
EndChar

StartChar: y.ss07
Encoding: 65543 -1 80
GlifName: y.ss07
Width: 543
Flags: HMW
AnchorPoint: "top1" 283 573 basechar 0
AnchorPoint: "bottom1" 372 0 basechar 0
LayerCount: 2
Fore
SplineSet
168 -178 m 1
 244 19 l 1
 36 512 l 1
 94 512 l 1
 274 87 l 1
 449 512 l 1
 508 512 l 1
 224 -178 l 1
 168 -178 l 1
EndSplineSet
EndChar

StartChar: t.ss08
Encoding: 65544 -1 81
GlifName: t.ss08
Width: 319
Flags: HMW
AnchorPoint: "bottom1" 161 0 basechar 0
AnchorPoint: "top2" 238 562 basechar 0
LayerCount: 2
Fore
SplineSet
36 512 m 1
 284 512 l 1
 284 463 l 1
 36 463 l 1
 36 512 l 1
134 0 m 1
 134 645 l 1
 185 645 l 1
 185 0 l 1
 134 0 l 1
EndSplineSet
EndChar

StartChar: exclam.ss03
Encoding: 65545 -1 82
GlifName: exclam.ss03
Width: 163
Flags: HMW
LayerCount: 2
Fore
SplineSet
39 35 m 4
 39 59 58 78 82 78 c 4
 106 78 125 59 125 35 c 4
 125 11 106 -8 82 -8 c 4
 58 -8 39 11 39 35 c 4
103 146 m 1
 60 146 l 1
 56 666 l 1
 108 666 l 1
 103 146 l 1
EndSplineSet
EndChar

StartChar: comma.ss03
Encoding: 65546 -1 83
GlifName: comma.ss03
Width: 163
Flags: HMW
LayerCount: 2
Fore
SplineSet
39 35 m 0
 39 59 58 78 82 78 c 0
 106 78 125 59 125 35 c 6
 125 -17 l 6
 125 -77 87 -97 53 -97 c 6
 41 -97 l 5
 41 -73 l 5
 52 -73 l 6
 82 -73 104 -61 104 -11 c 6
 104 -2 l 5
 98 -6 90 -8 82 -8 c 0
 58 -8 39 11 39 35 c 0
EndSplineSet
EndChar

StartChar: period.ss03
Encoding: 65547 -1 84
GlifName: period.ss03
Width: 163
Flags: HMW
LayerCount: 2
Fore
SplineSet
39 35 m 4
 39 59 58 78 82 78 c 4
 106 78 125 59 125 35 c 4
 125 11 106 -8 82 -8 c 4
 58 -8 39 11 39 35 c 4
EndSplineSet
Substitution2: "'tnum' Tabular Numbers in Latin lookup 11-1" period.ss03.tabl
EndChar

StartChar: colon.ss03
Encoding: 65548 -1 85
GlifName: colon.ss03
Width: 163
Flags: HMW
LayerCount: 2
Fore
SplineSet
39 458 m 4
 39 482 58 501 82 501 c 4
 106 501 125 482 125 458 c 4
 125 434 106 415 82 415 c 4
 58 415 39 434 39 458 c 4
39 35 m 4
 39 59 58 78 82 78 c 4
 106 78 125 59 125 35 c 4
 125 11 106 -8 82 -8 c 4
 58 -8 39 11 39 35 c 4
EndSplineSet
Substitution2: "'tnum' Tabular Numbers in Latin lookup 11-1" colon.ss03.tabl
EndChar

StartChar: semicolon.ss03
Encoding: 65549 -1 86
GlifName: semicolon.ss03
Width: 163
Flags: HMW
LayerCount: 2
Fore
SplineSet
39 458 m 0
 39 482 58 501 82 501 c 0
 106 501 125 482 125 458 c 0
 125 434 106 415 82 415 c 0
 58 415 39 434 39 458 c 0
39 35 m 0
 39 59 58 78 82 78 c 0
 106 78 125 59 125 35 c 2
 125 -17 l 2
 125 -77 87 -97 53 -97 c 2
 41 -97 l 1
 41 -73 l 1
 52 -73 l 2
 82 -73 104 -61 104 -11 c 2
 104 -2 l 1
 98 -6 90 -8 82 -8 c 0
 58 -8 39 11 39 35 c 0
EndSplineSet
EndChar

StartChar: numbersign
Encoding: 35 35 87
GlifName: numbersign
Width: 704
Flags: HMW
LayerCount: 2
Fore
SplineSet
597 226 m 5
 597 177 l 5
 36 177 l 5
 36 226 l 5
 597 226 l 5
669 493 m 5
 669 443 l 5
 108 443 l 5
 108 493 l 5
 669 493 l 5
591 666 m 5
 648 666 l 5
 374 0 l 5
 316 0 l 5
 591 666 l 5
331 666 m 5
 388 666 l 5
 114 0 l 5
 56 0 l 5
 331 666 l 5
EndSplineSet
EndChar

StartChar: slash
Encoding: 47 47 88
GlifName: slash
Width: 403
Flags: HMW
LayerCount: 2
Fore
SplineSet
310 666 m 5
 368 666 l 5
 93 0 l 5
 36 0 l 5
 310 666 l 5
EndSplineSet
Substitution2: "'tnum' Tabular Numbers in Latin lookup 11-1" slash.tabl
EndChar

StartChar: backslash
Encoding: 92 92 89
GlifName: backslash
Width: 403
Flags: HMW
LayerCount: 2
Fore
SplineSet
93 666 m 5
 368 0 l 5
 310 0 l 5
 36 666 l 5
 93 666 l 5
EndSplineSet
EndChar

StartChar: dollar
Encoding: 36 36 90
GlifName: dollar
Width: 583
Flags: HMW
LayerCount: 2
Fore
SplineSet
269 768 m 5
 321 768 l 5
 321 -123 l 5
 269 -123 l 5
 269 768 l 5
328 303 m 2
 251 313 l 2
 123 330 51 386 51 484 c 0
 51 601 140 675 284 675 c 0
 422 675 513 598 525 471 c 1
 472 471 l 1
 456 573 397 622 283 622 c 0
 174 622 102 568 102 486 c 0
 102 418 154 382 255 369 c 2
 332 358 l 2
 469 340 538 281 538 176 c 0
 538 64 446 -8 307 -8 c 0
 153 -8 59 73 46 195 c 1
 101 195 l 1
 118 92 184 44 308 44 c 0
 414 44 486 95 486 176 c 0
 486 247 433 289 328 303 c 2
EndSplineSet
EndChar

StartChar: bar
Encoding: 124 124 91
GlifName: bar
Width: 163
Flags: HMW
LayerCount: 2
Fore
SplineSet
56 820 m 5
 108 820 l 5
 108 -205 l 5
 56 -205 l 5
 56 820 l 5
EndSplineSet
EndChar

StartChar: percent
Encoding: 37 37 92
GlifName: percent
Width: 854
Flags: HMW
LayerCount: 2
Fore
SplineSet
496 197 m 4
 496 319 560 399 657 399 c 4
 753 399 818 319 818 197 c 4
 818 74 753 -8 657 -8 c 4
 560 -8 496 74 496 197 c 4
764 197 m 4
 764 293 725 348 657 348 c 4
 589 348 550 293 550 197 c 4
 550 100 589 43 657 43 c 4
 725 43 764 100 764 197 c 4
536 666 m 5
 593 666 l 5
 318 0 l 5
 261 0 l 5
 536 666 l 5
36 472 m 4
 36 594 101 675 198 675 c 4
 294 675 358 594 358 472 c 4
 358 349 294 267 198 267 c 4
 101 267 36 349 36 472 c 4
304 472 m 4
 304 568 266 624 198 624 c 4
 130 624 90 568 90 472 c 4
 90 375 130 318 198 318 c 4
 266 318 304 375 304 472 c 4
EndSplineSet
EndChar

StartChar: less
Encoding: 60 60 93
GlifName: less
Width: 583
Flags: HMW
LayerCount: 2
Fore
SplineSet
548 512 m 5
 548 455 l 5
 103 274 l 5
 548 100 l 5
 548 41 l 5
 36 248 l 5
 36 305 l 5
 548 512 l 5
EndSplineSet
EndChar

StartChar: greater
Encoding: 62 62 94
GlifName: greater
Width: 583
Flags: HMW
LayerCount: 2
Fore
SplineSet
36 41 m 5
 36 98 l 5
 480 279 l 5
 36 453 l 5
 36 512 l 5
 548 305 l 5
 548 248 l 5
 36 41 l 5
EndSplineSet
EndChar

StartChar: question
Encoding: 63 63 95
GlifName: question
Width: 529
Flags: HMW
LayerCount: 2
Fore
SplineSet
241 146 m 5
 241 246 296 293 347 337 c 4
 390 374 429 409 429 475 c 4
 429 569 367 623 261 623 c 4
 167 623 104 563 100 470 c 5
 46 470 l 5
 54 591 142 674 261 674 c 4
 394 674 483 595 483 475 c 4
 483 387 426 343 374 296 c 4
 331 257 292 216 292 146 c 5
 241 146 l 5
298 0 m 1
 232 0 l 1
 232 72 l 1
 298 72 l 1
 298 0 l 1
EndSplineSet
Substitution2: "'ss03' Style Set 3 in Latin lookup 2-1" question.ss03
EndChar

StartChar: question.ss03
Encoding: 65550 -1 96
GlifName: question.ss03
Width: 529
Flags: HMW
LayerCount: 2
Fore
SplineSet
222 35 m 0
 222 59 241 78 265 78 c 0
 289 78 308 59 308 35 c 0
 308 11 289 -8 265 -8 c 0
 241 -8 222 11 222 35 c 0
241 146 m 1
 241 246 296 293 347 337 c 0
 390 374 429 409 429 475 c 0
 429 569 367 623 261 623 c 0
 167 623 104 563 100 470 c 1
 46 470 l 1
 54 591 142 674 261 674 c 0
 394 674 483 595 483 475 c 0
 483 387 426 343 374 296 c 0
 331 257 292 216 292 146 c 1
 241 146 l 1
EndSplineSet
EndChar

StartChar: parenleft
Encoding: 40 40 97
GlifName: parenleft
Width: 236
Flags: HMW
LayerCount: 2
Fore
SplineSet
221 -137 m 5
 169 -137 l 5
 92 -57 36 89 36 284 c 4
 36 479 92 625 169 705 c 5
 221 705 l 5
 133 618 90 490 90 284 c 4
 90 78 133 -50 221 -137 c 5
EndSplineSet
Substitution2: "'sups' Superscript in Latin lookup 15-1" uni207D
Substitution2: "'subs' Subscript in Latin lookup 14-1" uni208D
EndChar

StartChar: parenright
Encoding: 41 41 98
GlifName: parenright
Width: 236
Flags: HMW
LayerCount: 2
Fore
SplineSet
5 705 m 1
 57 705 l 1
 134 625 190 479 190 284 c 4
 190 89 134 -57 57 -137 c 5
 5 -137 l 5
 93 -50 136 78 136 284 c 4
 136 490 93 618 5 705 c 1
EndSplineSet
Substitution2: "'sups' Superscript in Latin lookup 15-1" uni207E
Substitution2: "'subs' Subscript in Latin lookup 14-1" uni208E
EndChar

StartChar: bracketleft
Encoding: 91 91 99
GlifName: bracketleft
Width: 235
Flags: HMW
LayerCount: 2
Fore
SplineSet
97 657 m 5
 220 657 l 5
 220 707 l 5
 46 707 l 5
 46 -133 l 5
 220 -133 l 5
 220 -84 l 5
 97 -84 l 5
 97 657 l 5
EndSplineSet
EndChar

StartChar: bracketright
Encoding: 93 93 100
GlifName: bracketright
Width: 235
Flags: HMW
LayerCount: 2
Fore
SplineSet
138 -84 m 5
 15 -84 l 5
 15 -133 l 5
 189 -133 l 5
 189 707 l 5
 15 707 l 5
 15 657 l 5
 138 657 l 5
 138 -84 l 5
EndSplineSet
EndChar

StartChar: underscore
Encoding: 95 95 101
GlifName: underscore
Width: 575
Flags: HMW
LayerCount: 2
Fore
SplineSet
36 0 m 5
 540 0 l 5
 540 -49 l 5
 36 -49 l 5
 36 0 l 5
EndSplineSet
EndChar

StartChar: grave
Encoding: 96 96 102
GlifName: grave
Width: 250
Flags: HMW
LayerCount: 2
Fore
SplineSet
36 717 m 5
 100 717 l 5
 215 553 l 5
 171 553 l 5
 36 717 l 5
EndSplineSet
EndChar

StartChar: asterisk
Encoding: 42 42 103
GlifName: asterisk
Width: 540
Flags: HMW
LayerCount: 2
Fore
SplineSet
245 717 m 5
 296 717 l 5
 294 489 l 5
 506 564 l 5
 521 515 l 5
 309 444 l 5
 441 268 l 5
 400 239 l 5
 269 420 l 5
 140 239 l 5
 99 268 l 5
 231 445 l 5
 19 515 l 5
 35 564 l 5
 247 490 l 5
 245 717 l 5
EndSplineSet
Substitution2: "'ss09' Style Set 9 in Latin lookup 8-1" asterisk.ss09
EndChar

StartChar: asterisk.ss09
Encoding: 65551 -1 104
GlifName: asterisk.ss09
Width: 673
Flags: HMW
LayerCount: 2
Fore
SplineSet
311 666 m 1
 362 666 l 1
 360 373 l 1
 612 521 l 1
 638 477 l 1
 383 333 l 1
 638 188 l 1
 612 144 l 1
 360 293 l 1
 362 0 l 1
 311 0 l 1
 313 293 l 1
 61 144 l 1
 36 188 l 1
 291 333 l 1
 36 477 l 1
 61 521 l 1
 313 373 l 1
 311 666 l 1
EndSplineSet
EndChar

StartChar: u.ss10
Encoding: 65552 -1 105
GlifName: u.ss10
Width: 514
Flags: HMW
AnchorPoint: "bottom2" 313 0 basechar 0
AnchorPoint: "top3" 407 512 basechar 0
AnchorPoint: "top1" 263 573 basechar 0
AnchorPoint: "bottom1" 258 0 basechar 0
LayerCount: 2
Fore
SplineSet
56 512 m 5
 108 512 l 5
 108 191 l 6
 108 97 163 43 258 43 c 4
 352 43 407 97 407 191 c 6
 407 512 l 5
 458 512 l 5
 458 191 l 6
 458 71 378 -8 258 -8 c 4
 137 -8 56 71 56 191 c 6
 56 512 l 5
EndSplineSet
EndChar

StartChar: braceleft
Encoding: 123 123 106
GlifName: braceleft
Width: 235
Flags: HMW
LayerCount: 2
Fore
SplineSet
220 657 m 5
 199 657 l 6
 156 657 137 634 137 580 c 6
 137 362 l 6
 137 325 121 299 91 287 c 5
 121 275 137 248 137 211 c 6
 137 -6 l 6
 137 -60 156 -84 199 -84 c 6
 220 -84 l 5
 220 -133 l 5
 194 -133 l 6
 126 -133 86 -88 86 -12 c 6
 86 205 l 6
 86 245 72 262 40 262 c 6
 13 262 l 5
 13 311 l 5
 40 311 l 6
 72 311 86 329 86 369 c 6
 86 586 l 6
 86 662 126 707 194 707 c 6
 220 707 l 5
 220 657 l 5
EndSplineSet
EndChar

StartChar: braceright
Encoding: 125 125 107
GlifName: braceright
Width: 235
Flags: HMW
LayerCount: 2
Fore
SplineSet
13 -84 m 5
 35 -84 l 6
 78 -84 96 -60 96 -6 c 6
 96 211 l 6
 96 248 112 275 142 287 c 5
 112 299 96 325 96 362 c 6
 96 580 l 6
 96 634 78 657 35 657 c 6
 13 657 l 5
 13 707 l 5
 40 707 l 6
 108 707 147 662 147 586 c 6
 147 369 l 6
 147 329 162 311 194 311 c 6
 220 311 l 5
 220 262 l 5
 194 262 l 6
 162 262 147 245 147 205 c 6
 147 -12 l 6
 147 -88 108 -133 40 -133 c 6
 13 -133 l 5
 13 -84 l 5
EndSplineSet
EndChar

StartChar: asciicircum
Encoding: 94 94 108
GlifName: asciicircum
Width: 375
Flags: HMW
LayerCount: 2
Fore
SplineSet
161 717 m 5
 215 717 l 5
 340 512 l 5
 296 512 l 5
 188 684 l 5
 80 512 l 5
 36 512 l 5
 161 717 l 5
EndSplineSet
EndChar

StartChar: ampersand
Encoding: 38 38 109
GlifName: ampersand
Width: 621
Flags: HMW
LayerCount: 2
Fore
SplineSet
258 674 m 4
 354 674 422 608 422 517 c 4
 422 416 347 371 251 326 c 4
 185 295 100 261 100 164 c 4
 100 88 153 43 249 43 c 4
 380 43 470 148 490 329 c 5
 545 329 l 5
 525 126 404 -8 248 -8 c 4
 125 -8 46 61 46 167 c 4
 46 290 153 329 250 379 c 4
 309 410 368 445 368 522 c 4
 368 582 324 623 258 623 c 4
 198 623 160 583 160 521 c 4
 160 453 209 406 261 357 c 6
 606 0 l 5
 534 0 l 5
 219 326 l 6
 161 382 105 439 105 519 c 4
 105 610 169 674 258 674 c 4
EndSplineSet
EndChar

StartChar: at
Encoding: 64 64 110
GlifName: at
Width: 906
Flags: HW
LayerCount: 2
Fore
SplineSet
318 285 m 4
 318 387 364 447 445 447 c 4
 526 447 573 387 573 285 c 4
 573 182 525 122 445 122 c 4
 364 122 318 183 318 285 c 4
607 285 m 4
 607 414 540 499 438 499 c 4
 335 499 264 413 264 285 c 4
 264 157 335 71 438 71 c 4
 540 71 607 156 607 285 c 4
625 488 m 5
 573 488 l 5
 573 191 l 6
 573 117 621 75 701 75 c 4
 799 75 860 154 860 304 c 4
 860 536 699 707 454 707 c 4
 209 707 46 538 46 289 c 4
 46 40 209 -121 455 -121 c 4
 512 -121 565 -111 613 -94 c 5
 613 -43 l 5
 554 -61 503 -70 450 -70 c 4
 236 -70 100 66 100 290 c 4
 100 514 236 655 454 655 c 4
 672 655 806 514 806 293 c 4
 806 175 771 125 700 125 c 4
 650 125 625 153 625 202 c 6
 625 488 l 5
EndSplineSet
EndChar

StartChar: dotlessi
Encoding: 305 305 111
GlifName: dotlessi
Width: 163
Flags: HW
AnchorPoint: "bottom1" 83 0 basechar 0
AnchorPoint: "top1" 82 573 basechar 0
LayerCount: 2
Fore
SplineSet
56 512 m 5
 108 512 l 5
 108 0 l 5
 56 0 l 5
 56 512 l 5
EndSplineSet
Substitution2: "'ss03' Style Set 3 in Latin lookup 2-1" dotlessi.ss03
EndChar

StartChar: uni0237
Encoding: 567 567 112
GlifName: uni0237
Width: 163
Flags: HW
AnchorPoint: "top1" 82 573 basechar 0
LayerCount: 2
Fore
SplineSet
-37 -109 m 1
 -5 -109 l 2
 30 -109 56 -94 56 -31 c 2
 56 512 l 1
 108 512 l 1
 108 -37 l 2
 108 -129 49 -158 -4 -158 c 2
 -37 -158 l 1
 -37 -109 l 1
EndSplineSet
EndChar

StartChar: gravecomb
Encoding: 768 768 113
GlifName: gravecomb
Width: 307
Flags: HW
AnchorPoint: "top1" 160 512 mark 0
LayerCount: 2
Fore
SplineSet
30 666 m 1
 94 666 l 1
 209 512 l 1
 165 512 l 1
 30 666 l 1
EndSplineSet
EndChar

StartChar: acutecomb
Encoding: 769 769 116
GlifName: acutecomb
Width: 307
Flags: HW
AnchorPoint: "top1" 160 512 mark 0
LayerCount: 2
Fore
SplineSet
288 666 m 5
 153 512 l 5
 109 512 l 5
 223 666 l 5
 288 666 l 5
EndSplineSet
EndChar

StartChar: uni0302
Encoding: 770 770 117
GlifName: uni0302
Width: 307
Flags: HW
AnchorPoint: "top1" 160 512 mark 0
LayerCount: 2
Fore
SplineSet
127 676 m 1
 181 676 l 1
 347 512 l 1
 283 512 l 1
 155 643 l 1
 26 512 l 1
 -39 512 l 1
 127 676 l 1
EndSplineSet
EndChar

StartChar: tildecomb
Encoding: 771 771 118
GlifName: tildecomb
Width: 307
Flags: HW
AnchorPoint: "top1" 160 512 mark 0
LayerCount: 2
Fore
SplineSet
80 655 m 0
 121 655 145 626 167 600 c 0
 186 576 203 553 229 553 c 0
 260 553 281 591 281 649 c 1
 325 649 l 1
 325 563 287 508 229 508 c 0
 187 508 163 533 141 557 c 0
 119 582 104 610 78 610 c 0
 46 610 26 571 26 512 c 1
 -20 512 l 1
 -20 601 18 655 80 655 c 0
EndSplineSet
EndChar

StartChar: uni0304
Encoding: 772 772 119
GlifName: uni0304
Width: 307
Flags: HW
AnchorPoint: "top1" 160 512 mark 0
LayerCount: 2
Fore
SplineSet
0 580 m 5
 307 580 l 5
 307 532 l 5
 0 532 l 5
 0 580 l 5
EndSplineSet
EndChar

StartChar: uni0306
Encoding: 774 774 120
GlifName: uni0306
Width: 307
Flags: HW
AnchorPoint: "top1" 160 512 mark 0
LayerCount: 2
Fore
SplineSet
316 655 m 1
 309 569 250 512 156 512 c 0
 61 512 1 569 -6 655 c 1
 46 655 l 1
 53 591 89 555 156 555 c 0
 223 555 257 591 264 655 c 1
 316 655 l 1
EndSplineSet
EndChar

StartChar: uni0308
Encoding: 776 776 121
GlifName: uni0308
Width: 307
Flags: HW
AnchorPoint: "top1" 160 512 mark 0
LayerCount: 2
Fore
SplineSet
222 584 m 1
 288 584 l 1
 288 512 l 1
 222 512 l 1
 222 584 l 1
18 584 m 5
 84 584 l 5
 84 512 l 5
 18 512 l 5
 18 584 l 5
EndSplineSet
Substitution2: "'ss03' Style Set 3 in Latin lookup 2-1" uni0308.ss03
EndChar

StartChar: uni0307
Encoding: 775 775 122
GlifName: uni0307
Width: 307
Flags: HW
AnchorPoint: "top1" 160 512 mark 0
LayerCount: 2
Fore
SplineSet
126 584 m 5
 191 584 l 5
 191 512 l 5
 126 512 l 5
 126 584 l 5
EndSplineSet
Substitution2: "'ss03' Style Set 3 in Latin lookup 2-1" uni0307.ss03
EndChar

StartChar: uni030A
Encoding: 778 778 123
GlifName: uni030A_
Width: 307
Flags: HW
AnchorPoint: "top1" 160 512 mark 0
LayerCount: 2
Fore
SplineSet
74 638 m 0
 74 581 104 548 156 548 c 0
 207 548 237 581 237 638 c 0
 237 695 207 728 155 728 c 0
 104 728 74 695 74 638 c 0
286 638 m 0
 286 558 234 505 156 505 c 0
 77 505 25 558 25 638 c 0
 25 718 77 771 155 771 c 0
 234 771 286 718 286 638 c 0
EndSplineSet
EndChar

StartChar: uni030C
Encoding: 780 780 124
GlifName: uni030C_
Width: 307
Flags: HW
AnchorPoint: "top1" 160 512 mark 0
LayerCount: 2
Fore
SplineSet
181 512 m 1
 127 512 l 1
 -39 676 l 1
 26 676 l 1
 154 545 l 1
 283 676 l 1
 347 676 l 1
 181 512 l 1
EndSplineSet
EndChar

StartChar: uni0327
Encoding: 807 807 252
GlifName: uni0327
Width: 307
Flags: HW
AnchorPoint: "bottom1" 164 0 mark 0
LayerCount: 2
Fore
SplineSet
142 10 m 1
 188 10 l 1
 179 -56 l 1
 195 -56 l 2
 257 -56 299 -98 299 -160 c 0
 299 -229 248 -272 169 -272 c 2
 78 -272 l 1
 78 -221 l 1
 161 -221 l 2
 216 -221 245 -199 245 -158 c 0
 245 -126 223 -108 187 -108 c 2
 153 -108 l 1
 128 -77 l 1
 142 10 l 1
EndSplineSet
EndChar

StartChar: uni0328
Encoding: 808 808 253
GlifName: uni0328
Width: 307
Flags: HW
AnchorPoint: "bottom2" 201 0 mark 0
LayerCount: 2
Fore
SplineSet
201 0 m 1
 115 -64 97 -104 97 -160 c 0
 97 -207 126 -231 181 -231 c 2
 244 -231 l 1
 244 -283 l 1
 173 -283 l 2
 94 -283 43 -236 43 -162 c 0
 43 -78 96 -31 152 0 c 1
 201 0 l 1
EndSplineSet
EndChar

StartChar: longs
Encoding: 383 383 268
GlifName: longs
Width: 257
Flags: HW
LayerCount: 2
Fore
SplineSet
221 668 m 5
 179 668 l 6
 138 668 108 653 108 590 c 6
 108 0 l 5
 56 0 l 5
 56 596 l 6
 56 688 120 717 178 717 c 6
 221 717 l 5
 221 668 l 5
EndSplineSet
EndChar

StartChar: thorn
Encoding: 254 254 269
GlifName: thorn
Width: 565
Flags: HW
LayerCount: 2
Fore
SplineSet
56 717 m 1
 108 717 l 1
 108 -167 l 5
 56 -167 l 5
 56 717 l 1
74 258 m 0
 74 417 160 522 290 522 c 0
 427 522 519 417 519 258 c 0
 519 98 427 -8 290 -8 c 0
 160 -8 74 98 74 258 c 0
465 258 m 0
 465 393 400 471 287 471 c 0
 173 471 108 393 108 258 c 0
 108 122 173 43 287 43 c 0
 400 43 465 122 465 258 c 0
EndSplineSet
EndChar

StartChar: Thorn
Encoding: 222 222 270
GlifName: T_horn
Width: 567
Flags: HW
LayerCount: 2
Fore
SplineSet
56 666 m 1
 108 666 l 1
 108 551 l 1
 314 551 l 2
 441 551 526 468 526 342 c 0
 526 226 447 140 319 140 c 2
 108 140 l 1
 108 0 l 1
 56 0 l 1
 56 666 l 1
108 502 m 1
 108 189 l 1
 309 189 l 2
 411 189 472 246 472 342 c 0
 472 443 412 502 309 502 c 2
 108 502 l 1
EndSplineSet
EndChar

StartChar: uni0326
Encoding: 806 806 273
GlifName: uni0326
Width: 307
Flags: HW
AnchorPoint: "bottom1" 164 0 mark 0
LayerCount: 2
Fore
SplineSet
131 -39 m 1
 197 -39 l 1
 197 -126 l 2
 197 -202 159 -226 125 -226 c 2
 113 -226 l 1
 113 -191 l 1
 124 -191 l 2
 151 -191 171 -179 171 -120 c 2
 171 -111 l 1
 131 -111 l 1
 131 -39 l 1
EndSplineSet
Substitution2: "'ss03' Style Set 3 in Latin lookup 2-1" uni0326.ss03
EndChar

StartChar: uni0312
Encoding: 786 786 274
GlifName: uni0312
Width: 307
Flags: HW
AnchorPoint: "top1" 160 512 mark 0
LayerCount: 2
Fore
SplineSet
193 512 m 1
 127 512 l 1
 127 599 l 2
 127 675 165 699 199 699 c 2
 211 699 l 1
 211 665 l 1
 200 665 l 2
 173 665 153 652 153 593 c 2
 153 584 l 1
 193 584 l 1
 193 512 l 1
EndSplineSet
Substitution2: "'ss03' Style Set 3 in Latin lookup 2-1" uni0312.ss03
EndChar

StartChar: uni0313
Encoding: 787 787 275
GlifName: uni0313
Width: 307
Flags: HW
AnchorPoint: "top1" 160 512 mark 0
LayerCount: 2
Fore
SplineSet
145 699 m 5
 211 699 l 5
 211 612 l 6
 211 536 173 512 139 512 c 6
 127 512 l 5
 127 547 l 5
 138 547 l 6
 165 547 185 559 185 618 c 6
 185 628 l 5
 145 628 l 5
 145 699 l 5
EndSplineSet
Substitution2: "'ss03' Style Set 3 in Latin lookup 2-1" uni0313.ss03
EndChar

StartChar: kgreenlandic
Encoding: 312 312 284
GlifName: kgreenlandic
Width: 478
Flags: HW
LayerCount: 2
Fore
SplineSet
56 512 m 1
 108 512 l 1
 108 0 l 1
 56 0 l 1
 56 512 l 1
368 512 m 1
 434 512 l 1
 206 257 l 1
 442 0 l 1
 376 0 l 1
 170 220 l 1
 106 148 l 1
 77 184 l 1
 368 512 l 1
EndSplineSet
EndChar

StartChar: AE
Encoding: 198 198 285
GlifName: A_E_
Width: 972
Flags: HW
AnchorPoint: "top1" 479 717 basechar 0
LayerCount: 2
Fore
SplineSet
927 666 m 1
 927 616 l 1
 538 616 l 1
 538 366 l 1
 898 366 l 1
 898 316 l 1
 538 316 l 1
 538 49 l 1
 927 49 l 1
 927 0 l 1
 486 0 l 1
 486 193 l 1
 189 193 l 1
 92 0 l 1
 36 0 l 1
 371 666 l 1
 927 666 l 1
214 242 m 1
 486 242 l 1
 486 614 l 1
 402 614 l 1
 214 242 l 1
EndSplineSet
EndChar

StartChar: Eth
Encoding: 208 208 286
GlifName: E_th
Width: 715
Flags: HW
LayerCount: 2
Fore
SplineSet
31 348 m 1
 412 348 l 5
 412 299 l 5
 31 299 l 1
 31 348 l 1
200 616 m 1
 200 49 l 1
 396 49 l 2
 534 49 615 149 615 321 c 0
 615 508 528 616 376 616 c 2
 200 616 l 1
386 666 m 2
 556 666 670 528 670 321 c 0
 670 128 565 0 407 0 c 2
 148 0 l 1
 148 666 l 1
 386 666 l 2
EndSplineSet
EndChar

StartChar: Oslash
Encoding: 216 216 287
GlifName: O_slash
Width: 680
Flags: HW
LayerCount: 2
Fore
SplineSet
598 696 m 5
 635 666 l 5
 83 -31 l 5
 46 0 l 5
 598 696 l 5
46 325 m 0
 46 536 164 676 341 676 c 0
 517 676 635 536 635 325 c 0
 635 125 517 -8 341 -8 c 0
 164 -8 46 125 46 325 c 0
581 325 m 0
 581 514 493 625 341 625 c 0
 188 625 100 514 100 325 c 0
 100 147 188 43 341 43 c 0
 493 43 581 147 581 325 c 0
EndSplineSet
EndChar

StartChar: oslash
Encoding: 248 248 288
GlifName: oslash
Width: 558
Flags: HW
LayerCount: 2
Fore
SplineSet
471 543 m 5
 508 512 l 5
 83 -31 l 5
 46 0 l 5
 471 543 l 5
46 258 m 0
 46 417 140 522 280 522 c 0
 419 522 512 417 512 258 c 0
 512 98 419 -8 280 -8 c 0
 140 -8 46 98 46 258 c 0
458 258 m 0
 458 393 393 471 280 471 c 0
 166 471 100 393 100 258 c 0
 100 122 166 43 280 43 c 0
 393 43 458 122 458 258 c 0
EndSplineSet
EndChar

StartChar: ae
Encoding: 230 230 289
GlifName: ae
Width: 914
Flags: HW
AnchorPoint: "top1" 449 573 basechar 0
LayerCount: 2
Fore
SplineSet
404 258 m 0
 404 421 495 522 638 522 c 0
 772 522 868 417 868 272 c 2
 868 242 l 1
 450 242 l 1
 450 291 l 1
 813 291 l 1
 804 401 735 471 638 471 c 0
 520 471 459 397 459 258 c 0
 459 118 523 43 644 43 c 0
 737 43 794 89 808 159 c 1
 862 159 l 1
 839 53 768 -8 644 -8 c 0
 497 -8 404 94 404 258 c 0
456 141 m 1
 404 133 l 1
 404 344 l 2
 404 416 341 471 259 471 c 0
 165 471 114 431 105 350 c 1
 50 350 l 1
 57 454 138 522 258 522 c 0
 371 522 456 444 456 343 c 2
 456 141 l 1
446 225 m 1
 446 94 343 -10 215 -10 c 0
 116 -10 46 51 46 139 c 0
 46 218 100 269 190 275 c 2
 339 286 l 2
 386 289 404 305 404 342 c 1
 406 240 l 1
 206 226 l 2
 135 221 99 192 99 139 c 0
 99 79 148 41 225 41 c 0
 328 41 404 119 404 225 c 1
 446 225 l 1
EndSplineSet
EndChar

StartChar: multiply
Encoding: 215 215 290
GlifName: multiply
Width: 559
Flags: HW
LayerCount: 2
Fore
SplineSet
280 317 m 1
 455 493 l 1
 489 458 l 1
 314 283 l 1
 489 108 l 1
 455 73 l 1
 280 248 l 1
 104 73 l 1
 70 108 l 1
 245 283 l 1
 70 458 l 1
 104 493 l 1
 280 317 l 1
EndSplineSet
Substitution2: "'tnum' Tabular Numbers in Latin lookup 11-1" multiply.tabl
EndChar

StartChar: divide
Encoding: 247 247 291
GlifName: divide
Width: 473
Flags: HW
LayerCount: 2
Fore
SplineSet
203 519 m 5
 268 519 l 5
 268 447 l 5
 203 447 l 5
 203 519 l 5
203 99 m 5
 268 99 l 5
 268 28 l 5
 203 28 l 5
 203 99 l 5
36 307 m 1
 437 307 l 1
 437 258 l 1
 36 258 l 1
 36 307 l 1
EndSplineSet
Substitution2: "'tnum' Tabular Numbers in Latin lookup 11-1" divide.tabl
Substitution2: "'ss03' Style Set 3 in Latin lookup 2-1" divide.ss03
EndChar

StartChar: Dcroat
Encoding: 272 272 292
GlifName: D_croat
Width: 715
Flags: HW
LayerCount: 2
Fore
SplineSet
31 348 m 1
 412 348 l 5
 412 299 l 5
 31 299 l 1
 31 348 l 1
200 616 m 1
 200 49 l 1
 396 49 l 2
 534 49 615 149 615 321 c 0
 615 508 528 616 376 616 c 2
 200 616 l 1
386 666 m 2
 556 666 670 528 670 321 c 0
 670 128 565 0 407 0 c 2
 148 0 l 1
 148 666 l 1
 386 666 l 2
EndSplineSet
EndChar

StartChar: dcroat
Encoding: 273 273 293
GlifName: dcroat
Width: 616
Flags: HW
LayerCount: 2
Fore
SplineSet
256 645 m 5
 256 598 l 5
 596 598 l 5
 596 645 l 5
 256 645 l 5
509 717 m 5
 458 717 l 5
 458 0 l 5
 509 0 l 5
 509 717 l 5
492 258 m 4
 492 417 405 522 275 522 c 4
 138 522 46 417 46 258 c 4
 46 98 138 -8 275 -8 c 4
 405 -8 492 98 492 258 c 4
100 258 m 4
 100 393 166 471 279 471 c 4
 393 471 458 393 458 258 c 4
 458 122 393 43 279 43 c 4
 166 43 100 122 100 258 c 4
EndSplineSet
EndChar

StartChar: eth
Encoding: 240 240 296
GlifName: eth
Width: 570
Flags: HW
LayerCount: 2
Fore
SplineSet
447 256 m 0
 447 377 374 462 270 462 c 0
 167 462 100 379 100 252 c 0
 100 126 166 44 266 44 c 0
 371 44 447 133 447 256 c 0
369 717 m 1
 475 612 524 495 524 347 c 0
 524 135 421 -8 269 -8 c 0
 137 -8 46 99 46 252 c 0
 46 404 137 514 263 514 c 0
 356 514 435 454 468 360 c 1
 470 377 470 386 470 394 c 0
 470 486 396 627 300 717 c 1
 369 717 l 1
223 606 m 5
 539 672 l 5
 539 623 l 1
 223 557 l 1
 223 606 l 5
EndSplineSet
EndChar

StartChar: uni0315
Encoding: 789 789 298
GlifName: uni0315
Width: 307
Flags: W
HStem: 512 187<156 175>
VStem: 127 82
AnchorPoint: "top2" 127 512 mark 0
LayerCount: 2
Fore
SplineSet
156 699 m 1
 209 699 l 5
 175 512 l 1
 127 512 l 1
 156 699 l 1
EndSplineSet
EndChar

StartChar: periodcentered
Encoding: 183 183 302
GlifName: periodcentered
Width: 163
Flags: W
HStem: 291 71<49 115>
VStem: 49 66<291 362>
LayerCount: 2
Fore
SplineSet
49 362 m 5
 115 362 l 5
 115 291 l 5
 49 291 l 5
 49 362 l 5
EndSplineSet
Substitution2: "'ss03' Style Set 3 in Latin lookup 2-1" periodcentered.ss03
EndChar

StartChar: Hbar
Encoding: 294 294 305
GlifName: H_bar
Width: 665
Flags: HW
LayerCount: 2
Fore
SplineSet
20 541 m 1
 645 541 l 1
 645 492 l 1
 20 492 l 1
 20 541 l 1
77 666 m 1
 128 666 l 1
 128 369 l 1
 538 369 l 1
 538 666 l 1
 589 666 l 1
 589 0 l 1
 538 0 l 1
 538 319 l 1
 128 319 l 1
 128 0 l 1
 77 0 l 1
 77 666 l 1
EndSplineSet
EndChar

StartChar: hbar
Encoding: 295 295 306
GlifName: hbar
Width: 552
Flags: HW
LayerCount: 2
Fore
SplineSet
0 645 m 5
 340 645 l 5
 340 598 l 5
 0 598 l 5
 0 645 l 5
445 317 m 2
 445 425 387 471 296 471 c 0
 207 471 138 410 138 324 c 1
 109 330 l 1
 110 450 212 522 306 522 c 0
 417 522 497 454 497 328 c 2
 497 0 l 1
 445 0 l 1
 445 317 l 2
87 717 m 1
 138 717 l 1
 138 0 l 1
 87 0 l 1
 87 717 l 1
EndSplineSet
EndChar

StartChar: uni030B
Encoding: 779 779 307
GlifName: uni030B_
Width: 307
Flags: HW
AnchorPoint: "top1" 160 512 mark 0
LayerCount: 2
Fore
SplineSet
370 666 m 5
 234 512 l 5
 190 512 l 5
 305 666 l 5
 370 666 l 5
226 666 m 5
 91 512 l 5
 47 512 l 5
 162 666 l 5
 226 666 l 5
EndSplineSet
EndChar

StartChar: uni02BC
Encoding: 700 700 311
GlifName: uni02B_C_
Width: 128
Flags: HW
LayerCount: 2
Fore
SplineSet
62 699 m 5
 128 699 l 5
 128 612 l 6
 128 536 90 512 56 512 c 6
 44 512 l 5
 44 547 l 5
 55 547 l 6
 82 547 102 559 102 618 c 6
 102 628 l 5
 62 628 l 5
 62 699 l 5
EndSplineSet
EndChar

StartChar: Lslash
Encoding: 321 321 312
GlifName: L_slash
Width: 512
Flags: HW
LayerCount: 2
Fore
SplineSet
0 339 m 5
 315 404 l 5
 315 355 l 5
 0 290 l 5
 0 339 l 5
476 0 m 1
 87 0 l 1
 87 666 l 1
 138 666 l 1
 138 49 l 1
 476 49 l 1
 476 0 l 1
EndSplineSet
EndChar

StartChar: lslash
Encoding: 322 322 313
GlifName: lslash
Width: 233
Flags: HW
LayerCount: 2
Fore
SplineSet
0 359 m 5
 233 404 l 5
 233 355 l 5
 0 310 l 5
 0 359 l 5
95 717 m 1
 146 717 l 1
 146 0 l 1
 95 0 l 1
 95 717 l 1
EndSplineSet
Substitution2: "'ss02' Style Set 2 in Latin lookup 1-1" lslash.ss02
EndChar

StartChar: Eng
Encoding: 330 330 314
GlifName: E_ng
Width: 624
Flags: HW
LayerCount: 2
Fore
SplineSet
517 666 m 1
 568 666 l 1
 568 -37 l 2
 568 -126 519 -178 436 -178 c 2
 383 -178 l 1
 383 -129 l 1
 435 -129 l 2
 492 -129 517 -100 517 -31 c 2
 517 0 l 1
 108 605 l 1
 108 0 l 1
 56 0 l 1
 56 666 l 1
 128 666 l 1
 517 93 l 1
 517 666 l 1
EndSplineSet
EndChar

StartChar: eng
Encoding: 331 331 315
GlifName: eng
Width: 522
Flags: HW
LayerCount: 2
Fore
SplineSet
56 512 m 5
 108 512 l 5
 108 0 l 5
 56 0 l 5
 56 512 l 5
415 317 m 6
 415 418 363 471 265 471 c 4
 174 471 108 409 108 324 c 5
 78 330 l 5
 79 437 167 522 275 522 c 4
 392 522 466 448 466 328 c 6
 466 -37 l 6
 466 -126 417 -178 334 -178 c 6
 281 -178 l 5
 281 -129 l 5
 333 -129 l 6
 390 -129 415 -100 415 -31 c 6
 415 317 l 6
EndSplineSet
EndChar

StartChar: OE
Encoding: 338 338 316
GlifName: O_E_
Width: 1067
Flags: HW
LayerCount: 2
Fore
SplineSet
1021 666 m 1
 1021 616 l 1
 632 616 l 1
 632 366 l 1
 992 366 l 1
 992 316 l 1
 632 316 l 1
 632 49 l 1
 1021 49 l 1
 1021 0 l 1
 581 0 l 1
 581 666 l 1
 1021 666 l 1
46 325 m 0
 46 536 160 676 331 676 c 0
 501 676 614 536 614 325 c 0
 614 125 501 -8 331 -8 c 0
 160 -8 46 125 46 325 c 0
581 325 m 0
 581 514 493 625 341 625 c 0
 188 625 100 514 100 325 c 0
 100 147 188 43 341 43 c 0
 493 43 581 147 581 325 c 0
EndSplineSet
EndChar

StartChar: oe
Encoding: 339 339 317
GlifName: oe
Width: 969
Flags: HW
LayerCount: 2
Fore
SplineSet
458 258 m 4
 458 421 548 522 691 522 c 4
 825 522 922 417 922 272 c 6
 922 242 l 5
 503 242 l 5
 503 291 l 5
 866 291 l 5
 857 401 788 471 691 471 c 4
 573 471 512 397 512 258 c 4
 512 118 576 43 697 43 c 4
 790 43 847 89 861 159 c 5
 915 159 l 5
 892 53 821 -8 697 -8 c 4
 550 -8 458 94 458 258 c 4
46 258 m 4
 46 417 140 522 280 522 c 4
 419 522 512 417 512 258 c 4
 512 98 419 -8 280 -8 c 4
 140 -8 46 98 46 258 c 4
458 258 m 4
 458 393 393 471 280 471 c 4
 166 471 100 393 100 258 c 4
 100 122 166 43 280 43 c 4
 393 43 458 122 458 258 c 4
EndSplineSet
EndChar

StartChar: Tbar
Encoding: 358 358 320
GlifName: T_bar
Width: 532
Flags: HW
LayerCount: 2
Fore
SplineSet
77 348 m 5
 458 348 l 5
 458 299 l 5
 77 299 l 5
 77 348 l 5
497 666 m 1
 497 616 l 1
 292 616 l 1
 292 0 l 1
 241 0 l 1
 241 616 l 1
 36 616 l 1
 36 666 l 1
 497 666 l 1
EndSplineSet
EndChar

StartChar: tbar
Encoding: 359 359 321
GlifName: tbar
Width: 319
Flags: HW
LayerCount: 2
Fore
SplineSet
36 307 m 5
 284 307 l 5
 284 258 l 5
 36 258 l 5
 36 307 l 5
36 512 m 1
 284 512 l 1
 284 463 l 1
 36 463 l 1
 36 512 l 1
284 49 m 1
 284 0 l 1
 241 0 l 2
 190 0 134 29 134 121 c 2
 134 645 l 1
 185 645 l 1
 185 127 l 2
 185 64 210 49 242 49 c 2
 284 49 l 1
EndSplineSet
Substitution2: "'ss08' Style Set 8 in Latin lookup 7-1" tbar.ss08
EndChar

StartChar: germandbls
Encoding: 223 223 322
GlifName: germandbls
Width: 558
Flags: HW
LayerCount: 2
Fore
SplineSet
290 674 m 0
 177 674 108 602 108 487 c 2
 108 0 l 1
 56 0 l 1
 56 494 l 2
 56 629 149 725 290 725 c 0
 408 725 502 640 502 534 c 0
 502 422 430 346 321 346 c 5
 321 387 l 5
 402 387 447 441 447 534 c 0
 447 615 381 674 290 674 c 0
372 387 m 5
 372 336 l 5
 250 336 l 5
 250 387 l 5
 372 387 l 5
321 377 m 5
 436 377 512 306 512 200 c 0
 512 80 427 0 300 0 c 2
 209 0 l 1
 209 51 l 1
 300 51 l 2
 400 51 458 105 458 200 c 0
 458 287 408 336 321 336 c 5
 321 377 l 5
EndSplineSet
EndChar

StartChar: uni1E9E
Encoding: 7838 7838 323
GlifName: uni1E_9E_
Width: 619
Flags: HW
LayerCount: 2
Fore
SplineSet
528 594 m 1
 467 614 403 628 325 628 c 0
 173 628 108 564 108 416 c 2
 108 0 l 1
 56 0 l 1
 56 422 l 2
 56 590 147 677 322 677 c 0
 401 677 467 662 528 640 c 1
 528 594 l 1
366 357 m 1
 513 352 573 284 573 185 c 0
 573 74 484 0 349 0 c 2
 278 0 l 1
 278 51 l 1
 342 51 l 2
 455 51 519 100 519 185 c 0
 519 264 459 309 353 309 c 2
 311 309 l 1
 311 360 l 1
 486 618 l 1
 528 594 l 1
 366 357 l 1
EndSplineSet
EndChar

StartChar: asciitilde
Encoding: 126 126 324
GlifName: asciitilde
Width: 437
Flags: HW
LayerCount: 2
Fore
SplineSet
136 512 m 4
 182 512 208 483 233 457 c 4
 256 433 275 410 306 410 c 4
 337 410 357 448 357 506 c 5
 401 506 l 5
 401 420 364 365 306 365 c 4
 259 365 232 390 208 414 c 4
 183 439 164 467 134 467 c 4
 102 467 82 428 82 369 c 5
 36 369 l 5
 36 458 74 512 136 512 c 4
EndSplineSet
EndChar

StartChar: exclamdown
Encoding: 161 161 325
GlifName: exclamdown
Width: 163
Flags: HW
LayerCount: 2
Fore
SplineSet
49 512 m 5
 115 512 l 5
 115 440 l 5
 49 440 l 5
 49 512 l 5
60 366 m 5
 103 366 l 5
 108 -154 l 5
 56 -154 l 5
 60 366 l 5
EndSplineSet
Substitution2: "'ss03' Style Set 3 in Latin lookup 2-1" exclamdown.ss03
EndChar

StartChar: questiondown
Encoding: 191 191 326
GlifName: questiondown
Width: 529
Flags: HW
LayerCount: 2
Fore
SplineSet
289 366 m 5
 289 266 233 219 182 175 c 4
 139 138 100 103 100 37 c 4
 100 -57 162 -111 268 -111 c 4
 362 -111 425 -51 429 42 c 5
 483 42 l 5
 475 -79 387 -162 268 -162 c 4
 135 -162 46 -83 46 37 c 4
 46 125 104 169 156 216 c 4
 199 255 238 296 238 366 c 5
 289 366 l 5
231 512 m 5
 297 512 l 5
 297 440 l 5
 231 440 l 5
 231 512 l 5
EndSplineSet
Substitution2: "'ss03' Style Set 3 in Latin lookup 2-1" questiondown.ss03
EndChar

StartChar: endash
Encoding: 8211 8211 327
GlifName: endash
Width: 669
Flags: HW
LayerCount: 2
Fore
SplineSet
36 307 m 1
 634 307 l 5
 634 258 l 5
 36 258 l 1
 36 307 l 1
EndSplineSet
EndChar

StartChar: emdash
Encoding: 8212 8212 328
GlifName: emdash
Width: 1005
Flags: HW
LayerCount: 2
Fore
SplineSet
36 307 m 1
 970 307 l 5
 970 258 l 5
 36 258 l 1
 36 307 l 1
EndSplineSet
EndChar

StartChar: quoteleft
Encoding: 8216 8216 329
GlifName: quoteleft
Width: 163
Flags: HW
LayerCount: 2
Fore
SplineSet
108 512 m 5
 42 512 l 5
 42 584 l 5
 73 717 l 5
 115 717 l 5
 68 584 l 5
 108 584 l 5
 108 512 l 5
EndSplineSet
Substitution2: "'ss03' Style Set 3 in Latin lookup 2-1" quoteleft.ss03
EndChar

StartChar: quoteright
Encoding: 8217 8217 330
GlifName: quoteright
Width: 163
Flags: HW
LayerCount: 2
Fore
SplineSet
49 717 m 5
 115 717 l 5
 115 645 l 5
 84 512 l 5
 42 512 l 5
 89 645 l 5
 49 645 l 5
 49 717 l 5
EndSplineSet
Substitution2: "'ss03' Style Set 3 in Latin lookup 2-1" quoteright.ss03
EndChar

StartChar: quotedblleft
Encoding: 8220 8220 331
GlifName: quotedblleft
Width: 276
Flags: HW
LayerCount: 2
Fore
SplineSet
220 512 m 5
 155 512 l 5
 155 584 l 5
 185 717 l 5
 227 717 l 5
 180 584 l 5
 220 584 l 5
 220 512 l 5
108 512 m 1
 42 512 l 1
 42 584 l 1
 73 717 l 1
 115 717 l 1
 68 584 l 1
 108 584 l 1
 108 512 l 1
EndSplineSet
Substitution2: "'ss03' Style Set 3 in Latin lookup 2-1" quotedblleft.ss03
EndChar

StartChar: quotesinglbase
Encoding: 8218 8218 332
GlifName: quotesinglbase
Width: 163
Flags: HW
LayerCount: 2
Fore
SplineSet
49 72 m 5
 115 72 l 5
 115 0 l 5
 84 -133 l 5
 42 -133 l 5
 89 0 l 5
 49 0 l 5
 49 72 l 5
EndSplineSet
Substitution2: "'ss03' Style Set 3 in Latin lookup 2-1" quotesinglbase.ss03
EndChar

StartChar: quotereversed
Encoding: 8219 8219 333
GlifName: quotereversed
Width: 163
Flags: HW
LayerCount: 2
Fore
SplineSet
108 717 m 5
 108 645 l 5
 68 645 l 5
 115 512 l 5
 73 512 l 5
 42 645 l 5
 42 717 l 5
 108 717 l 5
EndSplineSet
Substitution2: "'ss03' Style Set 3 in Latin lookup 2-1" quotereversed.ss03
EndChar

StartChar: quotedblright
Encoding: 8221 8221 334
GlifName: quotedblright
Width: 276
Flags: HW
LayerCount: 2
Fore
SplineSet
49 717 m 5
 115 717 l 5
 115 645 l 5
 84 512 l 5
 42 512 l 5
 89 645 l 5
 49 645 l 5
 49 717 l 5
162 717 m 1
 227 717 l 1
 227 645 l 1
 197 512 l 1
 155 512 l 1
 202 645 l 1
 162 645 l 1
 162 717 l 1
EndSplineSet
Substitution2: "'ss03' Style Set 3 in Latin lookup 2-1" quotedblright.ss03
EndChar

StartChar: quotedblbase
Encoding: 8222 8222 335
GlifName: quotedblbase
Width: 276
Flags: HW
LayerCount: 2
Fore
SplineSet
49 72 m 5
 115 72 l 5
 115 0 l 5
 84 -133 l 5
 42 -133 l 5
 89 0 l 5
 49 0 l 5
 49 72 l 5
162 72 m 5
 227 72 l 5
 227 0 l 5
 197 -133 l 5
 155 -133 l 5
 202 0 l 5
 162 0 l 5
 162 72 l 5
EndSplineSet
Substitution2: "'ss03' Style Set 3 in Latin lookup 2-1" quotedblbase.ss03
EndChar

StartChar: uni201F
Encoding: 8223 8223 336
GlifName: uni201F_
Width: 276
Flags: HW
LayerCount: 2
Fore
SplineSet
220 717 m 5
 220 645 l 5
 180 645 l 5
 227 512 l 5
 185 512 l 5
 155 645 l 5
 155 717 l 5
 220 717 l 5
108 717 m 1
 108 645 l 1
 68 645 l 1
 115 512 l 1
 73 512 l 1
 42 645 l 1
 42 717 l 1
 108 717 l 1
EndSplineSet
Substitution2: "'ss03' Style Set 3 in Latin lookup 2-1" uni201F.ss03
EndChar

StartChar: dagger
Encoding: 8224 8224 337
GlifName: dagger
Width: 319
Flags: HW
LayerCount: 2
Fore
SplineSet
134 463 m 1
 36 463 l 1
 36 512 l 1
 134 512 l 1
 134 645 l 1
 185 645 l 1
 185 512 l 1
 284 512 l 1
 284 463 l 1
 185 463 l 1
 185 0 l 1
 134 0 l 1
 134 463 l 1
EndSplineSet
EndChar

StartChar: daggerdbl
Encoding: 8225 8225 338
GlifName: daggerdbl
Width: 319
Flags: HW
LayerCount: 2
Fore
SplineSet
185 512 m 1
 284 512 l 1
 284 463 l 1
 185 463 l 1
 185 182 l 1
 284 182 l 1
 284 133 l 1
 185 133 l 1
 185 0 l 1
 134 0 l 1
 134 133 l 1
 36 133 l 1
 36 182 l 1
 134 182 l 1
 134 463 l 1
 36 463 l 1
 36 512 l 1
 134 512 l 1
 134 645 l 1
 185 645 l 1
 185 512 l 1
EndSplineSet
EndChar

StartChar: bullet
Encoding: 8226 8226 339
GlifName: bullet
Width: 204
Flags: HW
LayerCount: 2
Fore
SplineSet
39 383 m 0
 39 418 67 446 102 446 c 0
 137 446 166 418 166 383 c 0
 166 348 137 319 102 319 c 4
 67 319 39 348 39 383 c 0
EndSplineSet
EndChar

StartChar: ellipsis
Encoding: 8230 8230 340
GlifName: ellipsis
Width: 491
Flags: HW
LayerCount: 2
Fore
SplineSet
377 72 m 1
 442 72 l 1
 442 0 l 1
 377 0 l 1
 377 72 l 1
213 72 m 1
 279 72 l 1
 279 0 l 1
 213 0 l 1
 213 72 l 1
49 72 m 1
 115 72 l 1
 115 0 l 1
 49 0 l 1
 49 72 l 1
EndSplineSet
Substitution2: "'ss03' Style Set 3 in Latin lookup 2-1" ellipsis.ss03
EndChar

StartChar: perthousand
Encoding: 8240 8240 341
GlifName: perthousand
Width: 1235
Flags: HW
LayerCount: 2
Fore
SplineSet
878 197 m 4
 878 319 942 399 1039 399 c 4
 1135 399 1200 319 1200 197 c 4
 1200 74 1135 -8 1039 -8 c 4
 942 -8 878 74 878 197 c 4
1146 197 m 4
 1146 293 1107 348 1039 348 c 4
 971 348 932 293 932 197 c 4
 932 100 971 43 1039 43 c 4
 1107 43 1146 100 1146 197 c 4
496 197 m 0
 496 319 560 399 657 399 c 0
 753 399 818 319 818 197 c 0
 818 74 753 -8 657 -8 c 0
 560 -8 496 74 496 197 c 0
764 197 m 0
 764 293 725 348 657 348 c 0
 589 348 550 293 550 197 c 0
 550 100 589 43 657 43 c 0
 725 43 764 100 764 197 c 0
536 666 m 1
 593 666 l 1
 318 0 l 1
 261 0 l 1
 536 666 l 1
36 472 m 0
 36 594 101 675 198 675 c 0
 294 675 358 594 358 472 c 0
 358 349 294 267 198 267 c 0
 101 267 36 349 36 472 c 0
304 472 m 0
 304 568 266 624 198 624 c 0
 130 624 90 568 90 472 c 0
 90 375 130 318 198 318 c 0
 266 318 304 375 304 472 c 0
EndSplineSet
EndChar

StartChar: minute
Encoding: 8242 8242 342
GlifName: minute
Width: 230
Flags: HW
LayerCount: 2
Fore
SplineSet
205 666 m 5
 70 512 l 5
 26 512 l 5
 140 666 l 5
 205 666 l 5
EndSplineSet
EndChar

StartChar: second
Encoding: 8243 8243 343
GlifName: second
Width: 361
Flags: HW
LayerCount: 2
Fore
SplineSet
336 666 m 1
 201 512 l 1
 157 512 l 1
 271 666 l 1
 336 666 l 1
205 666 m 1
 70 512 l 1
 26 512 l 1
 140 666 l 1
 205 666 l 1
EndSplineSet
EndChar

StartChar: uni2034
Encoding: 8244 8244 344
GlifName: uni2034
Width: 492
Flags: HW
LayerCount: 2
Fore
SplineSet
205 666 m 1
 70 512 l 1
 26 512 l 1
 140 666 l 1
 205 666 l 1
467 666 m 1
 332 512 l 1
 288 512 l 1
 402 666 l 1
 467 666 l 1
336 666 m 1
 201 512 l 1
 157 512 l 1
 271 666 l 1
 336 666 l 1
EndSplineSet
EndChar

StartChar: uni2035
Encoding: 8245 8245 345
GlifName: uni2035
Width: 230
Flags: HW
LayerCount: 2
Fore
SplineSet
26 666 m 5
 90 666 l 5
 205 512 l 5
 161 512 l 5
 26 666 l 5
EndSplineSet
EndChar

StartChar: uni2036
Encoding: 8246 8246 346
GlifName: uni2036
Width: 361
Flags: HW
LayerCount: 2
Fore
SplineSet
26 666 m 1
 90 666 l 1
 205 512 l 1
 161 512 l 1
 26 666 l 1
157 666 m 1
 221 666 l 1
 336 512 l 1
 292 512 l 1
 157 666 l 1
EndSplineSet
EndChar

StartChar: uni2037
Encoding: 8247 8247 347
GlifName: uni2037
Width: 492
Flags: HW
LayerCount: 2
Fore
SplineSet
288 666 m 1
 352 666 l 1
 467 512 l 1
 423 512 l 1
 288 666 l 1
26 666 m 1
 90 666 l 1
 205 512 l 1
 161 512 l 1
 26 666 l 1
157 666 m 1
 221 666 l 1
 336 512 l 1
 292 512 l 1
 157 666 l 1
EndSplineSet
EndChar

StartChar: uni031B
Encoding: 795 795 348
GlifName: uni031B_
Width: 307
Flags: HW
AnchorPoint: "top3" 78 561 mark 0
LayerCount: 2
Fore
SplineSet
78 561 m 1
 140 561 l 6
 181 561 212 576 212 639 c 2
 212 666 l 1
 263 666 l 1
 263 633 l 2
 263 541 205 512 152 512 c 2
 78 512 l 1
 78 561 l 1
EndSplineSet
EndChar

StartChar: Ohorn
Encoding: 416 416 349
GlifName: O_horn
Width: 680
Flags: HW
AnchorPoint: "top1" 342 717 basechar 0
AnchorPoint: "bottom1" 340 0 basechar 0
LayerCount: 2
Fore
SplineSet
46 325 m 0
 46 536 164 676 341 676 c 0
 517 676 635 536 635 325 c 0
 635 125 517 -8 341 -8 c 0
 164 -8 46 125 46 325 c 0
581 325 m 0
 581 514 493 625 341 625 c 0
 188 625 100 514 100 325 c 0
 100 147 188 43 341 43 c 0
 493 43 581 147 581 325 c 0
411 666 m 1
 545 666 l 2
 586 666 616 680 616 743 c 2
 616 770 l 1
 668 770 l 1
 668 737 l 2
 668 645 609 616 556 616 c 2
 411 616 l 1
 411 666 l 1
EndSplineSet
EndChar

StartChar: ohorn
Encoding: 417 417 350
GlifName: ohorn
Width: 558
Flags: HW
AnchorPoint: "top1" 279 573 basechar 0
AnchorPoint: "bottom1" 280 0 basechar 0
LayerCount: 2
Fore
SplineSet
46 258 m 0
 46 417 140 522 280 522 c 0
 419 522 512 417 512 258 c 0
 512 98 419 -8 280 -8 c 0
 140 -8 46 98 46 258 c 0
458 258 m 0
 458 393 393 471 280 471 c 0
 166 471 100 393 100 258 c 0
 100 122 166 43 280 43 c 0
 393 43 458 122 458 258 c 0
339 512 m 1
 432 512 l 6
 473 512 504 527 504 590 c 6
 504 616 l 5
 555 616 l 5
 555 584 l 6
 555 492 496 463 443 463 c 6
 339 463 l 1
 339 512 l 1
EndSplineSet
EndChar

StartChar: hookabovecomb
Encoding: 777 777 353
GlifName: hookabovecomb
Width: 307
Flags: HW
AnchorPoint: "top1" 160 512 mark 0
LayerCount: 2
Fore
SplineSet
129 512 m 1
 129 538 140 554 181 588 c 0
 206 608 213 620 213 636 c 0
 213 658 195 672 167 672 c 0
 137 672 117 656 110 628 c 1
 60 628 l 1
 73 681 114 712 169 712 c 0
 224 712 260 681 260 633 c 0
 260 605 252 591 218 566 c 0
 192 547 183 534 183 512 c 1
 129 512 l 1
EndSplineSet
EndChar

StartChar: dotbelowcomb
Encoding: 803 803 354
GlifName: dotbelowcomb
Width: 307
Flags: HW
AnchorPoint: "bottom1" 154 0 mark 0
LayerCount: 2
Fore
SplineSet
122 -75 m 1
 187 -75 l 1
 187 -146 l 1
 122 -146 l 1
 122 -75 l 1
EndSplineSet
Substitution2: "'ss03' Style Set 3 in Latin lookup 2-1" dotbelowcomb.ss03
EndChar

StartChar: exclamdown.ss03
Encoding: 65553 -1 445
GlifName: exclamdown.ss03
Width: 163
Flags: HW
LayerCount: 2
Fore
SplineSet
125 479 m 0
 125 455 106 436 82 436 c 0
 58 436 39 455 39 479 c 0
 39 503 58 522 82 522 c 0
 106 522 125 503 125 479 c 0
60 368 m 1
 103 368 l 1
 108 -152 l 1
 56 -152 l 1
 60 368 l 1
EndSplineSet
EndChar

StartChar: periodcentered.ss03
Encoding: 65554 -1 446
GlifName: periodcentered.ss03
Width: 163
Flags: HW
LayerCount: 2
Fore
SplineSet
39 327 m 0
 39 351 58 370 82 370 c 0
 106 370 125 351 125 327 c 0
 125 303 106 284 82 284 c 0
 58 284 39 303 39 327 c 0
EndSplineSet
EndChar

StartChar: questiondown.ss03
Encoding: 65555 -1 447
GlifName: questiondown.ss03
Width: 529
Flags: HW
LayerCount: 2
Fore
SplineSet
307 480 m 0
 307 456 288 437 264 437 c 0
 240 437 221 456 221 480 c 0
 221 504 240 523 264 523 c 0
 288 523 307 504 307 480 c 0
289 369 m 1
 289 269 233 222 182 178 c 0
 139 141 100 106 100 40 c 0
 100 -54 162 -108 268 -108 c 0
 362 -108 425 -48 429 45 c 1
 483 45 l 1
 475 -76 387 -159 268 -159 c 0
 135 -159 46 -80 46 40 c 0
 46 128 104 172 156 219 c 0
 199 258 238 299 238 369 c 1
 289 369 l 1
EndSplineSet
EndChar

StartChar: divide.ss03
Encoding: 65556 -1 448
GlifName: divide.ss03
Width: 473
Flags: HW
LayerCount: 2
Fore
SplineSet
193 486 m 0
 193 510 212 529 236 529 c 0
 260 529 279 510 279 486 c 0
 279 462 260 443 236 443 c 0
 212 443 193 462 193 486 c 0
193 63 m 0
 193 87 212 106 236 106 c 0
 260 106 279 87 279 63 c 0
 279 39 260 20 236 20 c 0
 212 20 193 39 193 63 c 0
36 307 m 1
 437 307 l 1
 437 258 l 1
 36 258 l 1
 36 307 l 1
EndSplineSet
Substitution2: "'tnum' Tabular Numbers in Latin lookup 11-1" divide.ss03.tabl
EndChar

StartChar: uni0307.ss03
Encoding: 65557 -1 449
GlifName: uni0307.ss03
Width: 307
Flags: HW
AnchorPoint: "top1" 160 512 mark 0
LayerCount: 2
Fore
SplineSet
116 549 m 4
 116 573 135 592 159 592 c 4
 183 592 202 573 202 549 c 4
 202 525 183 506 159 506 c 4
 135 506 116 525 116 549 c 4
EndSplineSet
EndChar

StartChar: uni0308.ss03
Encoding: 65558 -1 450
GlifName: uni0308.ss03
Width: 307
Flags: HW
AnchorPoint: "top1" 160 512 mark 0
LayerCount: 2
Fore
SplineSet
9 549 m 0
 9 573 28 592 52 592 c 0
 76 592 95 573 95 549 c 0
 95 525 76 506 52 506 c 0
 28 506 9 525 9 549 c 0
211 549 m 0
 211 573 230 592 254 592 c 0
 278 592 297 573 297 549 c 0
 297 525 278 506 254 506 c 0
 230 506 211 525 211 549 c 0
EndSplineSet
EndChar

StartChar: uni0312.ss03
Encoding: 65559 -1 451
GlifName: uni0312.ss03
Width: 307
Flags: HW
AnchorPoint: "top1" 160 512 mark 0
LayerCount: 2
Fore
SplineSet
213 555 m 4
 213 531 194 512 170 512 c 4
 146 512 127 531 127 555 c 6
 127 607 l 6
 127 675 165 697 199 697 c 6
 211 697 l 5
 211 673 l 5
 200 673 l 6
 170 673 147 660 147 601 c 6
 147 592 l 5
 153 596 162 598 170 598 c 4
 194 598 213 579 213 555 c 4
EndSplineSet
EndChar

StartChar: uni0313.ss03
Encoding: 65560 -1 452
GlifName: uni0313.ss03
Width: 307
Flags: HW
AnchorPoint: "top1" 160 512 mark 0
LayerCount: 2
Fore
SplineSet
127 654 m 4
 127 678 146 697 170 697 c 4
 194 697 213 678 213 654 c 6
 213 602 l 6
 213 534 175 512 141 512 c 6
 129 512 l 5
 129 537 l 5
 140 537 l 6
 170 537 193 549 193 608 c 6
 193 617 l 5
 187 613 178 611 170 611 c 4
 146 611 127 630 127 654 c 4
EndSplineSet
EndChar

StartChar: dotbelowcomb.ss03
Encoding: 65561 -1 453
GlifName: dotbelowcomb.ss03
Width: 307
Flags: HW
AnchorPoint: "bottom1" 154 0 mark 0
LayerCount: 2
Fore
SplineSet
112 -111 m 0
 112 -87 131 -68 155 -68 c 0
 179 -68 198 -87 198 -111 c 0
 198 -135 179 -154 155 -154 c 0
 131 -154 112 -135 112 -111 c 0
EndSplineSet
EndChar

StartChar: uni0326.ss03
Encoding: 65562 -1 454
GlifName: uni0326.ss03
Width: 307
Flags: HW
AnchorPoint: "bottom1" 164 0 mark 0
LayerCount: 2
Fore
SplineSet
121 -82 m 0
 121 -58 140 -39 164 -39 c 0
 188 -39 207 -58 207 -82 c 2
 207 -134 l 2
 207 -202 169 -224 135 -224 c 2
 123 -224 l 1
 123 -200 l 1
 134 -200 l 2
 164 -200 186 -187 186 -128 c 2
 186 -119 l 1
 180 -123 172 -125 164 -125 c 0
 140 -125 121 -106 121 -82 c 0
EndSplineSet
EndChar

StartChar: ellipsis.ss03
Encoding: 65563 -1 455
GlifName: ellipsis.ss03
Width: 491
Flags: HW
LayerCount: 2
Fore
SplineSet
367 35 m 0
 367 59 386 78 410 78 c 0
 434 78 453 59 453 35 c 0
 453 11 434 -8 410 -8 c 0
 386 -8 367 11 367 35 c 0
203 35 m 0
 203 59 222 78 246 78 c 0
 270 78 289 59 289 35 c 0
 289 11 270 -8 246 -8 c 0
 222 -8 203 11 203 35 c 0
39 35 m 0
 39 59 58 78 82 78 c 0
 106 78 125 59 125 35 c 0
 125 11 106 -8 82 -8 c 0
 58 -8 39 11 39 35 c 0
EndSplineSet
EndChar

StartChar: quoteleft.ss03
Encoding: 65564 -1 456
GlifName: quoteleft.ss03
Width: 163
Flags: HW
LayerCount: 2
Fore
SplineSet
121 548 m 4
 121 524 102 505 78 505 c 4
 54 505 35 524 35 548 c 6
 35 600 l 6
 35 688 78 717 117 717 c 6
 129 717 l 5
 129 682 l 5
 118 682 l 6
 86 682 61 666 61 596 c 6
 61 587 l 5
 65 590 72 591 78 591 c 4
 102 591 121 572 121 548 c 4
EndSplineSet
EndChar

StartChar: quoteright.ss03
Encoding: 65565 -1 457
GlifName: quoteright.ss03
Width: 163
Flags: HW
LayerCount: 2
Fore
SplineSet
43 674 m 4
 43 698 62 717 86 717 c 4
 110 717 129 698 129 674 c 6
 129 622 l 6
 129 534 86 505 47 505 c 6
 35 505 l 5
 35 540 l 5
 46 540 l 6
 78 540 102 556 102 626 c 6
 102 635 l 5
 98 632 92 631 86 631 c 4
 62 631 43 650 43 674 c 4
EndSplineSet
EndChar

StartChar: quotesinglbase.ss03
Encoding: 65566 -1 458
GlifName: quotesinglbase.ss03
Width: 163
Flags: HW
LayerCount: 2
Fore
SplineSet
43 43 m 0
 43 67 62 86 86 86 c 0
 110 86 129 67 129 43 c 2
 129 -9 l 2
 129 -97 86 -126 47 -126 c 2
 35 -126 l 1
 35 -91 l 1
 46 -91 l 2
 78 -91 102 -75 102 -5 c 2
 102 4 l 1
 98 1 92 0 86 0 c 0
 62 0 43 19 43 43 c 0
EndSplineSet
EndChar

StartChar: quotereversed.ss03
Encoding: 65567 -1 459
GlifName: quotereversed.ss03
Width: 163
Flags: HW
LayerCount: 2
Fore
SplineSet
121 674 m 4
 121 650 102 631 78 631 c 4
 72 631 65 632 61 635 c 5
 61 626 l 6
 61 556 86 540 118 540 c 6
 129 540 l 5
 129 505 l 5
 117 505 l 6
 78 505 35 534 35 622 c 6
 35 674 l 6
 35 698 54 717 78 717 c 4
 102 717 121 698 121 674 c 4
EndSplineSet
EndChar

StartChar: quotedblleft.ss03
Encoding: 65568 -1 460
GlifName: quotedblleft.ss03
Width: 276
Flags: HW
LayerCount: 2
Fore
SplineSet
233 548 m 4
 233 524 214 505 190 505 c 4
 166 505 147 524 147 548 c 6
 147 600 l 6
 147 688 190 717 229 717 c 6
 242 717 l 5
 242 682 l 5
 230 682 l 6
 198 682 174 666 174 596 c 6
 174 587 l 5
 178 590 184 591 190 591 c 4
 214 591 233 572 233 548 c 4
121 548 m 4
 121 524 102 505 78 505 c 4
 54 505 35 524 35 548 c 6
 35 600 l 6
 35 688 78 717 117 717 c 6
 129 717 l 5
 129 682 l 5
 118 682 l 6
 86 682 61 666 61 596 c 6
 61 587 l 5
 65 590 72 591 78 591 c 4
 102 591 121 572 121 548 c 4
EndSplineSet
EndChar

StartChar: quotedblright.ss03
Encoding: 65569 -1 461
GlifName: quotedblright.ss03
Width: 276
Flags: HW
LayerCount: 2
Fore
SplineSet
43 674 m 4
 43 698 62 717 86 717 c 4
 110 717 129 698 129 674 c 6
 129 622 l 6
 129 534 86 505 47 505 c 6
 35 505 l 5
 35 540 l 5
 46 540 l 6
 78 540 102 556 102 626 c 6
 102 635 l 5
 98 632 92 631 86 631 c 4
 62 631 43 650 43 674 c 4
156 674 m 4
 156 698 175 717 199 717 c 4
 223 717 242 698 242 674 c 6
 242 622 l 6
 242 534 199 505 160 505 c 6
 147 505 l 5
 147 540 l 5
 159 540 l 6
 191 540 215 556 215 626 c 6
 215 635 l 5
 211 632 205 631 199 631 c 4
 175 631 156 650 156 674 c 4
EndSplineSet
EndChar

StartChar: quotedblbase.ss03
Encoding: 65570 -1 462
GlifName: quotedblbase.ss03
Width: 276
Flags: HW
LayerCount: 2
Fore
SplineSet
43 43 m 4
 43 67 62 86 86 86 c 4
 110 86 129 67 129 43 c 6
 129 -9 l 6
 129 -97 86 -126 47 -126 c 6
 35 -126 l 5
 35 -91 l 5
 46 -91 l 6
 78 -91 102 -75 102 -5 c 6
 102 4 l 5
 98 1 92 0 86 0 c 4
 62 0 43 19 43 43 c 4
156 43 m 4
 156 67 175 86 199 86 c 4
 223 86 242 67 242 43 c 6
 242 -9 l 6
 242 -97 199 -126 160 -126 c 6
 147 -126 l 5
 147 -91 l 5
 159 -91 l 6
 191 -91 215 -75 215 -5 c 6
 215 4 l 5
 211 1 205 0 199 0 c 4
 175 0 156 19 156 43 c 4
EndSplineSet
EndChar

StartChar: uni201F.ss03
Encoding: 65571 -1 463
GlifName: uni201F_.ss03
Width: 276
Flags: HW
LayerCount: 2
Fore
SplineSet
233 674 m 4
 233 650 214 631 190 631 c 4
 184 631 178 632 174 635 c 5
 174 626 l 6
 174 556 198 540 230 540 c 6
 242 540 l 5
 242 505 l 5
 229 505 l 6
 190 505 147 534 147 622 c 6
 147 674 l 6
 147 698 166 717 190 717 c 4
 214 717 233 698 233 674 c 4
121 674 m 4
 121 650 102 631 78 631 c 4
 72 631 65 632 61 635 c 5
 61 626 l 6
 61 556 86 540 118 540 c 6
 129 540 l 5
 129 505 l 5
 117 505 l 6
 78 505 35 534 35 622 c 6
 35 674 l 6
 35 698 54 717 78 717 c 4
 102 717 121 698 121 674 c 4
EndSplineSet
EndChar

StartChar: ldot.ss02
Encoding: 65595 -1 487
GlifName: ldot.ss02
Width: 309
Flags: W
HStem: 291 71<193 258>
VStem: 193 65<291 362>
LayerCount: 2
Fore
SplineSet
193 362 m 1
 258 362 l 1
 258 291 l 1
 193 291 l 1
 193 362 l 1
EndSplineSet
Refer: 74 -1 N 1 0 0 1 0 0 2
Substitution2: "'ss03' Style Set 3 in Latin lookup 2-1" ldot.ss02.ss03
EndChar

StartChar: lslash.ss02
Encoding: 65596 -1 488
GlifName: lslash.ss02
Width: 233
Flags: HW
LayerCount: 2
Fore
SplineSet
221 49 m 1
 221 0 l 1
 209 0 l 2
 151 0 87 29 87 121 c 2
 87 717 l 1
 138 717 l 1
 138 127 l 2
 138 64 170 49 210 49 c 2
 221 49 l 1
0 359 m 1
 233 404 l 1
 233 355 l 1
 0 310 l 1
 0 359 l 1
EndSplineSet
EndChar

StartChar: dotlessi.ss03
Encoding: 65647 -1 539
GlifName: dotlessi.ss03
Width: 163
Flags: HW
AnchorPoint: "top1" 82 573 basechar 0
AnchorPoint: "bottom1" 83 0 basechar 0
LayerCount: 2
Fore
SplineSet
56 512 m 5
 108 512 l 5
 108 0 l 5
 56 0 l 5
 56 512 l 5
EndSplineSet
EndChar

StartChar: adieresis.ss01.ss03
Encoding: 65657 -1 549
GlifName: adieresis.ss01.ss03
Width: 565
Flags: HW
LayerCount: 2
Fore
SplineSet
144 609 m 0
 144 633 163 652 187 652 c 0
 211 652 230 633 230 609 c 0
 230 585 211 566 187 566 c 0
 163 566 144 585 144 609 c 0
346 609 m 0
 346 633 365 652 389 652 c 0
 413 652 432 633 432 609 c 0
 432 585 413 566 389 566 c 0
 365 566 346 585 346 609 c 0
EndSplineSet
Refer: 73 -1 N 1 0 0 1 0 0 3
Decomposition: "a+AwgA"
EndChar

StartChar: uni1EA1.ss01.ss03
Encoding: 65658 -1 550
GlifName: uni1E_A_1.ss01.ss03
Width: 565
Flags: HW
AnchorPoint: "top1" 296 573 basechar 0
LayerCount: 2
Fore
SplineSet
237 -111 m 0
 237 -87 256 -68 280 -68 c 0
 304 -68 323 -87 323 -111 c 0
 323 -135 304 -154 280 -154 c 0
 256 -154 237 -135 237 -111 c 0
EndSplineSet
Refer: 73 -1 N 1 0 0 1 0 0 3
Decomposition: "a+AyMA"
EndChar

StartChar: ldot.ss02.ss03
Encoding: 65661 -1 553
GlifName: ldot.ss02.ss03
Width: 348
Flags: HW
LayerCount: 2
Fore
SplineSet
213 327 m 0
 213 351 232 370 256 370 c 0
 280 370 299 351 299 327 c 0
 299 303 280 284 256 284 c 0
 232 284 213 303 213 327 c 0
190 49 m 1
 190 0 l 1
 178 0 l 2
 120 0 56 29 56 121 c 2
 56 717 l 1
 108 717 l 1
 108 127 l 2
 108 64 139 49 179 49 c 2
 190 49 l 1
EndSplineSet
EndChar

StartChar: tbar.ss08
Encoding: 65679 -1 571
GlifName: tbar.ss08
Width: 319
Flags: HW
LayerCount: 2
Fore
SplineSet
36 307 m 1
 284 307 l 1
 284 258 l 1
 36 258 l 1
 36 307 l 1
36 512 m 1
 284 512 l 1
 284 463 l 1
 36 463 l 1
 36 512 l 1
134 0 m 1
 134 645 l 1
 185 645 l 1
 185 0 l 1
 134 0 l 1
EndSplineSet
EndChar

StartChar: Gdotaccent.ss04.ss03
Encoding: 65698 -1 590
GlifName: G_dotaccent.ss04.ss03
Width: 662
Flags: HW
LayerCount: 2
Fore
SplineSet
286 753 m 0
 286 777 305 796 329 796 c 0
 353 796 372 777 372 753 c 0
 372 729 353 710 329 710 c 0
 305 710 286 729 286 753 c 0
EndSplineSet
Refer: 77 -1 N 1 0 0 1 0 0 3
EndChar

StartChar: uni0122.ss04.ss03
Encoding: 65699 -1 591
GlifName: uni0122.ss04.ss03
Width: 662
Flags: HW
LayerCount: 2
Fore
SplineSet
285 -82 m 4
 285 -58 304 -39 328 -39 c 4
 352 -39 371 -58 371 -82 c 6
 371 -134 l 6
 371 -202 333 -224 299 -224 c 6
 287 -224 l 5
 287 -200 l 5
 298 -200 l 6
 328 -200 350 -187 350 -128 c 6
 350 -119 l 5
 344 -123 336 -125 328 -125 c 4
 304 -125 285 -106 285 -82 c 4
EndSplineSet
Refer: 77 -1 N 1 0 0 1 0 0 3
EndChar

StartChar: uni0156.ss05.ss03
Encoding: 65700 -1 592
GlifName: uni0156.ss05.ss03
Width: 572
Flags: HW
LayerCount: 2
Fore
SplineSet
257 -82 m 0
 257 -58 276 -39 300 -39 c 0
 324 -39 343 -58 343 -82 c 2
 343 -134 l 2
 343 -202 305 -224 271 -224 c 2
 259 -224 l 1
 259 -200 l 1
 270 -200 l 2
 300 -200 323 -187 323 -128 c 2
 323 -119 l 1
 317 -123 308 -125 300 -125 c 0
 276 -125 257 -106 257 -82 c 0
EndSplineSet
Refer: 78 -1 N 1 0 0 1 0 0 3
EndChar

StartChar: ydieresis.ss07.ss03
Encoding: 65701 -1 593
GlifName: ydieresis.ss07.ss03
Width: 543
Flags: HW
LayerCount: 2
Fore
SplineSet
132 609 m 4
 132 633 151 652 175 652 c 4
 199 652 218 633 218 609 c 4
 218 585 199 566 175 566 c 4
 151 566 132 585 132 609 c 4
334 609 m 4
 334 633 353 652 377 652 c 4
 401 652 420 633 420 609 c 4
 420 585 401 566 377 566 c 4
 353 566 334 585 334 609 c 4
EndSplineSet
Refer: 80 -1 N 1 0 0 1 0 0 3
EndChar

StartChar: uni1EF5.ss07.ss03
Encoding: 65702 -1 594
GlifName: uni1E_F_5.ss07.ss03
Width: 543
Flags: HW
LayerCount: 2
Fore
SplineSet
330 -111 m 4
 330 -87 349 -68 373 -68 c 4
 397 -68 416 -87 416 -111 c 4
 416 -135 397 -154 373 -154 c 4
 349 -154 330 -135 330 -111 c 4
EndSplineSet
Refer: 80 -1 N 1 0 0 1 0 0 3
EndChar

StartChar: udieresis.ss10.ss03
Encoding: 65703 -1 595
GlifName: udieresis.ss10.ss03
Width: 514
Flags: W
HStem: 566 86<118.139 193.861 319.139 394.861>
VStem: 113 86<571.139 646.861> 314 86<571.139 646.861>
LayerCount: 2
Fore
SplineSet
113 609 m 0
 113 633 132 652 156 652 c 0
 180 652 199 633 199 609 c 0
 199 585 180 566 156 566 c 0
 132 566 113 585 113 609 c 0
314 609 m 0
 314 633 333 652 357 652 c 0
 381 652 400 633 400 609 c 0
 400 585 381 566 357 566 c 0
 333 566 314 585 314 609 c 0
EndSplineSet
Refer: 105 -1 N 1 0 0 1 0 0 3
EndChar

StartChar: uni1EE5.ss10.ss03
Encoding: 65704 -1 596
GlifName: uni1E_E_5.ss10.ss03
Width: 514
Flags: HW
LayerCount: 2
Fore
SplineSet
215 -111 m 4
 215 -87 234 -68 258 -68 c 4
 282 -68 301 -87 301 -111 c 4
 301 -135 282 -154 258 -154 c 4
 234 -154 215 -135 215 -111 c 4
EndSplineSet
Refer: 105 -1 N 1 0 0 1 0 0 3
EndChar

StartChar: uni1EF1.ss10.ss03
Encoding: 65705 -1 597
GlifName: uni1E_F_1.ss10.ss03
Width: 571
Flags: HW
LayerCount: 2
Fore
SplineSet
215 -111 m 0
 215 -87 234 -68 258 -68 c 0
 282 -68 301 -87 301 -111 c 0
 301 -135 282 -154 258 -154 c 0
 234 -154 215 -135 215 -111 c 0
EndSplineSet
Refer: 582 -1 N 1 0 0 1 0 0 3
EndChar

StartChar: Gdotaccent.ss03.ss04
Encoding: 65706 -1 598
GlifName: G_dotaccent.ss03.ss04
Width: 662
Flags: HW
LayerCount: 2
Fore
SplineSet
286 753 m 0
 286 777 305 796 329 796 c 0
 353 796 372 777 372 753 c 0
 372 729 353 710 329 710 c 0
 305 710 286 729 286 753 c 0
EndSplineSet
Refer: 77 -1 N 1 0 0 1 0 0 3
Decomposition: "G+AwcA"
EndChar

StartChar: uni0122.ss03.ss04
Encoding: 65707 -1 599
GlifName: uni0122.ss03.ss04
Width: 662
Flags: HW
LayerCount: 2
Fore
SplineSet
285 -82 m 4
 285 -58 304 -39 328 -39 c 4
 352 -39 371 -58 371 -82 c 6
 371 -134 l 6
 371 -202 333 -224 299 -224 c 6
 287 -224 l 5
 287 -200 l 5
 298 -200 l 6
 328 -200 350 -187 350 -128 c 6
 350 -119 l 5
 344 -123 336 -125 328 -125 c 4
 304 -125 285 -106 285 -82 c 4
EndSplineSet
Refer: 77 -1 N 1 0 0 1 0 0 3
EndChar

StartChar: uni0156.ss03.ss05
Encoding: 65708 -1 600
GlifName: uni0156.ss03.ss05
Width: 572
Flags: HW
LayerCount: 2
Fore
SplineSet
257 -82 m 0
 257 -58 276 -39 300 -39 c 0
 324 -39 343 -58 343 -82 c 2
 343 -134 l 2
 343 -202 305 -224 271 -224 c 2
 259 -224 l 1
 259 -200 l 1
 270 -200 l 2
 300 -200 323 -187 323 -128 c 2
 323 -119 l 1
 317 -123 308 -125 300 -125 c 0
 276 -125 257 -106 257 -82 c 0
EndSplineSet
Refer: 78 -1 N 1 0 0 1 0 0 3
EndChar

StartChar: uni1EF5.ss03.ss07
Encoding: 65709 -1 601
GlifName: uni1E_F_5.ss03.ss07
Width: 543
Flags: HW
LayerCount: 2
Fore
SplineSet
330 -111 m 4
 330 -87 349 -68 373 -68 c 4
 397 -68 416 -87 416 -111 c 4
 416 -135 397 -154 373 -154 c 4
 349 -154 330 -135 330 -111 c 4
EndSplineSet
Refer: 80 -1 N 1 0 0 1 0 0 3
EndChar

StartChar: ydieresis.ss03.ss07
Encoding: 65710 -1 602
GlifName: ydieresis.ss03.ss07
Width: 543
Flags: HW
LayerCount: 2
Fore
SplineSet
132 609 m 4
 132 633 151 652 175 652 c 4
 199 652 218 633 218 609 c 4
 218 585 199 566 175 566 c 4
 151 566 132 585 132 609 c 4
334 609 m 4
 334 633 353 652 377 652 c 4
 401 652 420 633 420 609 c 4
 420 585 401 566 377 566 c 4
 353 566 334 585 334 609 c 4
EndSplineSet
Refer: 80 -1 N 1 0 0 1 0 0 3
EndChar

StartChar: udieresis.ss03.ss10
Encoding: 65711 -1 603
GlifName: udieresis.ss03.ss10
Width: 514
Flags: HW
LayerCount: 2
Fore
SplineSet
113 609 m 0
 113 633 132 652 156 652 c 0
 180 652 199 633 199 609 c 0
 199 585 180 566 156 566 c 0
 132 566 113 585 113 609 c 0
314 609 m 0
 314 633 333 652 357 652 c 0
 381 652 400 633 400 609 c 0
 400 585 381 566 357 566 c 0
 333 566 314 585 314 609 c 0
EndSplineSet
Refer: 105 -1 N 1 0 0 1 0 0 3
EndChar

StartChar: uni1EE5.ss03.ss10
Encoding: 65712 -1 604
GlifName: uni1E_E_5.ss03.ss10
Width: 514
Flags: HW
LayerCount: 2
Fore
SplineSet
215 -111 m 4
 215 -87 234 -68 258 -68 c 4
 282 -68 301 -87 301 -111 c 4
 301 -135 282 -154 258 -154 c 4
 234 -154 215 -135 215 -111 c 4
EndSplineSet
Refer: 105 -1 N 1 0 0 1 0 0 3
EndChar

StartChar: uni1EF1.ss03.ss10
Encoding: 65713 -1 605
GlifName: uni1E_F_1.ss03.ss10
Width: 571
Flags: HW
LayerCount: 2
Fore
SplineSet
215 -111 m 0
 215 -87 234 -68 258 -68 c 0
 282 -68 301 -87 301 -111 c 0
 301 -135 282 -154 258 -154 c 0
 234 -154 215 -135 215 -111 c 0
EndSplineSet
Refer: 582 -1 N 1 0 0 1 0 0 3
EndChar

StartChar: zero.slsh
Encoding: 65714 -1 606
GlifName: zero.slsh
Width: 558
Flags: HW
LayerCount: 2
Fore
SplineSet
428 570 m 1
 465 540 l 1
 130 103 l 5
 93 134 l 5
 428 570 l 1
46 325 m 0
 46 546 134 676 280 676 c 0
 426 676 512 546 512 325 c 0
 512 115 426 -8 280 -8 c 0
 133 -8 46 115 46 325 c 0
458 325 m 0
 458 525 399 625 280 625 c 0
 160 625 100 525 100 325 c 0
 100 137 160 43 280 43 c 0
 399 43 458 137 458 325 c 0
EndSplineSet
Substitution2: "'tnum' Tabular Numbers in Latin lookup 11-1" zero.slsh.tabl
EndChar

StartChar: zero.tabl
Encoding: 65715 -1 607
GlifName: zero.tabl
Width: 558
Flags: HW
LayerCount: 2
Fore
SplineSet
46 325 m 4
 46 546 134 676 280 676 c 4
 426 676 512 546 512 325 c 4
 512 115 426 -8 280 -8 c 4
 133 -8 46 115 46 325 c 4
458 325 m 4
 458 525 399 625 280 625 c 4
 160 625 100 525 100 325 c 4
 100 137 160 43 280 43 c 4
 399 43 458 137 458 325 c 4
EndSplineSet
Substitution2: "'zero' Slashed Zero in Latin lookup 10-1" zero.tabl.slsh
EndChar

StartChar: one.tabl
Encoding: 65716 -1 608
GlifName: one.tabl
Width: 558
Flags: HW
LayerCount: 2
Fore
SplineSet
261 666 m 1
 312 666 l 1
 312 49 l 1
 479 49 l 1
 479 0 l 1
 78 0 l 1
 78 49 l 1
 261 49 l 1
 261 512 l 1
 101 512 l 1
 101 556 l 1
 179 556 l 2
 232 556 261 572 261 625 c 2
 261 666 l 1
EndSplineSet
EndChar

StartChar: two.tabl
Encoding: 65717 -1 609
GlifName: two.tabl
Width: 558
Flags: HW
LayerCount: 2
Fore
SplineSet
114 49 m 1
 494 49 l 1
 494 0 l 1
 60 0 l 1
 60 14 l 1
 60 162 178 223 282 280 c 0
 367 327 443 372 443 465 c 0
 443 565 381 623 275 623 c 0
 181 623 119 563 115 470 c 1
 60 470 l 1
 68 591 156 674 275 674 c 0
 408 674 498 591 498 465 c 0
 498 354 407 293 314 240 c 0
 216 184 114 136 114 49 c 1
EndSplineSet
EndChar

StartChar: three.tabl
Encoding: 65718 -1 610
GlifName: three.tabl
Width: 558
Flags: HW
LayerCount: 2
Fore
SplineSet
357 360 m 1
 357 309 l 1
 236 309 l 1
 236 360 l 1
 357 360 l 1
306 319 m 1
 306 360 l 1
 387 360 433 406 433 485 c 0
 433 572 375 623 275 623 c 0
 186 623 128 570 125 487 c 1
 71 487 l 1
 79 598 161 674 275 674 c 0
 402 674 487 599 487 485 c 0
 487 386 415 319 306 319 c 1
306 350 m 1
 421 350 498 281 498 179 c 0
 498 66 408 -8 275 -8 c 0
 156 -8 68 66 60 175 c 1
 115 175 l 1
 119 94 181 43 275 43 c 0
 381 43 443 92 443 179 c 0
 443 262 393 309 306 309 c 1
 306 350 l 1
EndSplineSet
EndChar

StartChar: four.tabl
Encoding: 65719 -1 611
GlifName: four.tabl
Width: 558
Flags: HW
LayerCount: 2
Fore
SplineSet
416 176 m 1
 416 0 l 1
 365 0 l 1
 365 176 l 1
 37 176 l 1
 37 234 l 1
 354 666 l 1
 416 666 l 1
 416 224 l 1
 520 224 l 1
 520 176 l 1
 416 176 l 1
365 224 m 1
 365 602 l 1
 92 224 l 1
 365 224 l 1
EndSplineSet
EndChar

StartChar: five.tabl
Encoding: 65720 -1 612
GlifName: five.tabl
Width: 558
Flags: HW
LayerCount: 2
Fore
SplineSet
443 219 m 4
 443 102 383 43 278 43 c 4
 182 43 119 91 115 168 c 5
 60 168 l 5
 68 64 156 -8 278 -8 c 4
 409 -8 498 78 498 220 c 4
 498 352 414 447 281 447 c 4
 208 447 150 418 113 372 c 5
 135 617 l 5
 474 617 l 5
 474 667 l 5
 91 667 l 5
 60 316 l 5
 111 316 l 5
 142 365 197 396 273 396 c 4
 383 396 443 328 443 219 c 4
EndSplineSet
EndChar

StartChar: six.tabl
Encoding: 65721 -1 613
GlifName: six.tabl
Width: 558
Flags: HW
LayerCount: 2
Fore
SplineSet
50 335 m 4
 50 550 141 676 298 676 c 4
 404 676 482 613 500 511 c 5
 445 511 l 5
 431 585 380 625 298 625 c 4
 168 625 104 530 104 335 c 4
 104 323 105 311 106 300 c 5
 138 384 214 436 302 436 c 4
 422 436 508 343 508 214 c 4
 508 85 422 -8 302 -8 c 4
 148 -8 50 125 50 335 c 4
127 214 m 4
 127 117 201 44 298 44 c 4
 392 44 454 112 454 214 c 4
 454 316 392 384 298 384 c 4
 196 384 127 315 127 214 c 4
EndSplineSet
EndChar

StartChar: seven.tabl
Encoding: 65722 -1 614
GlifName: seven.tabl
Width: 558
Flags: HW
LayerCount: 2
Fore
SplineSet
246 0 m 1
 255 302 365 442 510 606 c 1
 510 666 l 1
 47 666 l 1
 47 616 l 1
 459 616 l 1
 333 465 219 351 190 0 c 1
 246 0 l 1
EndSplineSet
EndChar

StartChar: eight.tabl
Encoding: 65723 -1 615
GlifName: eight.tabl
Width: 558
Flags: HW
LayerCount: 2
Fore
SplineSet
376 336 m 1
 451 311 498 253 498 175 c 0
 498 64 411 -8 279 -8 c 0
 148 -8 60 64 60 175 c 0
 60 253 107 311 182 336 c 1
 119 362 81 417 81 489 c 0
 81 600 160 674 279 674 c 0
 399 674 477 600 477 489 c 0
 477 417 439 362 376 336 c 1
286 360 m 2
 373 360 423 407 423 489 c 0
 423 574 371 623 279 623 c 0
 188 623 135 574 135 489 c 0
 135 407 185 360 272 360 c 2
 286 360 l 2
286 309 m 2
 272 309 l 2
 172 309 115 260 115 175 c 0
 115 91 175 43 279 43 c 0
 383 43 443 91 443 175 c 0
 443 260 386 309 286 309 c 2
EndSplineSet
EndChar

StartChar: nine.tabl
Encoding: 65724 -1 616
GlifName: nine.tabl
Width: 558
Flags: HW
LayerCount: 2
Fore
SplineSet
508 333 m 0
 508 118 417 -8 260 -8 c 0
 154 -8 76 55 58 157 c 1
 113 157 l 1
 127 83 178 43 260 43 c 0
 390 43 454 138 454 333 c 0
 454 345 453 357 452 368 c 1
 420 284 344 231 256 231 c 0
 136 231 50 325 50 454 c 0
 50 583 136 676 256 676 c 0
 410 676 508 543 508 333 c 0
431 454 m 0
 431 551 357 624 260 624 c 0
 166 624 104 556 104 454 c 0
 104 352 166 284 260 284 c 0
 362 284 431 353 431 454 c 0
EndSplineSet
EndChar

StartChar: zero.slsh.tabl
Encoding: 65725 -1 617
GlifName: zero.slsh.tabl
Width: 558
Flags: HW
LayerCount: 2
Fore
SplineSet
428 570 m 1
 465 540 l 1
 130 103 l 5
 93 134 l 5
 428 570 l 1
46 325 m 0
 46 546 134 676 280 676 c 0
 426 676 512 546 512 325 c 0
 512 115 426 -8 280 -8 c 0
 133 -8 46 115 46 325 c 0
458 325 m 0
 458 525 399 625 280 625 c 0
 160 625 100 525 100 325 c 0
 100 137 160 43 280 43 c 0
 399 43 458 137 458 325 c 0
EndSplineSet
EndChar

StartChar: plus.tabl
Encoding: 65726 -1 618
GlifName: plus.tabl
Width: 558
Flags: HW
LayerCount: 2
Fore
SplineSet
303 307 m 5
 522 307 l 5
 522 258 l 5
 303 258 l 5
 303 39 l 5
 254 39 l 5
 254 258 l 5
 35 258 l 5
 35 307 l 5
 254 307 l 5
 254 526 l 5
 303 526 l 5
 303 307 l 5
EndSplineSet
EndChar

StartChar: hyphen.tabl
Encoding: 65727 -1 619
GlifName: hyphen.tabl
Width: 558
Flags: HW
LayerCount: 2
Fore
SplineSet
78 307 m 1
 479 307 l 1
 479 258 l 1
 78 258 l 1
 78 307 l 1
EndSplineSet
EndChar

StartChar: period.tabl
Encoding: 65728 -1 620
GlifName: period.tabl
Width: 558
Flags: HW
LayerCount: 2
Fore
SplineSet
246 72 m 5
 311 72 l 5
 311 0 l 5
 246 0 l 5
 246 72 l 5
EndSplineSet
EndChar

StartChar: slash.tabl
Encoding: 65729 -1 621
GlifName: slash.tabl
Width: 558
Flags: HW
LayerCount: 2
Fore
SplineSet
387 666 m 5
 444 666 l 5
 170 0 l 5
 113 0 l 5
 387 666 l 5
EndSplineSet
EndChar

StartChar: colon.tabl
Encoding: 65730 -1 622
GlifName: colon.tabl
Width: 558
Flags: HW
LayerCount: 2
Fore
SplineSet
246 492 m 5
 311 492 l 5
 311 420 l 5
 246 420 l 5
 246 492 l 5
246 72 m 5
 311 72 l 5
 311 0 l 5
 246 0 l 5
 246 72 l 5
EndSplineSet
EndChar

StartChar: multiply.tabl
Encoding: 65731 -1 623
GlifName: multiply.tabl
Width: 558
Flags: HW
LayerCount: 2
Fore
SplineSet
279 317 m 1
 455 493 l 1
 489 458 l 1
 313 283 l 1
 489 108 l 1
 455 73 l 1
 279 248 l 1
 104 73 l 1
 70 108 l 1
 244 283 l 1
 70 458 l 1
 104 493 l 1
 279 317 l 1
EndSplineSet
EndChar

StartChar: divide.tabl
Encoding: 65732 -1 624
GlifName: divide.tabl
Width: 558
Flags: HW
LayerCount: 2
Fore
SplineSet
246 519 m 5
 311 519 l 5
 311 447 l 5
 246 447 l 5
 246 519 l 5
246 99 m 5
 311 99 l 5
 311 28 l 5
 246 28 l 5
 246 99 l 5
78 307 m 1
 479 307 l 1
 479 258 l 1
 78 258 l 1
 78 307 l 1
EndSplineSet
EndChar

StartChar: period.ss03.tabl
Encoding: 65733 -1 625
GlifName: period.ss03.tabl
Width: 558
Flags: HW
LayerCount: 2
Fore
SplineSet
236 35 m 4
 236 59 255 78 279 78 c 4
 303 78 322 59 322 35 c 4
 322 11 303 -8 279 -8 c 4
 255 -8 236 11 236 35 c 4
EndSplineSet
EndChar

StartChar: colon.ss03.tabl
Encoding: 65734 -1 626
GlifName: colon.ss03.tabl
Width: 558
Flags: HW
LayerCount: 2
Fore
SplineSet
236 458 m 4
 236 482 255 501 279 501 c 4
 303 501 322 482 322 458 c 4
 322 434 303 415 279 415 c 4
 255 415 236 434 236 458 c 4
236 35 m 4
 236 59 255 78 279 78 c 4
 303 78 322 59 322 35 c 4
 322 11 303 -8 279 -8 c 4
 255 -8 236 11 236 35 c 4
EndSplineSet
EndChar

StartChar: divide.ss03.tabl
Encoding: 65735 -1 627
GlifName: divide.ss03.tabl
Width: 558
Flags: HW
LayerCount: 2
Fore
SplineSet
236 486 m 0
 236 510 255 529 279 529 c 0
 303 529 322 510 322 486 c 0
 322 462 303 443 279 443 c 0
 255 443 236 462 236 486 c 0
236 63 m 0
 236 87 255 106 279 106 c 0
 303 106 322 87 322 63 c 0
 322 39 303 20 279 20 c 0
 255 20 236 39 236 63 c 0
78 307 m 1
 479 307 l 1
 479 258 l 1
 78 258 l 1
 78 307 l 1
EndSplineSet
EndChar

StartChar: cent
Encoding: 162 162 628
GlifName: cent
Width: 549
Flags: HW
LayerCount: 2
Fore
SplineSet
254 666 m 1
 305 666 l 1
 305 0 l 1
 254 0 l 1
 254 666 l 1
46 335 m 0
 46 494 140 599 279 599 c 0
 404 599 495 519 504 403 c 1
 450 403 l 1
 446 491 379 548 279 548 c 0
 165 548 100 470 100 335 c 0
 100 199 166 120 279 120 c 0
 378 120 445 172 450 255 c 1
 504 255 l 1
 493 142 404 69 279 69 c 0
 140 69 46 175 46 335 c 0
EndSplineSet
EndChar

StartChar: sterling
Encoding: 163 163 629
GlifName: sterling
Width: 536
Flags: HW
LayerCount: 2
Fore
SplineSet
36 346 m 5
 420 346 l 5
 420 297 l 5
 36 297 l 5
 36 346 l 5
441 514 m 5
 433 583 385 623 310 623 c 4
 229 623 182 568 182 475 c 6
 182 220 l 6
 182 156 160 84 87 49 c 5
 501 49 l 5
 501 0 l 5
 36 0 l 5
 36 55 l 5
 109 90 131 164 131 228 c 6
 131 475 l 6
 131 594 203 674 310 674 c 4
 411 674 484 610 493 514 c 5
 441 514 l 5
EndSplineSet
EndChar

StartChar: currency
Encoding: 164 164 630
GlifName: currency
Width: 491
Flags: HW
LayerCount: 2
Fore
SplineSet
142 286 m 0
 142 218 181 177 246 177 c 0
 309 177 348 219 348 286 c 0
 348 353 308 394 245 394 c 0
 183 394 142 353 142 286 c 0
338 410 m 1
 421 493 l 1
 456 458 l 1
 372 374 l 1
 388 349 396 319 396 286 c 0
 396 251 387 220 370 194 c 1
 456 108 l 1
 421 73 l 1
 335 159 l 1
 310 142 280 132 246 132 c 0
 212 132 182 142 157 159 c 1
 71 73 l 1
 36 108 l 1
 122 194 l 1
 104 220 94 251 94 286 c 0
 94 319 103 349 119 375 c 1
 36 458 l 1
 71 493 l 1
 153 411 l 1
 179 429 210 439 245 439 c 0
 281 439 312 429 338 410 c 1
EndSplineSet
EndChar

StartChar: degree
Encoding: 176 176 631
GlifName: degree
Width: 332
Flags: HW
LayerCount: 2
Fore
SplineSet
84 544 m 4
 84 489 116 456 167 456 c 4
 218 456 249 490 249 544 c 4
 249 598 217 632 166 632 c 4
 116 632 84 598 84 544 c 4
297 544 m 4
 297 466 243 411 167 411 c 4
 90 411 36 466 36 544 c 4
 36 622 90 677 166 677 c 4
 243 677 297 622 297 544 c 4
EndSplineSet
EndChar

StartChar: yen
Encoding: 165 165 632
GlifName: yen
Width: 580
Flags: HW
LayerCount: 2
Fore
SplineSet
85 139 m 5
 486 139 l 5
 486 90 l 5
 85 90 l 5
 85 139 l 5
85 256 m 1
 486 256 l 1
 486 207 l 1
 85 207 l 1
 85 256 l 1
263 251 m 1
 36 666 l 1
 99 666 l 1
 289 315 l 1
 483 666 l 1
 545 666 l 1
 314 251 l 1
 314 0 l 1
 263 0 l 1
 263 251 l 1
EndSplineSet
EndChar

StartChar: brokenbar
Encoding: 166 166 633
GlifName: brokenbar
Width: 163
Flags: HW
LayerCount: 2
Fore
SplineSet
56 820 m 1
 108 820 l 1
 108 361 l 1
 56 361 l 1
 56 820 l 1
108 254 m 1
 108 -205 l 1
 56 -205 l 1
 56 254 l 1
 108 254 l 1
EndSplineSet
EndChar

StartChar: uni2070
Encoding: 8304 8304 634
GlifName: uni2070
Width: 394
Flags: HW
LayerCount: 2
Fore
SplineSet
36 569 m 4
 36 691 101 772 198 772 c 4
 294 772 358 691 358 569 c 4
 358 446 294 365 198 365 c 4
 101 365 36 446 36 569 c 4
304 569 m 4
 304 665 266 721 198 721 c 4
 130 721 90 665 90 569 c 4
 90 472 130 416 198 416 c 4
 266 416 304 472 304 569 c 4
EndSplineSet
EndChar

StartChar: uni2074
Encoding: 8308 8308 635
GlifName: uni2074
Width: 403
Flags: HW
LayerCount: 2
Fore
SplineSet
292 473 m 1
 292 373 l 1
 241 373 l 1
 241 473 l 1
 36 473 l 1
 36 531 l 1
 230 768 l 1
 292 768 l 1
 292 521 l 1
 368 521 l 1
 368 473 l 1
 292 473 l 1
241 521 m 1
 241 705 l 1
 90 521 l 1
 241 521 l 1
EndSplineSet
EndChar

StartChar: uni2075
Encoding: 8309 8309 636
GlifName: uni2075
Width: 371
Flags: HW
LayerCount: 2
Fore
SplineSet
282 505 m 0
 282 446 247 416 187 416 c 0
 129 416 92 440 90 479 c 1
 36 479 l 1
 42 411 102 365 187 365 c 0
 275 365 336 418 336 506 c 0
 336 586 284 644 201 644 c 0
 154 644 116 625 92 594 c 1
 105 719 l 1
 316 719 l 1
 316 768 l 1
 61 768 l 1
 36 539 l 1
 86 539 l 1
 106 572 144 593 194 593 c 0
 251 593 282 559 282 505 c 0
EndSplineSet
EndChar

StartChar: uni2076
Encoding: 8310 8310 637
GlifName: uni2076
Width: 386
Flags: HW
LayerCount: 2
Fore
SplineSet
36 564 m 0
 36 695 98 772 205 772 c 0
 277 772 329 731 342 663 c 1
 288 663 l 1
 280 701 251 721 205 721 c 0
 128 721 90 671 90 569 c 0
 90 560 91 552 92 543 c 1
 111 594 158 625 211 625 c 0
 292 625 350 571 350 495 c 0
 350 419 292 365 211 365 c 0
 104 365 36 442 36 564 c 0
113 495 m 0
 113 450 153 417 207 417 c 0
 261 417 296 448 296 495 c 0
 296 542 261 572 207 572 c 0
 151 572 113 541 113 495 c 0
EndSplineSet
EndChar

StartChar: uni2077
Encoding: 8311 8311 638
GlifName: uni2077
Width: 395
Flags: HW
LayerCount: 2
Fore
SplineSet
182 373 m 1
 195 510 262 618 359 709 c 1
 359 768 l 1
 36 768 l 1
 36 719 l 1
 307 719 l 1
 222 634 149 539 127 373 c 1
 182 373 l 1
EndSplineSet
EndChar

StartChar: uni2078
Encoding: 8312 8312 639
GlifName: uni2078
Width: 386
Flags: HW
LayerCount: 2
Fore
SplineSet
196 772 m 1
 196 721 l 1
 135 721 100 696 100 653 c 0
 100 615 135 594 193 594 c 1
 193 553 l 1
 105 553 46 595 46 658 c 0
 46 726 106 772 196 772 c 1
196 416 m 1
 196 365 l 1
 100 365 36 408 36 473 c 0
 36 539 99 584 193 584 c 1
 193 543 l 1
 128 543 90 519 90 477 c 0
 90 438 129 416 196 416 c 1
210 594 m 1
 210 543 l 1
 182 543 l 1
 182 594 l 1
 210 594 l 1
196 772 m 1
 283 772 340 726 340 658 c 0
 340 595 284 553 200 553 c 1
 200 594 l 1
 255 594 286 615 286 653 c 0
 286 696 254 721 196 721 c 1
 196 772 l 1
196 416 m 1
 260 416 296 438 296 477 c 0
 296 519 261 543 200 543 c 1
 200 584 l 1
 290 584 350 539 350 473 c 0
 350 408 289 365 196 365 c 1
 196 416 l 1
EndSplineSet
EndChar

StartChar: uni2079
Encoding: 8313 8313 640
GlifName: uni2079
Width: 386
Flags: HW
LayerCount: 2
Fore
SplineSet
350 552 m 0
 350 434 288 365 181 365 c 0
 105 365 50 404 37 469 c 1
 91 469 l 1
 100 434 131 416 181 416 c 0
 259 416 298 462 298 557 c 0
 298 566 297 575 296 584 c 1
 277 534 230 503 177 503 c 0
 95 503 36 559 36 637 c 0
 36 715 97 772 182 772 c 0
 284 772 350 687 350 552 c 0
276 636 m 0
 276 683 236 719 182 719 c 0
 128 719 93 686 93 636 c 0
 93 587 128 554 182 554 c 0
 238 554 276 587 276 636 c 0
EndSplineSet
EndChar

StartChar: uni207A
Encoding: 8314 8314 641
GlifName: uni207A_
Width: 374
Flags: HW
LayerCount: 2
Fore
SplineSet
212 602 m 5
 339 602 l 5
 339 553 l 5
 212 553 l 5
 212 426 l 1
 163 426 l 1
 163 553 l 5
 36 553 l 5
 36 602 l 5
 163 602 l 5
 163 729 l 1
 212 729 l 1
 212 602 l 5
EndSplineSet
EndChar

StartChar: uni207B
Encoding: 8315 8315 642
GlifName: uni207B_
Width: 374
Flags: HW
LayerCount: 2
Fore
SplineSet
36 602 m 1
 339 602 l 1
 339 553 l 1
 36 553 l 1
 36 602 l 1
EndSplineSet
EndChar

StartChar: uni207C
Encoding: 8316 8316 643
GlifName: uni207C_
Width: 374
Flags: HW
LayerCount: 2
Fore
SplineSet
36 515 m 5
 339 515 l 5
 339 466 l 5
 36 466 l 5
 36 515 l 5
36 689 m 5
 339 689 l 5
 339 640 l 5
 36 640 l 5
 36 689 l 5
EndSplineSet
EndChar

StartChar: uni207D
Encoding: 8317 8317 644
GlifName: uni207D_
Width: 183
Flags: HW
LayerCount: 2
Fore
SplineSet
168 301 m 1
 116 301 l 1
 70 353 36 450 36 578 c 0
 36 699 70 790 116 840 c 1
 168 840 l 5
 116 776 90 696 90 578 c 0
 90 453 116 368 168 301 c 1
EndSplineSet
EndChar

StartChar: uni207E
Encoding: 8318 8318 645
GlifName: uni207E_
Width: 183
Flags: HW
LayerCount: 2
Fore
SplineSet
15 840 m 5
 68 840 l 5
 114 788 147 691 147 563 c 4
 147 442 114 351 68 301 c 5
 15 301 l 5
 67 365 93 445 93 563 c 4
 93 688 67 773 15 840 c 5
EndSplineSet
EndChar

StartChar: uni207F
Encoding: 8319 8319 646
GlifName: uni207F_
Width: 430
Flags: HW
LayerCount: 2
Fore
SplineSet
323 614 m 6
 323 693 283 727 222 727 c 0
 157 727 108 683 108 621 c 5
 78 627 l 5
 79 721 158 778 232 778 c 0
 314 778 374 724 374 625 c 6
 374 373 l 1
 323 373 l 1
 323 614 l 6
56 768 m 1
 108 768 l 1
 108 373 l 1
 56 373 l 1
 56 768 l 1
EndSplineSet
EndChar

StartChar: uni2080
Encoding: 8320 8320 647
GlifName: uni2080
Width: 394
Flags: HW
LayerCount: 2
Fore
SplineSet
36 94 m 4
 36 216 101 297 198 297 c 4
 294 297 358 216 358 94 c 4
 358 -29 294 -111 198 -111 c 4
 101 -111 36 -29 36 94 c 4
304 94 m 4
 304 190 266 246 198 246 c 4
 130 246 90 190 90 94 c 4
 90 -3 130 -59 198 -59 c 4
 266 -59 304 -3 304 94 c 4
EndSplineSet
EndChar

StartChar: uni2081
Encoding: 8321 8321 648
GlifName: uni2081
Width: 225
Flags: HW
LayerCount: 2
Fore
SplineSet
138 293 m 5
 189 293 l 5
 189 -102 l 5
 138 -102 l 5
 138 164 l 5
 26 164 l 5
 26 208 l 5
 70 208 l 6
 115 208 138 220 138 261 c 6
 138 293 l 5
EndSplineSet
EndChar

StartChar: uni2082
Encoding: 8322 8322 649
GlifName: uni2082
Width: 385
Flags: HW
LayerCount: 2
Fore
SplineSet
89 -53 m 5
 345 -53 l 1
 345 -102 l 1
 36 -102 l 1
 36 -88 l 2
 36 16 123 46 197 75 c 0
 250 95 295 117 295 165 c 0
 295 216 260 246 200 246 c 0
 135 246 93 211 90 156 c 1
 36 156 l 1
 42 240 110 297 200 297 c 0
 289 297 349 243 349 161 c 0
 349 93 283 59 217 31 c 0
 152 4 98 -16 89 -53 c 5
EndSplineSet
EndChar

StartChar: uni2083
Encoding: 8323 8323 650
GlifName: uni2083
Width: 386
Flags: HW
LayerCount: 2
Fore
SplineSet
271 118 m 5
 271 67 l 5
 166 67 l 1
 166 118 l 1
 271 118 l 5
227 77 m 1
 227 118 l 1
 264 118 286 138 286 174 c 0
 286 220 251 247 191 247 c 0
 135 247 98 219 96 176 c 1
 42 176 l 1
 48 248 108 298 191 298 c 0
 280 298 340 249 340 174 c 0
 340 116 294 77 227 77 c 1
227 108 m 1
 301 108 350 67 350 6 c 0
 350 -64 288 -111 195 -111 c 0
 107 -111 42 -64 36 4 c 1
 90 4 l 1
 93 -35 134 -59 195 -59 c 0
 259 -59 296 -36 296 6 c 0
 296 45 271 67 227 67 c 1
 227 108 l 1
EndSplineSet
EndChar

StartChar: uni2084
Encoding: 8324 8324 651
GlifName: uni2084
Width: 403
Flags: HW
LayerCount: 2
Fore
SplineSet
292 -2 m 1
 292 -102 l 1
 241 -102 l 1
 241 -2 l 1
 36 -2 l 1
 36 56 l 1
 230 293 l 1
 292 293 l 1
 292 46 l 1
 368 46 l 1
 368 -2 l 1
 292 -2 l 1
241 46 m 1
 241 229 l 1
 90 46 l 1
 241 46 l 1
EndSplineSet
EndChar

StartChar: uni2085
Encoding: 8325 8325 652
GlifName: uni2085
Width: 371
Flags: HW
LayerCount: 2
Fore
SplineSet
282 30 m 0
 282 -29 247 -59 187 -59 c 0
 129 -59 92 -35 90 4 c 1
 36 4 l 1
 42 -64 102 -111 187 -111 c 0
 275 -111 336 -57 336 31 c 0
 336 111 284 169 201 169 c 0
 154 169 116 150 92 119 c 1
 105 244 l 1
 316 244 l 1
 316 293 l 1
 61 293 l 1
 36 63 l 1
 86 63 l 1
 106 96 144 118 194 118 c 0
 251 118 282 84 282 30 c 0
EndSplineSet
EndChar

StartChar: uni2086
Encoding: 8326 8326 653
GlifName: uni2086
Width: 386
Flags: HW
LayerCount: 2
Fore
SplineSet
36 89 m 0
 36 220 98 297 205 297 c 0
 277 297 329 255 342 187 c 1
 288 187 l 1
 280 225 251 246 205 246 c 0
 128 246 90 196 90 94 c 0
 90 85 91 77 92 68 c 1
 111 119 158 150 211 150 c 0
 292 150 350 95 350 19 c 0
 350 -57 292 -111 211 -111 c 0
 104 -111 36 -33 36 89 c 0
113 19 m 0
 113 -26 153 -58 207 -58 c 0
 261 -58 296 -28 296 19 c 0
 296 66 261 97 207 97 c 0
 151 97 113 65 113 19 c 0
EndSplineSet
EndChar

StartChar: uni2087
Encoding: 8327 8327 654
GlifName: uni2087
Width: 395
Flags: HW
LayerCount: 2
Fore
SplineSet
182 -102 m 5
 195 35 262 142 359 233 c 5
 359 293 l 5
 36 293 l 5
 36 244 l 5
 307 244 l 5
 222 159 149 64 127 -102 c 5
 182 -102 l 5
EndSplineSet
EndChar

StartChar: uni2088
Encoding: 8328 8328 655
GlifName: uni2088
Width: 386
Flags: HW
LayerCount: 2
Fore
SplineSet
196 297 m 1
 196 246 l 1
 135 246 100 221 100 178 c 0
 100 140 135 119 193 119 c 1
 193 78 l 1
 105 78 46 120 46 183 c 0
 46 251 106 297 196 297 c 1
196 -59 m 1
 196 -111 l 1
 100 -111 36 -67 36 -2 c 0
 36 64 99 109 193 109 c 1
 193 68 l 1
 128 68 90 44 90 2 c 0
 90 -37 129 -59 196 -59 c 1
210 119 m 1
 210 68 l 1
 182 68 l 1
 182 119 l 1
 210 119 l 1
196 297 m 1
 283 297 340 251 340 183 c 0
 340 120 284 78 200 78 c 1
 200 119 l 1
 255 119 286 140 286 178 c 0
 286 221 254 246 196 246 c 1
 196 297 l 1
196 -59 m 1
 260 -59 296 -37 296 2 c 0
 296 44 261 68 200 68 c 1
 200 109 l 1
 290 109 350 64 350 -2 c 0
 350 -67 289 -111 196 -111 c 1
 196 -59 l 1
EndSplineSet
EndChar

StartChar: uni2089
Encoding: 8329 8329 656
GlifName: uni2089
Width: 386
Flags: HW
LayerCount: 2
Fore
SplineSet
350 77 m 0
 350 -41 288 -111 181 -111 c 0
 105 -111 50 -71 37 -6 c 1
 91 -6 l 1
 100 -41 131 -59 181 -59 c 0
 259 -59 298 -13 298 82 c 0
 298 91 297 100 296 109 c 1
 277 59 230 28 177 28 c 0
 95 28 36 84 36 162 c 0
 36 240 97 297 182 297 c 0
 284 297 350 212 350 77 c 0
276 161 m 0
 276 208 236 244 182 244 c 0
 128 244 93 211 93 161 c 0
 93 112 128 79 182 79 c 0
 238 79 276 112 276 161 c 0
EndSplineSet
EndChar

StartChar: uni208A
Encoding: 8330 8330 657
GlifName: uni208A_
Width: 374
Flags: HW
LayerCount: 2
Fore
SplineSet
212 127 m 5
 339 127 l 5
 339 78 l 5
 212 78 l 5
 212 -49 l 1
 163 -49 l 1
 163 78 l 5
 36 78 l 5
 36 127 l 5
 163 127 l 5
 163 254 l 1
 212 254 l 1
 212 127 l 5
EndSplineSet
EndChar

StartChar: uni208B
Encoding: 8331 8331 658
GlifName: uni208B_
Width: 374
Flags: HW
LayerCount: 2
Fore
SplineSet
36 127 m 1
 339 127 l 1
 339 78 l 1
 36 78 l 1
 36 127 l 1
EndSplineSet
EndChar

StartChar: uni208C
Encoding: 8332 8332 659
GlifName: uni208C_
Width: 374
Flags: HW
LayerCount: 2
Fore
SplineSet
36 40 m 5
 339 40 l 5
 339 -9 l 5
 36 -9 l 5
 36 40 l 5
36 214 m 5
 339 214 l 5
 339 165 l 5
 36 165 l 5
 36 214 l 5
EndSplineSet
EndChar

StartChar: uni208D
Encoding: 8333 8333 660
GlifName: uni208D_
Width: 183
Flags: HW
LayerCount: 2
Fore
SplineSet
168 -174 m 1
 116 -174 l 1
 70 -122 36 -26 36 102 c 0
 36 223 70 315 116 365 c 1
 168 365 l 5
 116 301 90 220 90 102 c 0
 90 -23 116 -107 168 -174 c 1
EndSplineSet
EndChar

StartChar: uni208E
Encoding: 8334 8334 661
GlifName: uni208E_
Width: 183
Flags: HW
LayerCount: 2
Fore
SplineSet
15 365 m 5
 68 365 l 5
 114 313 147 216 147 88 c 4
 147 -33 114 -124 68 -174 c 5
 15 -174 l 5
 67 -110 93 -30 93 88 c 4
 93 213 67 298 15 365 c 5
EndSplineSet
EndChar

StartChar: uni2099
Encoding: 8345 8345 662
GlifName: uni2099
Width: 430
Flags: HW
LayerCount: 2
Fore
SplineSet
323 139 m 2
 323 218 283 252 222 252 c 0
 157 252 108 207 108 145 c 1
 78 152 l 1
 79 246 158 303 232 303 c 0
 314 303 374 249 374 150 c 2
 374 -102 l 1
 323 -102 l 1
 323 139 l 2
56 293 m 1
 108 293 l 1
 108 -102 l 1
 56 -102 l 1
 56 293 l 1
EndSplineSet
EndChar

StartChar: uni2460
Encoding: 9312 9312 663
GlifName: uni2460
Width: 844
Flags: HW
LayerCount: 2
Fore
SplineSet
417 3 m 0
 612 3 744 137 744 334 c 0
 744 529 615 660 422 660 c 0
 229 660 100 528 100 329 c 0
 100 132 226 3 417 3 c 0
799 333 m 0
 799 105 643 -51 417 -51 c 0
 194 -51 46 98 46 322 c 0
 46 553 201 715 424 715 c 0
 645 715 799 558 799 333 c 0
422 530 m 5
 474 530 l 5
 474 135 l 5
 422 135 l 5
 422 401 l 5
 310 401 l 5
 310 445 l 5
 355 445 l 6
 400 445 422 458 422 499 c 6
 422 530 l 5
EndSplineSet
EndChar

StartChar: uni2461
Encoding: 9313 9313 664
GlifName: uni2461
Width: 844
Flags: HW
LayerCount: 2
Fore
SplineSet
417 3 m 4
 612 3 744 137 744 334 c 4
 744 529 615 660 422 660 c 4
 229 660 100 528 100 329 c 4
 100 132 226 3 417 3 c 4
799 333 m 4
 799 105 643 -51 417 -51 c 4
 194 -51 46 98 46 322 c 4
 46 553 201 715 424 715 c 4
 645 715 799 558 799 333 c 4
319 184 m 1
 575 184 l 1
 575 135 l 1
 266 135 l 1
 266 150 l 2
 266 254 351 283 425 312 c 0
 478 332 524 354 524 402 c 0
 524 453 490 483 430 483 c 0
 365 483 322 448 319 393 c 1
 266 393 l 1
 272 477 340 535 430 535 c 0
 519 535 579 480 579 398 c 0
 579 330 512 296 446 268 c 0
 381 241 328 221 319 184 c 1
EndSplineSet
EndChar

StartChar: uni2462
Encoding: 9314 9314 665
GlifName: uni2462
Width: 844
Flags: HW
LayerCount: 2
Fore
SplineSet
799 333 m 0
 799 105 643 -51 417 -51 c 0
 194 -51 46 98 46 322 c 0
 46 553 201 715 424 715 c 0
 645 715 799 558 799 333 c 0
417 3 m 0
 612 3 744 137 744 334 c 0
 744 529 615 660 422 660 c 0
 229 660 100 528 100 329 c 0
 100 132 226 3 417 3 c 0
524 331 m 1
 559 314 580 283 580 244 c 0
 580 173 517 127 424 127 c 0
 336 127 271 174 265 242 c 1
 319 242 l 1
 322 203 363 178 424 178 c 0
 489 178 525 202 525 244 c 0
 525 283 500 304 457 304 c 2
 395 304 l 1
 395 355 l 1
 457 355 l 2
 494 355 515 376 515 412 c 0
 515 458 481 484 421 484 c 0
 365 484 328 457 326 414 c 1
 271 414 l 1
 277 487 338 536 421 536 c 0
 510 536 569 487 569 412 c 0
 569 376 552 348 524 331 c 1
EndSplineSet
EndChar

StartChar: uni2463
Encoding: 9315 9315 666
GlifName: uni2463
Width: 844
Flags: HW
LayerCount: 2
Fore
SplineSet
417 3 m 4
 612 3 744 137 744 334 c 4
 744 529 615 660 422 660 c 4
 229 660 100 528 100 329 c 4
 100 132 226 3 417 3 c 4
799 333 m 4
 799 105 643 -51 417 -51 c 4
 194 -51 46 98 46 322 c 4
 46 553 201 715 424 715 c 4
 645 715 799 558 799 333 c 4
513 236 m 1
 513 135 l 1
 461 135 l 1
 461 236 l 1
 257 236 l 1
 257 294 l 1
 451 530 l 1
 513 530 l 1
 513 284 l 1
 588 284 l 1
 588 236 l 1
 513 236 l 1
461 284 m 1
 461 467 l 1
 312 284 l 1
 461 284 l 1
EndSplineSet
EndChar

StartChar: uni2464
Encoding: 9316 9316 667
GlifName: uni2464
Width: 844
Flags: HW
LayerCount: 2
Fore
SplineSet
417 3 m 4
 612 3 744 137 744 334 c 4
 744 529 615 660 422 660 c 4
 229 660 100 528 100 329 c 4
 100 132 226 3 417 3 c 4
799 333 m 4
 799 105 643 -51 417 -51 c 4
 194 -51 46 98 46 322 c 4
 46 553 201 715 424 715 c 4
 645 715 799 558 799 333 c 4
518 267 m 0
 518 208 483 178 424 178 c 0
 367 178 329 203 327 242 c 1
 272 242 l 1
 278 174 339 127 424 127 c 0
 512 127 572 180 572 268 c 0
 572 348 520 407 437 407 c 0
 390 407 353 387 329 356 c 1
 342 481 l 1
 553 481 l 1
 553 530 l 1
 298 530 l 1
 272 301 l 1
 323 301 l 1
 343 335 380 355 430 355 c 0
 486 355 518 321 518 267 c 0
EndSplineSet
EndChar

StartChar: uni2465
Encoding: 9317 9317 668
GlifName: uni2465
Width: 844
Flags: HW
LayerCount: 2
Fore
SplineSet
417 3 m 4
 612 3 744 137 744 334 c 4
 744 529 615 660 422 660 c 4
 229 660 100 528 100 329 c 4
 100 132 226 3 417 3 c 4
799 333 m 4
 799 105 643 -51 417 -51 c 4
 194 -51 46 98 46 322 c 4
 46 553 201 715 424 715 c 4
 645 715 799 558 799 333 c 4
265 327 m 0
 265 458 328 535 434 535 c 0
 507 535 559 493 571 425 c 1
 517 425 l 1
 509 463 480 483 434 483 c 0
 357 483 319 433 319 332 c 0
 319 323 321 313 322 305 c 1
 341 355 387 387 440 387 c 0
 521 387 580 333 580 257 c 0
 580 181 521 127 440 127 c 0
 334 127 265 205 265 327 c 0
342 257 m 0
 342 213 383 179 436 179 c 0
 490 179 525 210 525 257 c 0
 525 304 490 335 436 335 c 0
 380 335 342 303 342 257 c 0
EndSplineSet
EndChar

StartChar: uni2466
Encoding: 9318 9318 669
GlifName: uni2466
Width: 844
Flags: HW
LayerCount: 2
Fore
SplineSet
417 3 m 4
 612 3 744 137 744 334 c 4
 744 529 615 660 422 660 c 4
 229 660 100 528 100 329 c 4
 100 132 226 3 417 3 c 4
799 333 m 4
 799 105 643 -51 417 -51 c 4
 194 -51 46 98 46 322 c 4
 46 553 201 715 424 715 c 4
 645 715 799 558 799 333 c 4
408 135 m 1
 421 271 487 380 584 471 c 1
 584 530 l 1
 261 530 l 1
 261 481 l 1
 533 481 l 1
 448 396 376 302 353 135 c 1
 408 135 l 1
EndSplineSet
EndChar

StartChar: uni2467
Encoding: 9319 9319 670
GlifName: uni2467
Width: 844
Flags: HW
LayerCount: 2
Fore
SplineSet
799 333 m 0
 799 105 643 -51 417 -51 c 0
 194 -51 46 98 46 322 c 0
 46 553 201 715 424 715 c 0
 645 715 799 558 799 333 c 0
417 3 m 0
 612 3 744 137 744 334 c 0
 744 529 615 660 422 660 c 0
 229 660 100 528 100 329 c 0
 100 132 226 3 417 3 c 0
338 332 m 1
 299 350 275 381 275 421 c 0
 275 490 335 535 425 535 c 0
 512 535 569 490 569 421 c 0
 569 381 547 350 510 332 c 1
 554 314 580 280 580 236 c 0
 580 170 518 127 425 127 c 0
 329 127 265 170 265 236 c 0
 265 280 293 314 338 332 c 1
422 356 m 2
 429 356 l 2
 483 356 515 378 515 416 c 0
 515 459 482 483 425 483 c 0
 365 483 330 459 330 416 c 0
 330 378 364 356 422 356 c 2
422 305 m 2
 357 305 319 282 319 240 c 0
 319 201 357 178 425 178 c 0
 488 178 525 201 525 240 c 0
 525 282 490 305 429 305 c 2
 422 305 l 2
EndSplineSet
EndChar

StartChar: uni2468
Encoding: 9320 9320 671
GlifName: uni2468
Width: 844
Flags: HW
LayerCount: 2
Fore
SplineSet
417 3 m 4
 612 3 744 137 744 334 c 4
 744 529 615 660 422 660 c 4
 229 660 100 528 100 329 c 4
 100 132 226 3 417 3 c 4
799 333 m 4
 799 105 643 -51 417 -51 c 4
 194 -51 46 98 46 322 c 4
 46 553 201 715 424 715 c 4
 645 715 799 558 799 333 c 4
580 314 m 0
 580 196 517 127 411 127 c 0
 335 127 279 166 266 231 c 1
 321 231 l 1
 330 196 361 178 411 178 c 0
 490 178 527 224 527 319 c 0
 527 328 526 338 525 346 c 1
 506 296 460 265 407 265 c 0
 325 265 265 321 265 399 c 0
 265 478 327 535 412 535 c 0
 514 535 580 449 580 314 c 0
506 398 m 0
 506 445 465 481 412 481 c 0
 358 481 323 448 323 398 c 0
 323 349 358 316 412 316 c 0
 468 316 506 349 506 398 c 0
EndSplineSet
EndChar

StartChar: uni24EA
Encoding: 9450 9450 672
GlifName: uni24E_A_
Width: 844
Flags: HW
LayerCount: 2
Fore
SplineSet
417 3 m 0
 612 3 744 137 744 334 c 0
 744 529 615 660 422 660 c 0
 229 660 100 528 100 329 c 0
 100 132 226 3 417 3 c 0
799 333 m 0
 799 105 643 -51 417 -51 c 0
 194 -51 46 98 46 322 c 0
 46 553 201 715 424 715 c 0
 645 715 799 558 799 333 c 0
261 332 m 0
 261 454 326 535 423 535 c 0
 519 535 584 454 584 332 c 0
 584 209 519 127 423 127 c 0
 326 127 261 209 261 332 c 0
529 332 m 0
 529 428 491 483 423 483 c 0
 355 483 315 428 315 332 c 0
 315 235 355 178 423 178 c 0
 491 178 529 235 529 332 c 0
EndSplineSet
EndChar

StartChar: uni24FF
Encoding: 9471 9471 673
GlifName: uni24F_F_
Width: 844
Flags: HW
LayerCount: 2
Fore
SplineSet
799 333 m 0
 799 105 643 -51 417 -51 c 0
 194 -51 46 98 46 322 c 0
 46 553 201 715 424 715 c 0
 645 715 799 558 799 333 c 0
261 332 m 0
 261 209 326 127 423 127 c 0
 519 127 584 209 584 332 c 0
 584 454 519 535 423 535 c 0
 326 535 261 454 261 332 c 0
529 332 m 0
 529 235 491 178 423 178 c 0
 355 178 315 235 315 332 c 0
 315 428 355 483 423 483 c 0
 491 483 529 428 529 332 c 0
EndSplineSet
EndChar

StartChar: uni2776
Encoding: 10102 10102 674
GlifName: uni2776
Width: 844
Flags: HW
LayerCount: 2
Fore
SplineSet
799 333 m 0
 799 105 643 -51 417 -51 c 0
 194 -51 46 98 46 322 c 0
 46 553 201 715 424 715 c 0
 645 715 799 558 799 333 c 0
422 530 m 1
 422 499 l 2
 422 458 400 445 355 445 c 2
 310 445 l 1
 310 401 l 1
 422 401 l 1
 422 135 l 1
 474 135 l 1
 474 530 l 1
 422 530 l 1
EndSplineSet
EndChar

StartChar: uni2777
Encoding: 10103 10103 675
GlifName: uni2777
Width: 844
Flags: HW
LayerCount: 2
Fore
SplineSet
799 333 m 0
 799 105 643 -51 417 -51 c 0
 194 -51 46 98 46 322 c 0
 46 553 201 715 424 715 c 0
 645 715 799 558 799 333 c 0
319 184 m 1
 328 221 381 241 446 268 c 0
 512 296 579 330 579 398 c 0
 579 480 519 535 430 535 c 0
 340 535 272 477 266 393 c 1
 319 393 l 1
 322 448 365 483 430 483 c 0
 490 483 524 453 524 402 c 0
 524 354 478 332 425 312 c 0
 351 283 266 254 266 150 c 2
 266 135 l 1
 575 135 l 1
 575 184 l 1
 319 184 l 1
EndSplineSet
EndChar

StartChar: uni2778
Encoding: 10104 10104 676
GlifName: uni2778
Width: 844
Flags: HW
LayerCount: 2
Fore
SplineSet
799 333 m 0
 799 105 643 -51 417 -51 c 0
 194 -51 46 98 46 322 c 0
 46 553 201 715 424 715 c 0
 645 715 799 558 799 333 c 0
524 331 m 1
 552 348 569 376 569 412 c 0
 569 487 510 536 421 536 c 0
 338 536 277 487 271 414 c 1
 326 414 l 1
 328 457 365 484 421 484 c 0
 481 484 515 458 515 412 c 0
 515 376 494 355 457 355 c 2
 395 355 l 1
 395 304 l 1
 457 304 l 2
 500 304 525 283 525 244 c 0
 525 202 489 178 424 178 c 0
 363 178 322 203 319 242 c 1
 265 242 l 1
 271 174 336 127 424 127 c 0
 517 127 580 173 580 244 c 0
 580 283 559 314 524 331 c 1
EndSplineSet
EndChar

StartChar: uni2779
Encoding: 10105 10105 677
GlifName: uni2779
Width: 844
Flags: HW
LayerCount: 2
Fore
SplineSet
799 333 m 0
 799 105 643 -51 417 -51 c 0
 194 -51 46 98 46 322 c 0
 46 553 201 715 424 715 c 0
 645 715 799 558 799 333 c 0
513 236 m 1
 588 236 l 1
 588 284 l 1
 513 284 l 1
 513 530 l 1
 451 530 l 1
 257 294 l 1
 257 236 l 1
 461 236 l 1
 461 135 l 1
 513 135 l 1
 513 236 l 1
461 284 m 1
 312 284 l 1
 461 467 l 1
 461 284 l 1
EndSplineSet
EndChar

StartChar: uni277A
Encoding: 10106 10106 678
GlifName: uni277A_
Width: 844
Flags: HW
LayerCount: 2
Fore
SplineSet
799 333 m 0
 799 105 643 -51 417 -51 c 0
 194 -51 46 98 46 322 c 0
 46 553 201 715 424 715 c 0
 645 715 799 558 799 333 c 0
518 267 m 0
 518 208 483 178 424 178 c 0
 367 178 329 203 327 242 c 1
 272 242 l 1
 278 174 339 127 424 127 c 0
 512 127 572 180 572 268 c 0
 572 348 520 407 437 407 c 0
 390 407 353 387 329 356 c 1
 342 481 l 1
 553 481 l 1
 553 530 l 1
 298 530 l 1
 272 301 l 1
 323 301 l 1
 343 335 380 355 430 355 c 0
 486 355 518 321 518 267 c 0
EndSplineSet
EndChar

StartChar: uni277B
Encoding: 10107 10107 679
GlifName: uni277B_
Width: 844
Flags: HW
LayerCount: 2
Fore
SplineSet
799 333 m 0
 799 105 643 -51 417 -51 c 0
 194 -51 46 98 46 322 c 0
 46 553 201 715 424 715 c 0
 645 715 799 558 799 333 c 0
265 327 m 0
 265 205 334 127 440 127 c 0
 521 127 580 181 580 257 c 0
 580 333 521 387 440 387 c 0
 387 387 341 355 322 305 c 1
 321 313 319 323 319 332 c 0
 319 433 357 483 434 483 c 0
 480 483 509 463 517 425 c 1
 571 425 l 1
 559 493 507 535 434 535 c 0
 328 535 265 458 265 327 c 0
342 257 m 0
 342 303 380 335 436 335 c 0
 490 335 525 304 525 257 c 0
 525 210 490 179 436 179 c 0
 383 179 342 213 342 257 c 0
EndSplineSet
EndChar

StartChar: uni277C
Encoding: 10108 10108 680
GlifName: uni277C_
Width: 844
Flags: HW
LayerCount: 2
Fore
SplineSet
799 333 m 0
 799 105 643 -51 417 -51 c 0
 194 -51 46 98 46 322 c 0
 46 553 201 715 424 715 c 0
 645 715 799 558 799 333 c 0
408 135 m 1
 421 271 487 380 584 471 c 1
 584 530 l 1
 261 530 l 1
 261 481 l 1
 533 481 l 1
 448 396 376 302 353 135 c 1
 408 135 l 1
EndSplineSet
EndChar

StartChar: uni277D
Encoding: 10109 10109 681
GlifName: uni277D_
Width: 844
Flags: HW
LayerCount: 2
Fore
SplineSet
799 333 m 0
 799 105 643 -51 417 -51 c 0
 194 -51 46 98 46 322 c 0
 46 553 201 715 424 715 c 0
 645 715 799 558 799 333 c 0
510 332 m 1
 547 350 569 381 569 421 c 0
 569 490 512 535 425 535 c 0
 335 535 275 490 275 421 c 0
 275 381 299 350 338 332 c 1
 293 314 265 280 265 236 c 0
 265 170 329 127 425 127 c 0
 518 127 580 170 580 236 c 0
 580 280 554 314 510 332 c 1
429 356 m 2
 422 356 l 2
 364 356 330 378 330 416 c 0
 330 459 365 483 425 483 c 0
 482 483 515 459 515 416 c 0
 515 378 483 356 429 356 c 2
429 305 m 2
 490 305 525 282 525 240 c 0
 525 201 488 178 425 178 c 0
 357 178 319 201 319 240 c 0
 319 282 357 305 422 305 c 2
 429 305 l 2
EndSplineSet
EndChar

StartChar: uni277E
Encoding: 10110 10110 682
GlifName: uni277E_
Width: 844
Flags: HW
LayerCount: 2
Fore
SplineSet
799 333 m 0
 799 105 643 -51 417 -51 c 0
 194 -51 46 98 46 322 c 0
 46 553 201 715 424 715 c 0
 645 715 799 558 799 333 c 0
580 314 m 0
 580 449 514 535 412 535 c 0
 327 535 265 478 265 399 c 0
 265 321 325 265 407 265 c 0
 460 265 506 296 525 346 c 1
 526 338 527 328 527 319 c 0
 527 224 490 178 411 178 c 0
 361 178 330 196 321 231 c 1
 266 231 l 1
 279 166 335 127 411 127 c 0
 517 127 580 196 580 314 c 0
506 398 m 0
 506 349 468 316 412 316 c 0
 358 316 323 349 323 398 c 0
 323 448 358 481 412 481 c 0
 465 481 506 445 506 398 c 0
EndSplineSet
EndChar

StartChar: filledbox
Encoding: 9632 9632 683
GlifName: filledbox
Width: 844
Flags: HW
LayerCount: 2
Fore
SplineSet
799 -41 m 5
 46 -41 l 5
 46 707 l 1
 799 707 l 1
 799 -41 l 5
EndSplineSet
EndChar

StartChar: H22073
Encoding: 9633 9633 684
GlifName: H_22073
Width: 844
Flags: HW
LayerCount: 2
Fore
SplineSet
748 10 m 1
 748 655 l 1
 97 655 l 1
 97 10 l 1
 748 10 l 1
799 -41 m 1
 46 -41 l 1
 46 707 l 1
 799 707 l 1
 799 -41 l 1
EndSplineSet
EndChar

StartChar: triagup
Encoding: 9650 9650 685
GlifName: triagup
Width: 844
Flags: HW
LayerCount: 2
Fore
SplineSet
799 -41 m 1
 46 -41 l 1
 422 707 l 1
 799 -41 l 1
EndSplineSet
EndChar

StartChar: uni25B3
Encoding: 9651 9651 686
GlifName: uni25B_3
Width: 844
Flags: HW
LayerCount: 2
Fore
SplineSet
717 10 m 1
 422 594 l 1
 128 10 l 1
 717 10 l 1
799 -41 m 1
 46 -41 l 1
 422 707 l 1
 799 -41 l 1
EndSplineSet
EndChar

StartChar: uni25B6
Encoding: 9654 9654 687
GlifName: uni25B_6
Width: 844
Flags: HW
LayerCount: 2
Fore
SplineSet
49 -44 m 1
 49 709 l 1
 796 333 l 1
 49 -44 l 1
EndSplineSet
EndChar

StartChar: uni25B7
Encoding: 9655 9655 688
GlifName: uni25B_7
Width: 844
Flags: HW
LayerCount: 2
Fore
SplineSet
100 38 m 1
 684 333 l 5
 100 627 l 1
 100 38 l 1
49 -44 m 1
 49 709 l 1
 796 333 l 1
 49 -44 l 1
EndSplineSet
EndChar

StartChar: triagdn
Encoding: 9660 9660 689
GlifName: triagdn
Width: 844
Flags: HW
LayerCount: 2
Fore
SplineSet
46 707 m 1
 799 707 l 1
 423 -41 l 1
 46 707 l 1
EndSplineSet
EndChar

StartChar: uni25BD
Encoding: 9661 9661 690
GlifName: uni25B_D_
Width: 844
Flags: HW
LayerCount: 2
Fore
SplineSet
128 655 m 1
 423 72 l 5
 717 655 l 1
 128 655 l 1
46 707 m 1
 799 707 l 1
 423 -41 l 1
 46 707 l 1
EndSplineSet
EndChar

StartChar: uni25C0
Encoding: 9664 9664 691
GlifName: uni25C_0
Width: 844
Flags: HW
LayerCount: 2
Fore
SplineSet
796 709 m 1
 796 -44 l 1
 49 332 l 1
 796 709 l 1
EndSplineSet
EndChar

StartChar: uni25C1
Encoding: 9665 9665 692
GlifName: uni25C_1
Width: 844
Flags: HW
LayerCount: 2
Fore
SplineSet
745 627 m 1
 161 332 l 5
 745 38 l 1
 745 627 l 1
796 709 m 1
 796 -44 l 1
 49 332 l 1
 796 709 l 1
EndSplineSet
EndChar

StartChar: uni25C6
Encoding: 9670 9670 693
GlifName: uni25C_6
Width: 844
Flags: HW
LayerCount: 2
Fore
SplineSet
799 333 m 1
 418 -51 l 1
 46 323 l 1
 424 715 l 1
 799 333 l 1
EndSplineSet
EndChar

StartChar: uni25C7
Encoding: 9671 9671 694
GlifName: uni25C_7
Width: 844
Flags: HW
LayerCount: 2
Fore
SplineSet
799 333 m 1
 418 -51 l 1
 46 323 l 1
 424 715 l 1
 799 333 l 1
416 27 m 1
 722 335 l 1
 424 637 l 1
 124 328 l 1
 416 27 l 1
EndSplineSet
EndChar

StartChar: lozenge
Encoding: 9674 9674 695
GlifName: lozenge
Width: 619
Flags: HW
LayerCount: 2
Fore
SplineSet
303 16 m 5
 512 336 l 1
 311 647 l 1
 106 329 l 1
 303 16 l 5
573 337 m 1
 326 -51 l 1
 285 -51 l 1
 46 327 l 1
 291 715 l 1
 332 715 l 1
 573 337 l 1
EndSplineSet
EndChar

StartChar: circle
Encoding: 9675 9675 696
GlifName: circle
Width: 844
Flags: HW
LayerCount: 2
Fore
SplineSet
417 3 m 4
 612 3 744 137 744 334 c 4
 744 529 615 660 422 660 c 4
 229 660 100 528 100 329 c 4
 100 132 226 3 417 3 c 4
799 333 m 4
 799 105 643 -51 417 -51 c 4
 194 -51 46 98 46 322 c 4
 46 553 201 715 424 715 c 4
 645 715 799 558 799 333 c 4
EndSplineSet
EndChar

StartChar: H18533
Encoding: 9679 9679 697
GlifName: H_18533
Width: 844
Flags: HW
LayerCount: 2
Fore
SplineSet
799 333 m 0
 799 105 643 -51 417 -51 c 0
 194 -51 46 98 46 322 c 0
 46 553 201 715 424 715 c 0
 645 715 799 558 799 333 c 0
EndSplineSet
EndChar

StartChar: uni25D0
Encoding: 9680 9680 698
GlifName: uni25D_0
Width: 844
Flags: HW
LayerCount: 2
Fore
SplineSet
417 3 m 5
 612 3 744 137 744 334 c 0
 744 529 615 660 422 660 c 5
 417 3 l 5
799 333 m 0
 799 105 643 -51 417 -51 c 0
 194 -51 46 98 46 322 c 0
 46 553 201 715 424 715 c 0
 645 715 799 558 799 333 c 0
EndSplineSet
EndChar

StartChar: uni25D1
Encoding: 9681 9681 699
GlifName: uni25D_1
Width: 844
Flags: HW
LayerCount: 2
Fore
SplineSet
428 660 m 5
 233 660 100 526 100 329 c 0
 100 134 230 3 423 3 c 5
 428 660 l 5
46 331 m 0
 46 559 201 715 427 715 c 0
 650 715 799 565 799 341 c 0
 799 110 643 -51 420 -51 c 0
 199 -51 46 106 46 331 c 0
EndSplineSet
EndChar

StartChar: uni25D2
Encoding: 9682 9682 700
GlifName: uni25D_2
Width: 844
Flags: HW
LayerCount: 2
Fore
SplineSet
744 334 m 1
 744 529 615 660 422 660 c 0
 229 660 100 528 100 329 c 1
 744 334 l 1
799 333 m 0
 799 105 643 -51 417 -51 c 0
 194 -51 46 98 46 322 c 0
 46 553 201 715 424 715 c 0
 645 715 799 558 799 333 c 0
EndSplineSet
EndChar

StartChar: uni25D3
Encoding: 9683 9683 701
GlifName: uni25D_3
Width: 844
Flags: HW
LayerCount: 2
Fore
SplineSet
100 329 m 1
 100 134 230 3 423 3 c 0
 616 3 744 135 744 334 c 1
 100 329 l 1
46 331 m 0
 46 559 201 715 427 715 c 0
 650 715 799 565 799 341 c 0
 799 110 643 -51 420 -51 c 0
 199 -51 46 106 46 331 c 0
EndSplineSet
EndChar

StartChar: uni25E2
Encoding: 9698 9698 702
GlifName: uni25E_2
Width: 844
Flags: HW
LayerCount: 2
Fore
SplineSet
799 -41 m 1
 46 -41 l 5
 799 707 l 5
 799 -41 l 1
EndSplineSet
EndChar

StartChar: uni25E3
Encoding: 9699 9699 703
GlifName: uni25E_3
Width: 844
Flags: HW
LayerCount: 2
Fore
SplineSet
49 -44 m 1
 49 709 l 5
 796 -44 l 5
 49 -44 l 1
EndSplineSet
EndChar

StartChar: uni25E4
Encoding: 9700 9700 704
GlifName: uni25E_4
Width: 844
Flags: HW
LayerCount: 2
Fore
SplineSet
46 707 m 1
 799 707 l 5
 46 -41 l 5
 46 707 l 1
EndSplineSet
EndChar

StartChar: uni25E5
Encoding: 9701 9701 705
GlifName: uni25E_5
Width: 844
Flags: HW
LayerCount: 2
Fore
SplineSet
796 709 m 1
 796 -44 l 5
 49 709 l 5
 796 709 l 1
EndSplineSet
EndChar

StartChar: uni00B2
Encoding: 178 178 706
GlifName: uni00B_2
Width: 385
Flags: HW
LayerCount: 2
Fore
SplineSet
89 422 m 5
 345 422 l 1
 345 373 l 1
 36 373 l 1
 36 387 l 2
 36 491 123 521 197 550 c 0
 250 570 295 592 295 640 c 0
 295 691 260 721 200 721 c 0
 135 721 93 686 90 631 c 1
 36 631 l 1
 42 715 110 772 200 772 c 0
 289 772 349 718 349 636 c 0
 349 568 283 534 217 506 c 0
 152 479 98 459 89 422 c 5
EndSplineSet
EndChar

StartChar: uni00B3
Encoding: 179 179 707
GlifName: uni00B_3
Width: 386
Flags: HW
LayerCount: 2
Fore
SplineSet
271 593 m 5
 271 542 l 5
 166 542 l 1
 166 593 l 1
 271 593 l 5
227 552 m 1
 227 593 l 1
 264 593 286 613 286 649 c 0
 286 695 251 722 191 722 c 0
 135 722 98 694 96 651 c 1
 42 651 l 1
 48 723 108 773 191 773 c 0
 280 773 340 724 340 649 c 0
 340 591 294 552 227 552 c 1
227 583 m 1
 301 583 350 542 350 481 c 0
 350 411 288 365 195 365 c 0
 107 365 42 411 36 479 c 1
 90 479 l 1
 93 440 134 416 195 416 c 0
 259 416 296 439 296 481 c 0
 296 520 271 542 227 542 c 1
 227 583 l 1
EndSplineSet
EndChar

StartChar: uni00B9
Encoding: 185 185 708
GlifName: uni00B_9
Width: 225
Flags: HW
LayerCount: 2
Fore
SplineSet
138 768 m 5
 189 768 l 5
 189 373 l 5
 138 373 l 5
 138 639 l 5
 26 639 l 5
 26 683 l 5
 70 683 l 6
 115 683 138 695 138 736 c 6
 138 768 l 5
EndSplineSet
EndChar

StartChar: zero.dnom
Encoding: 65736 -1 709
GlifName: zero.dnom
Width: 394
Flags: HW
LayerCount: 2
Fore
SplineSet
36 197 m 4
 36 319 101 399 198 399 c 4
 294 399 358 319 358 197 c 4
 358 74 294 -8 198 -8 c 4
 101 -8 36 74 36 197 c 4
304 197 m 4
 304 293 266 348 198 348 c 4
 130 348 90 293 90 197 c 4
 90 100 130 43 198 43 c 4
 266 43 304 100 304 197 c 4
EndSplineSet
EndChar

StartChar: one.dnom
Encoding: 65737 -1 710
GlifName: one.dnom
Width: 225
Flags: HW
LayerCount: 2
Fore
SplineSet
138 395 m 5
 189 395 l 5
 189 0 l 5
 138 0 l 5
 138 266 l 5
 26 266 l 5
 26 310 l 5
 70 310 l 6
 115 310 138 323 138 364 c 6
 138 395 l 5
EndSplineSet
EndChar

StartChar: two.dnom
Encoding: 65738 -1 711
GlifName: two.dnom
Width: 385
Flags: HW
LayerCount: 2
Fore
SplineSet
89 49 m 5
 345 49 l 1
 345 0 l 1
 36 0 l 1
 36 14 l 2
 36 118 123 148 197 177 c 0
 250 197 295 219 295 267 c 0
 295 318 260 348 200 348 c 0
 135 348 93 313 90 258 c 1
 36 258 l 1
 42 342 110 399 200 399 c 0
 289 399 349 345 349 263 c 0
 349 195 283 161 217 133 c 0
 152 106 98 86 89 49 c 5
EndSplineSet
EndChar

StartChar: three.dnom
Encoding: 65739 -1 712
GlifName: three.dnom
Width: 386
Flags: HW
LayerCount: 2
Fore
SplineSet
271 220 m 5
 271 169 l 5
 166 169 l 1
 166 220 l 1
 271 220 l 5
227 179 m 1
 227 220 l 1
 264 220 286 240 286 276 c 0
 286 322 251 349 191 349 c 0
 135 349 98 322 96 279 c 1
 42 279 l 1
 48 351 108 400 191 400 c 0
 280 400 340 351 340 276 c 0
 340 218 294 179 227 179 c 1
227 210 m 1
 301 210 350 170 350 109 c 0
 350 39 288 -8 195 -8 c 0
 107 -8 42 38 36 106 c 1
 90 106 l 1
 93 67 134 43 195 43 c 0
 259 43 296 67 296 109 c 0
 296 148 271 169 227 169 c 1
 227 210 l 1
EndSplineSet
EndChar

StartChar: four.dnom
Encoding: 65740 -1 713
GlifName: four.dnom
Width: 403
Flags: HW
LayerCount: 2
Fore
SplineSet
292 100 m 1
 292 0 l 1
 241 0 l 1
 241 100 l 1
 36 100 l 1
 36 159 l 1
 230 395 l 1
 292 395 l 1
 292 148 l 1
 368 148 l 1
 368 100 l 1
 292 100 l 1
241 148 m 1
 241 332 l 1
 90 148 l 1
 241 148 l 1
EndSplineSet
EndChar

StartChar: five.dnom
Encoding: 65741 -1 714
GlifName: five.dnom
Width: 371
Flags: HW
LayerCount: 2
Fore
SplineSet
282 132 m 0
 282 73 247 43 187 43 c 0
 129 43 92 67 90 106 c 1
 36 106 l 1
 42 38 102 -8 187 -8 c 0
 275 -8 336 45 336 133 c 0
 336 213 284 271 201 271 c 0
 154 271 116 252 92 221 c 1
 105 346 l 1
 316 346 l 1
 316 395 l 1
 61 395 l 1
 36 166 l 1
 86 166 l 1
 106 199 144 220 194 220 c 0
 251 220 282 186 282 132 c 0
EndSplineSet
EndChar

StartChar: six.dnom
Encoding: 65742 -1 715
GlifName: six.dnom
Width: 386
Flags: HW
LayerCount: 2
Fore
SplineSet
36 191 m 0
 36 322 98 399 205 399 c 0
 277 399 329 358 342 290 c 1
 288 290 l 1
 280 328 251 348 205 348 c 0
 128 348 90 299 90 197 c 0
 90 188 91 179 92 170 c 1
 111 221 158 252 211 252 c 0
 292 252 350 198 350 122 c 0
 350 46 292 -8 211 -8 c 0
 104 -8 36 69 36 191 c 0
113 122 m 0
 113 77 153 44 207 44 c 0
 261 44 296 75 296 122 c 0
 296 169 261 200 207 200 c 0
 151 200 113 168 113 122 c 0
EndSplineSet
EndChar

StartChar: seven.dnom
Encoding: 65743 -1 716
GlifName: seven.dnom
Width: 395
Flags: HW
LayerCount: 2
Fore
SplineSet
182 0 m 5
 195 137 262 245 359 336 c 5
 359 395 l 5
 36 395 l 5
 36 346 l 5
 307 346 l 5
 222 261 149 166 127 0 c 5
 182 0 l 5
EndSplineSet
EndChar

StartChar: eight.dnom
Encoding: 65744 -1 717
GlifName: eight.dnom
Width: 386
Flags: HW
LayerCount: 2
Fore
SplineSet
196 399 m 1
 196 348 l 1
 135 348 100 324 100 281 c 0
 100 243 135 221 193 221 c 1
 193 180 l 1
 105 180 46 223 46 286 c 0
 46 354 106 399 196 399 c 1
196 43 m 1
 196 -8 l 1
 100 -8 36 35 36 100 c 0
 36 166 99 211 193 211 c 1
 193 170 l 1
 128 170 90 146 90 104 c 0
 90 65 129 43 196 43 c 1
210 221 m 1
 210 170 l 1
 182 170 l 1
 182 221 l 1
 210 221 l 1
196 399 m 1
 283 399 340 354 340 286 c 0
 340 223 284 180 200 180 c 1
 200 221 l 1
 255 221 286 243 286 281 c 0
 286 324 254 348 196 348 c 1
 196 399 l 1
196 43 m 1
 260 43 296 65 296 104 c 0
 296 146 261 170 200 170 c 1
 200 211 l 1
 290 211 350 166 350 100 c 0
 350 35 289 -8 196 -8 c 1
 196 43 l 1
EndSplineSet
EndChar

StartChar: nine.dnom
Encoding: 65745 -1 718
GlifName: nine.dnom
Width: 386
Flags: HW
LayerCount: 2
Fore
SplineSet
350 179 m 0
 350 61 288 -8 181 -8 c 0
 105 -8 50 31 37 96 c 1
 91 96 l 1
 100 61 131 43 181 43 c 0
 259 43 298 89 298 184 c 0
 298 193 297 202 296 211 c 1
 277 161 230 130 177 130 c 0
 95 130 36 186 36 264 c 0
 36 342 97 399 182 399 c 0
 284 399 350 314 350 179 c 0
276 263 m 0
 276 310 236 346 182 346 c 0
 128 346 93 313 93 263 c 0
 93 214 128 181 182 181 c 0
 238 181 276 214 276 263 c 0
EndSplineSet
EndChar

StartChar: zero.numr
Encoding: 65746 -1 719
GlifName: zero.numr
Width: 394
Flags: HW
LayerCount: 2
Fore
SplineSet
36 467 m 4
 36 589 101 670 198 670 c 4
 294 670 358 589 358 467 c 4
 358 344 294 262 198 262 c 4
 101 262 36 344 36 467 c 4
304 467 m 4
 304 563 266 618 198 618 c 4
 130 618 90 563 90 467 c 4
 90 370 130 313 198 313 c 4
 266 313 304 370 304 467 c 4
EndSplineSet
EndChar

StartChar: one.numr
Encoding: 65747 -1 720
GlifName: one.numr
Width: 225
Flags: HW
LayerCount: 2
Fore
SplineSet
138 666 m 5
 189 666 l 5
 189 270 l 5
 138 270 l 5
 138 537 l 5
 26 537 l 5
 26 581 l 5
 70 581 l 6
 115 581 138 593 138 634 c 6
 138 666 l 5
EndSplineSet
EndChar

StartChar: two.numr
Encoding: 65748 -1 721
GlifName: two.numr
Width: 385
Flags: HW
LayerCount: 2
Fore
SplineSet
89 319 m 5
 345 319 l 1
 345 270 l 1
 36 270 l 1
 36 285 l 2
 36 389 123 418 197 447 c 0
 250 467 295 490 295 538 c 0
 295 589 260 618 200 618 c 0
 135 618 93 583 90 528 c 1
 36 528 l 1
 42 612 110 670 200 670 c 0
 289 670 349 616 349 534 c 0
 349 466 283 431 217 403 c 0
 152 376 98 356 89 319 c 5
EndSplineSet
EndChar

StartChar: three.numr
Encoding: 65749 -1 722
GlifName: three.numr
Width: 386
Flags: HW
LayerCount: 2
Fore
SplineSet
271 490 m 5
 271 439 l 5
 166 439 l 1
 166 490 l 1
 271 490 l 5
227 450 m 1
 227 490 l 1
 264 490 286 511 286 547 c 0
 286 593 251 620 191 620 c 0
 135 620 98 592 96 549 c 1
 42 549 l 1
 48 621 108 671 191 671 c 0
 280 671 340 622 340 547 c 0
 340 489 294 450 227 450 c 1
227 480 m 1
 301 480 350 440 350 379 c 0
 350 309 288 262 195 262 c 0
 107 262 42 309 36 377 c 1
 90 377 l 1
 93 338 134 313 195 313 c 0
 259 313 296 337 296 379 c 0
 296 418 271 439 227 439 c 1
 227 480 l 1
EndSplineSet
EndChar

StartChar: four.numr
Encoding: 65750 -1 723
GlifName: four.numr
Width: 403
Flags: HW
LayerCount: 2
Fore
SplineSet
292 371 m 1
 292 270 l 1
 241 270 l 1
 241 371 l 1
 36 371 l 1
 36 429 l 1
 230 666 l 1
 292 666 l 1
 292 419 l 1
 368 419 l 1
 368 371 l 1
 292 371 l 1
241 419 m 1
 241 602 l 1
 90 419 l 1
 241 419 l 1
EndSplineSet
EndChar

StartChar: five.numr
Encoding: 65751 -1 724
GlifName: five.numr
Width: 371
Flags: HW
LayerCount: 2
Fore
SplineSet
282 402 m 0
 282 343 247 313 187 313 c 0
 129 313 92 338 90 377 c 1
 36 377 l 1
 42 309 102 262 187 262 c 0
 275 262 336 315 336 403 c 0
 336 483 284 542 201 542 c 0
 154 542 116 523 92 492 c 1
 105 616 l 1
 316 616 l 1
 316 666 l 1
 61 666 l 1
 36 436 l 1
 86 436 l 1
 106 469 144 490 194 490 c 0
 251 490 282 456 282 402 c 0
EndSplineSet
EndChar

StartChar: six.numr
Encoding: 65752 -1 725
GlifName: six.numr
Width: 386
Flags: HW
LayerCount: 2
Fore
SplineSet
36 462 m 0
 36 593 98 670 205 670 c 0
 277 670 329 628 342 560 c 1
 288 560 l 1
 280 598 251 618 205 618 c 0
 128 618 90 569 90 467 c 0
 90 458 91 449 92 440 c 1
 111 491 158 522 211 522 c 0
 292 522 350 468 350 392 c 0
 350 316 292 262 211 262 c 0
 104 262 36 340 36 462 c 0
113 392 m 0
 113 347 153 314 207 314 c 0
 261 314 296 345 296 392 c 0
 296 439 261 470 207 470 c 0
 151 470 113 438 113 392 c 0
EndSplineSet
EndChar

StartChar: seven.numr
Encoding: 65753 -1 726
GlifName: seven.numr
Width: 395
Flags: HW
LayerCount: 2
Fore
SplineSet
182 270 m 5
 195 407 262 515 359 606 c 5
 359 666 l 5
 36 666 l 5
 36 616 l 5
 307 616 l 5
 222 531 149 436 127 270 c 5
 182 270 l 5
EndSplineSet
EndChar

StartChar: eight.numr
Encoding: 65754 -1 727
GlifName: eight.numr
Width: 386
Flags: HW
LayerCount: 2
Fore
SplineSet
196 670 m 1
 196 618 l 1
 135 618 100 594 100 551 c 0
 100 513 135 492 193 492 c 1
 193 451 l 1
 105 451 46 493 46 556 c 0
 46 624 106 670 196 670 c 1
196 313 m 1
 196 262 l 1
 100 262 36 306 36 371 c 0
 36 437 99 481 193 481 c 1
 193 440 l 1
 128 440 90 417 90 375 c 0
 90 336 129 313 196 313 c 1
210 492 m 1
 210 440 l 1
 182 440 l 1
 182 492 l 1
 210 492 l 1
196 670 m 1
 283 670 340 624 340 556 c 0
 340 493 284 451 200 451 c 1
 200 492 l 1
 255 492 286 513 286 551 c 0
 286 594 254 618 196 618 c 1
 196 670 l 1
196 313 m 1
 260 313 296 336 296 375 c 0
 296 417 261 440 200 440 c 1
 200 481 l 1
 290 481 350 437 350 371 c 0
 350 306 289 262 196 262 c 1
 196 313 l 1
EndSplineSet
EndChar

StartChar: nine.numr
Encoding: 65755 -1 728
GlifName: nine.numr
Width: 386
Flags: HW
LayerCount: 2
Fore
SplineSet
350 450 m 0
 350 332 288 262 181 262 c 0
 105 262 50 302 37 367 c 1
 91 367 l 1
 100 332 131 313 181 313 c 0
 259 313 298 360 298 455 c 0
 298 464 297 472 296 481 c 1
 277 431 230 400 177 400 c 0
 95 400 36 457 36 535 c 0
 36 613 97 670 182 670 c 0
 284 670 350 585 350 450 c 0
276 534 m 0
 276 581 236 616 182 616 c 0
 128 616 93 584 93 534 c 0
 93 485 128 452 182 452 c 0
 238 452 276 485 276 534 c 0
EndSplineSet
EndChar

StartChar: onequarter
Encoding: 188 188 730
GlifName: onequarter
Width: 854
Flags: HW
LayerCount: 2
Fore
SplineSet
742 100 m 1
 742 0 l 1
 691 0 l 1
 691 100 l 1
 486 100 l 1
 486 159 l 1
 681 395 l 1
 742 395 l 1
 742 148 l 1
 818 148 l 1
 818 100 l 1
 742 100 l 1
691 148 m 1
 691 332 l 1
 541 148 l 1
 691 148 l 1
200 666 m 1
 251 666 l 1
 251 270 l 1
 200 270 l 1
 200 537 l 1
 87 537 l 1
 87 581 l 1
 131 581 l 2
 176 581 200 593 200 634 c 2
 200 666 l 1
536 666 m 1
 593 666 l 1
 318 0 l 1
 261 0 l 1
 536 666 l 1
EndSplineSet
EndChar

StartChar: onehalf
Encoding: 189 189 731
GlifName: onehalf
Width: 854
Flags: HW
LayerCount: 2
Fore
SplineSet
555 49 m 5
 811 49 l 5
 811 0 l 5
 502 0 l 5
 502 14 l 6
 502 118 589 148 663 177 c 4
 716 197 761 219 761 267 c 4
 761 318 726 348 666 348 c 4
 601 348 559 313 556 258 c 5
 502 258 l 5
 508 342 576 399 666 399 c 4
 755 399 815 345 815 263 c 4
 815 195 749 161 683 133 c 4
 618 106 564 86 555 49 c 5
200 666 m 1
 251 666 l 1
 251 270 l 1
 200 270 l 1
 200 537 l 1
 87 537 l 1
 87 581 l 1
 131 581 l 2
 176 581 200 593 200 634 c 2
 200 666 l 1
536 666 m 1
 593 666 l 1
 318 0 l 1
 261 0 l 1
 536 666 l 1
EndSplineSet
EndChar

StartChar: threequarters
Encoding: 190 190 732
GlifName: threequarters
Width: 854
Flags: HW
LayerCount: 2
Fore
SplineSet
271 490 m 1
 271 439 l 1
 166 439 l 1
 166 490 l 1
 271 490 l 1
227 450 m 1
 227 490 l 1
 264 490 286 511 286 547 c 0
 286 593 251 620 191 620 c 0
 135 620 98 592 96 549 c 1
 42 549 l 1
 48 621 108 671 191 671 c 0
 280 671 340 622 340 547 c 0
 340 489 294 450 227 450 c 1
227 480 m 1
 301 480 350 440 350 379 c 0
 350 309 288 262 195 262 c 0
 107 262 42 309 36 377 c 1
 90 377 l 1
 93 338 134 313 195 313 c 0
 259 313 296 337 296 379 c 0
 296 418 271 439 227 439 c 1
 227 480 l 1
742 100 m 1
 742 0 l 1
 691 0 l 1
 691 100 l 1
 486 100 l 1
 486 159 l 1
 681 395 l 1
 742 395 l 1
 742 148 l 1
 818 148 l 1
 818 100 l 1
 742 100 l 1
691 148 m 1
 691 332 l 1
 541 148 l 1
 691 148 l 1
536 666 m 1
 593 666 l 1
 318 0 l 1
 261 0 l 1
 536 666 l 1
EndSplineSet
EndChar

StartChar: section
Encoding: 167 167 733
GlifName: section
Width: 501
Flags: HW
LayerCount: 2
Fore
SplineSet
215 472 m 2
 292 462 l 2
 402 447 451 410 451 341 c 0
 451 265 390 218 291 218 c 1
 291 249 l 1
 357 249 399 281 399 332 c 0
 399 376 369 398 288 409 c 2
 211 419 l 2
 105 434 56 472 56 541 c 0
 56 624 126 676 238 676 c 0
 362 676 444 618 456 524 c 1
 400 524 l 1
 387 592 336 626 243 626 c 0
 159 626 108 595 108 545 c 0
 108 505 140 483 215 472 c 2
287 196 m 2
 210 206 l 2
 101 221 51 257 51 325 c 0
 51 399 111 443 211 443 c 1
 211 419 l 1
 145 419 102 386 102 335 c 0
 102 291 133 270 214 259 c 2
 291 249 l 2
 397 234 445 195 445 126 c 4
 445 43 376 -8 264 -8 c 0
 140 -8 58 49 46 143 c 1
 101 143 l 1
 114 75 166 42 259 42 c 0
 343 42 394 72 394 122 c 4
 394 162 362 185 287 196 c 2
EndSplineSet
EndChar

StartChar: guillemotleft
Encoding: 171 171 734
GlifName: guillemotleft
Width: 583
Flags: HW
LayerCount: 2
Fore
SplineSet
548 512 m 1
 548 439 l 1
 351 274 l 1
 548 105 l 1
 548 41 l 1
 302 248 l 1
 302 305 l 1
 548 512 l 1
282 512 m 1
 282 439 l 1
 85 274 l 1
 282 105 l 1
 282 41 l 1
 36 248 l 1
 36 305 l 1
 282 512 l 1
EndSplineSet
EndChar

StartChar: guillemotright
Encoding: 187 187 735
GlifName: guillemotright
Width: 583
Flags: HW
LayerCount: 2
Fore
SplineSet
36 41 m 1
 36 114 l 1
 232 279 l 1
 36 447 l 1
 36 512 l 1
 282 305 l 1
 282 248 l 1
 36 41 l 1
302 41 m 1
 302 114 l 1
 499 279 l 1
 302 447 l 1
 302 512 l 1
 548 305 l 1
 548 248 l 1
 302 41 l 1
EndSplineSet
EndChar

StartChar: plusminus
Encoding: 177 177 736
GlifName: plusminus
Width: 559
Flags: HW
LayerCount: 2
Fore
SplineSet
523 0 m 1
 523 -49 l 1
 36 -49 l 1
 36 0 l 1
 523 0 l 1
304 307 m 1
 523 307 l 1
 523 258 l 1
 304 258 l 1
 304 39 l 1
 255 39 l 1
 255 258 l 1
 36 258 l 1
 36 307 l 1
 255 307 l 1
 255 526 l 1
 304 526 l 1
 304 307 l 1
EndSplineSet
EndChar

StartChar: dieresis
Encoding: 168 168 737
GlifName: dieresis
Width: 340
Flags: HW
LayerCount: 2
Fore
SplineSet
240 584 m 1
 305 584 l 1
 305 512 l 1
 240 512 l 1
 240 584 l 1
36 584 m 1
 101 584 l 1
 101 512 l 1
 36 512 l 1
 36 584 l 1
EndSplineSet
EndChar

StartChar: copyright
Encoding: 169 169 738
GlifName: copyright
Width: 844
Flags: HW
LayerCount: 2
Fore
SplineSet
228 332 m 0
 228 460 305 545 420 545 c 0
 522 545 596 478 604 380 c 5
 550 380 l 5
 547 449 496 494 420 494 c 0
 332 494 283 435 283 332 c 0
 283 228 333 168 420 168 c 0
 496 168 546 208 550 272 c 5
 604 272 l 5
 595 178 522 117 420 117 c 0
 305 117 228 203 228 332 c 0
417 3 m 0
 612 3 744 137 744 334 c 0
 744 529 615 660 422 660 c 0
 229 660 100 528 100 329 c 0
 100 132 226 3 417 3 c 0
799 333 m 0
 799 105 643 -51 417 -51 c 0
 194 -51 46 98 46 322 c 0
 46 553 201 715 424 715 c 0
 645 715 799 558 799 333 c 0
EndSplineSet
EndChar

StartChar: ordfeminine
Encoding: 170 170 739
GlifName: ordfeminine
Width: 435
Flags: HW
LayerCount: 2
Fore
SplineSet
381 382 m 2
 381 336 385 298 393 271 c 1
 340 271 l 5
 333 301 330 334 330 374 c 2
 330 535 l 2
 330 583 283 620 224 620 c 0
 151 620 112 593 105 540 c 1
 50 540 l 1
 56 620 123 671 223 671 c 0
 313 671 381 612 381 534 c 2
 381 382 l 2
366 435 m 1
 366 338 289 261 194 261 c 0
 107 261 46 310 46 380 c 0
 46 442 88 483 152 487 c 2
 276 496 l 2
 314 499 330 508 330 532 c 1
 331 450 l 1
 167 438 l 2
 120 435 99 416 99 380 c 0
 99 338 137 312 195 312 c 0
 273 312 330 364 330 435 c 1
 366 435 l 1
EndSplineSet
Substitution2: "'ss01' Style Set 1 in Latin lookup 0-1" ordfeminine.ss01
EndChar

StartChar: logicalnot
Encoding: 172 172 740
GlifName: logicalnot
Width: 524
Flags: HW
LayerCount: 2
Fore
SplineSet
437 258 m 1
 36 258 l 1
 36 307 l 1
 488 307 l 1
 488 137 l 1
 437 137 l 1
 437 258 l 1
EndSplineSet
EndChar

StartChar: uni00AD
Encoding: 173 173 741
GlifName: uni00A_D_
Width: 387
Flags: HW
LayerCount: 2
Fore
SplineSet
36 307 m 1
 351 307 l 1
 351 258 l 1
 36 258 l 1
 36 307 l 1
EndSplineSet
EndChar

StartChar: registered
Encoding: 174 174 742
GlifName: registered
Width: 844
Flags: HW
LayerCount: 2
Fore
SplineSet
449 290 m 1
 482 310 l 1
 557 310 586 287 594 219 c 2
 604 136 l 1
 553 136 l 1
 544 212 l 2
 538 267 510 290 449 290 c 1
472 485 m 2
 323 485 l 1
 323 339 l 1
 472 339 l 2
 521 339 550 368 550 418 c 0
 550 461 521 485 472 485 c 2
482 300 m 1
 474 290 l 1
 323 290 l 1
 323 136 l 1
 271 136 l 1
 271 535 l 1
 477 535 l 2
 553 535 604 488 604 418 c 0
 604 347 555 300 482 300 c 1
417 3 m 0
 612 3 744 137 744 334 c 0
 744 529 615 660 422 660 c 0
 229 660 100 528 100 329 c 0
 100 132 226 3 417 3 c 0
799 333 m 0
 799 105 643 -51 417 -51 c 0
 194 -51 46 98 46 322 c 0
 46 553 201 715 424 715 c 0
 645 715 799 558 799 333 c 0
EndSplineSet
EndChar

StartChar: macron
Encoding: 175 175 743
GlifName: macron
Width: 378
Flags: HW
LayerCount: 2
Fore
SplineSet
36 580 m 1
 343 580 l 1
 343 532 l 1
 36 532 l 1
 36 580 l 1
EndSplineSet
EndChar

StartChar: acute
Encoding: 180 180 744
GlifName: acute
Width: 250
Flags: HW
LayerCount: 2
Fore
SplineSet
215 666 m 1
 80 512 l 1
 36 512 l 1
 151 666 l 1
 215 666 l 1
EndSplineSet
EndChar

StartChar: mu
Encoding: 181 181 745
GlifName: mu
Width: 514
Flags: HW
LayerCount: 2
Fore
SplineSet
56 512 m 1
 108 512 l 1
 108 -167 l 1
 56 -167 l 1
 56 512 l 1
108 205 m 1
 108 90 165 41 253 41 c 0
 340 41 407 107 407 199 c 1
 436 193 l 1
 436 67 335 -10 243 -10 c 0
 140 -10 67 63 67 195 c 1
 108 205 l 1
458 0 m 1
 407 0 l 1
 407 512 l 1
 458 512 l 1
 458 0 l 1
EndSplineSet
EndChar

StartChar: paragraph
Encoding: 182 182 746
GlifName: paragraph
Width: 479
Flags: HW
LayerCount: 2
Fore
SplineSet
239 340 m 5
 117 340 36 406 36 504 c 0
 36 601 117 666 239 666 c 6
 423 666 l 5
 423 0 l 5
 372 0 l 5
 372 616 l 5
 290 616 l 5
 290 0 l 5
 239 0 l 5
 239 340 l 5
EndSplineSet
EndChar

StartChar: cedilla
Encoding: 184 184 747
GlifName: cedilla
Width: 292
Flags: HW
LayerCount: 2
Fore
SplineSet
100 10 m 1
 146 10 l 1
 137 -56 l 1
 153 -56 l 2
 215 -56 257 -98 257 -160 c 0
 257 -229 206 -272 127 -272 c 2
 36 -272 l 1
 36 -221 l 1
 119 -221 l 2
 174 -221 203 -199 203 -158 c 0
 203 -126 181 -108 145 -108 c 2
 111 -108 l 1
 86 -77 l 1
 100 10 l 1
EndSplineSet
EndChar

StartChar: ordmasculine
Encoding: 186 186 748
GlifName: ordmasculine
Width: 435
Flags: HW
LayerCount: 2
Fore
SplineSet
36 467 m 0
 36 589 108 670 218 670 c 0
 327 670 399 589 399 467 c 0
 399 344 327 262 218 262 c 0
 108 262 36 344 36 467 c 0
345 467 m 0
 345 563 299 618 218 618 c 0
 138 618 90 563 90 467 c 0
 90 370 138 313 218 313 c 0
 299 313 345 370 345 467 c 0
EndSplineSet
EndChar

StartChar: ordfeminine.ss01
Encoding: 65756 -1 749
GlifName: ordfeminine.ss01
Width: 435
Flags: HW
LayerCount: 2
Fore
SplineSet
345 666 m 1
 396 666 l 1
 396 271 l 1
 345 271 l 1
 345 666 l 1
36 467 m 0
 36 589 107 670 214 670 c 4
 313 670 379 589 379 467 c 0
 379 344 313 262 214 262 c 4
 107 262 36 344 36 467 c 0
345 467 m 0
 345 563 299 618 218 618 c 0
 138 618 90 563 90 467 c 0
 90 370 138 313 218 313 c 0
 299 313 345 370 345 467 c 0
EndSplineSet
EndChar

StartChar: arrowleft
Encoding: 8592 8592 750
GlifName: arrowleft
Width: 798
Flags: HW
LayerCount: 2
Fore
SplineSet
86 321 m 1
 86 371 l 1
 753 372 l 1
 753 321 l 1
 86 321 l 1
46 346 m 5
 237 536 l 5
 271 501 l 5
 116 346 l 5
 271 190 l 5
 237 156 l 5
 46 346 l 5
EndSplineSet
EndChar

StartChar: uni2196
Encoding: 8598 8598 751
GlifName: uni2196
Width: 609
Flags: HW
LayerCount: 2
Fore
SplineSet
56 558 m 1
 92 594 l 1
 563 124 l 1
 527 87 l 1
 56 558 l 1
46 604 m 1
 314 604 l 1
 314 555 l 1
 95 555 l 1
 95 336 l 1
 46 336 l 1
 46 604 l 1
EndSplineSet
EndChar

StartChar: uni2197
Encoding: 8599 8599 752
GlifName: uni2197
Width: 609
Flags: HW
LayerCount: 2
Fore
SplineSet
517 594 m 1
 553 558 l 1
 83 87 l 1
 46 123 l 1
 517 594 l 1
563 604 m 1
 563 336 l 1
 514 336 l 1
 514 555 l 1
 295 555 l 1
 295 604 l 1
 563 604 l 1
EndSplineSet
EndChar

StartChar: uni2198
Encoding: 8600 8600 753
GlifName: uni2198
Width: 609
Flags: HW
LayerCount: 2
Fore
SplineSet
553 133 m 1
 517 97 l 1
 46 567 l 1
 82 604 l 1
 553 133 l 1
563 87 m 1
 295 87 l 1
 295 136 l 1
 514 136 l 1
 514 355 l 1
 563 355 l 1
 563 87 l 1
EndSplineSet
EndChar

StartChar: uni2199
Encoding: 8601 8601 754
GlifName: uni2199
Width: 609
Flags: HW
LayerCount: 2
Fore
SplineSet
92 97 m 1
 56 133 l 1
 526 604 l 1
 563 568 l 1
 92 97 l 1
46 87 m 1
 46 355 l 1
 95 355 l 1
 95 136 l 1
 314 136 l 1
 314 87 l 1
 46 87 l 1
EndSplineSet
EndChar

StartChar: arrowup
Encoding: 8593 8593 755
GlifName: arrowup
Width: 472
Flags: HW
LayerCount: 2
Fore
SplineSet
211 659 m 1
 261 659 l 1
 262 -8 l 5
 211 -8 l 1
 211 659 l 1
237 699 m 1
 426 508 l 1
 391 474 l 1
 237 629 l 1
 81 474 l 1
 46 508 l 1
 237 699 l 1
EndSplineSet
EndChar

StartChar: arrowright
Encoding: 8594 8594 756
GlifName: arrowright
Width: 798
Flags: HW
LayerCount: 2
Fore
SplineSet
713 371 m 1
 713 321 l 1
 46 319 l 5
 46 371 l 1
 713 371 l 1
753 345 m 1
 562 156 l 1
 527 190 l 1
 683 345 l 1
 527 501 l 1
 562 536 l 1
 753 345 l 1
EndSplineSet
EndChar

StartChar: arrowdown
Encoding: 8595 8595 757
GlifName: arrowdown
Width: 472
Flags: HW
LayerCount: 2
Fore
SplineSet
261 32 m 1
 211 32 l 1
 210 699 l 5
 261 699 l 1
 261 32 l 1
236 -8 m 1
 46 183 l 1
 81 218 l 1
 236 62 l 1
 391 218 l 1
 426 183 l 1
 236 -8 l 1
EndSplineSet
EndChar

StartChar: arrowboth
Encoding: 8596 8596 758
GlifName: arrowboth
Width: 798
Flags: HW
LayerCount: 2
Fore
SplineSet
753 345 m 1
 562 156 l 1
 527 190 l 1
 683 345 l 1
 527 501 l 1
 562 536 l 1
 753 345 l 1
86 321 m 1
 86 371 l 1
 713 371 l 1
 714 321 l 1
 86 321 l 1
46 346 m 1
 237 536 l 1
 271 501 l 1
 116 346 l 1
 271 190 l 1
 237 156 l 1
 46 346 l 1
EndSplineSet
EndChar

StartChar: arrowupdn
Encoding: 8597 8597 759
GlifName: arrowupdn
Width: 472
Flags: HW
LayerCount: 2
Fore
SplineSet
236 -8 m 1
 46 183 l 1
 81 218 l 1
 236 62 l 1
 391 218 l 1
 426 183 l 1
 236 -8 l 1
211 659 m 1
 261 659 l 1
 261 32 l 1
 211 31 l 1
 211 659 l 1
237 699 m 1
 426 508 l 1
 391 474 l 1
 237 629 l 1
 81 474 l 1
 46 508 l 1
 237 699 l 1
EndSplineSet
EndChar

StartChar: arrowdblleft
Encoding: 8656 8656 760
GlifName: arrowdblleft
Width: 798
Flags: HW
LayerCount: 2
Fore
SplineSet
154 249 m 1
 154 299 l 1
 752 300 l 1
 752 249 l 5
 154 249 l 1
154 392 m 1
 154 442 l 1
 753 443 l 1
 753 392 l 1
 154 392 l 1
46 346 m 1
 237 536 l 1
 271 501 l 1
 116 346 l 1
 271 190 l 1
 237 156 l 1
 46 346 l 1
EndSplineSet
EndChar

StartChar: arrowdblup
Encoding: 8657 8657 761
GlifName: arrowdblup
Width: 472
Flags: HW
LayerCount: 2
Fore
SplineSet
139 591 m 1
 189 591 l 1
 190 -7 l 1
 139 -7 l 1
 139 591 l 1
283 591 m 1
 333 591 l 1
 334 -7 l 1
 283 -7 l 5
 283 591 l 1
237 699 m 1
 426 508 l 1
 391 474 l 1
 237 629 l 1
 81 474 l 1
 46 508 l 1
 237 699 l 1
EndSplineSet
EndChar

StartChar: arrowdblright
Encoding: 8658 8658 762
GlifName: arrowdblright
Width: 798
Flags: HW
LayerCount: 2
Fore
SplineSet
645 442 m 1
 645 392 l 1
 47 391 l 1
 47 442 l 5
 645 442 l 1
645 299 m 1
 645 249 l 1
 46 248 l 1
 46 299 l 1
 645 299 l 1
753 345 m 1
 562 156 l 1
 527 190 l 1
 683 345 l 1
 527 501 l 1
 562 536 l 1
 753 345 l 1
EndSplineSet
EndChar

StartChar: arrowdbldown
Encoding: 8659 8659 763
GlifName: arrowdbldown
Width: 472
Flags: HW
LayerCount: 2
Fore
SplineSet
333 101 m 1
 283 101 l 1
 282 699 l 1
 333 699 l 1
 333 101 l 1
189 101 m 1
 139 101 l 1
 138 699 l 1
 189 699 l 5
 189 101 l 1
236 -7 m 1
 46 184 l 1
 81 219 l 1
 236 63 l 1
 391 219 l 1
 426 184 l 1
 236 -7 l 1
EndSplineSet
EndChar

StartChar: arrowdblboth
Encoding: 8660 8660 764
GlifName: arrowdblboth
Width: 798
Flags: HW
LayerCount: 2
Fore
SplineSet
753 345 m 1
 562 156 l 1
 527 190 l 1
 683 345 l 1
 527 501 l 1
 562 536 l 1
 753 345 l 1
154 249 m 1
 154 299 l 1
 645 300 l 1
 645 249 l 1
 154 249 l 1
154 392 m 1
 154 442 l 1
 645 443 l 1
 645 392 l 1
 154 392 l 1
46 346 m 1
 237 536 l 1
 271 501 l 1
 116 346 l 1
 271 190 l 1
 237 156 l 1
 46 346 l 1
EndSplineSet
EndChar

StartChar: uni21D5
Encoding: 8661 8661 765
GlifName: uni21D_5
Width: 472
Flags: HW
LayerCount: 2
Fore
SplineSet
236 -8 m 1
 46 183 l 1
 81 218 l 1
 236 62 l 1
 391 218 l 1
 426 183 l 1
 236 -8 l 1
139 591 m 1
 189 591 l 1
 190 100 l 1
 139 100 l 1
 139 591 l 1
283 591 m 1
 333 591 l 1
 334 100 l 1
 283 100 l 1
 283 591 l 1
237 699 m 1
 426 508 l 1
 391 474 l 1
 237 629 l 1
 81 474 l 1
 46 508 l 1
 237 699 l 1
EndSplineSet
EndChar

StartChar: uni21D6
Encoding: 8662 8662 766
GlifName: uni21D_6
Width: 660
Flags: HW
LayerCount: 2
Fore
SplineSet
53 451 m 1
 89 486 l 1
 513 65 l 1
 476 28 l 1
 53 451 l 1
155 552 m 1
 190 588 l 1
 614 165 l 1
 579 129 l 1
 155 552 l 1
46 596 m 1
 315 596 l 1
 315 547 l 1
 95 547 l 1
 95 327 l 1
 46 327 l 1
 46 596 l 1
EndSplineSet
EndChar

StartChar: uni21D7
Encoding: 8663 8663 767
GlifName: uni21D_7
Width: 660
Flags: HW
LayerCount: 2
Fore
SplineSet
469 589 m 1
 505 553 l 1
 83 129 l 1
 46 166 l 1
 469 589 l 1
570 487 m 1
 606 452 l 1
 183 28 l 1
 147 63 l 1
 570 487 l 1
614 596 m 1
 614 327 l 1
 565 327 l 1
 565 547 l 1
 345 547 l 1
 345 596 l 1
 614 596 l 1
EndSplineSet
EndChar

StartChar: uni21D8
Encoding: 8664 8664 768
GlifName: uni21D_8
Width: 660
Flags: HW
LayerCount: 2
Fore
SplineSet
607 173 m 1
 571 137 l 1
 147 559 l 1
 184 596 l 1
 607 173 l 1
506 72 m 1
 470 36 l 1
 46 459 l 1
 82 495 l 1
 506 72 l 1
614 28 m 1
 345 28 l 1
 345 77 l 1
 565 77 l 1
 565 297 l 1
 614 297 l 1
 614 28 l 1
EndSplineSet
EndChar

StartChar: uni21D9
Encoding: 8665 8665 769
GlifName: uni21D_9
Width: 660
Flags: HW
LayerCount: 2
Fore
SplineSet
191 35 m 1
 156 71 l 1
 578 495 l 1
 614 458 l 1
 191 35 l 1
90 136 m 1
 54 172 l 1
 477 596 l 1
 513 560 l 1
 90 136 l 1
46 28 m 1
 46 297 l 1
 95 297 l 1
 95 77 l 1
 315 77 l 1
 315 28 l 1
 46 28 l 1
EndSplineSet
EndChar

StartChar: uni21C4
Encoding: 8644 8644 770
GlifName: uni21C_4
Width: 798
Flags: HW
LayerCount: 2
Fore
SplineSet
86 177 m 5
 86 227 l 5
 753 228 l 5
 753 177 l 5
 86 177 l 5
46 203 m 5
 196 351 l 5
 230 316 l 5
 116 203 l 5
 230 88 l 5
 196 53 l 5
 46 203 l 5
713 483 m 1
 713 433 l 1
 46 432 l 1
 46 483 l 1
 713 483 l 1
753 458 m 1
 603 309 l 1
 568 344 l 1
 683 458 l 1
 568 572 l 1
 603 607 l 1
 753 458 l 1
EndSplineSet
EndChar

StartChar: uni21C5
Encoding: 8645 8645 771
GlifName: uni21C_5
Width: 798
Flags: HW
LayerCount: 2
Fore
SplineSet
246 644 m 5
 296 644 l 5
 297 -23 l 5
 246 -23 l 5
 246 644 l 5
272 684 m 5
 420 534 l 5
 386 499 l 5
 272 614 l 5
 157 499 l 5
 122 534 l 5
 272 684 l 5
552 17 m 1
 502 17 l 1
 501 684 l 1
 552 684 l 1
 552 17 l 1
527 -23 m 1
 378 126 l 1
 413 161 l 1
 527 47 l 1
 642 161 l 1
 676 126 l 1
 527 -23 l 1
EndSplineSet
EndChar

StartChar: uni21C6
Encoding: 8646 8646 772
GlifName: uni21C_6
Width: 798
Flags: HW
LayerCount: 2
Fore
SplineSet
713 177 m 1
 46 177 l 1
 46 228 l 1
 713 227 l 1
 713 177 l 1
753 203 m 1
 603 53 l 1
 568 88 l 1
 683 203 l 1
 568 316 l 1
 603 351 l 1
 753 203 l 1
86 483 m 1
 753 483 l 1
 753 432 l 1
 86 433 l 1
 86 483 l 1
46 458 m 1
 196 607 l 1
 230 572 l 1
 116 458 l 1
 230 344 l 1
 196 309 l 1
 46 458 l 1
EndSplineSet
EndChar

StartChar: uni21C7
Encoding: 8647 8647 773
GlifName: uni21C_7
Width: 798
Flags: HW
LayerCount: 2
Fore
SplineSet
86 465 m 5
 86 515 l 5
 753 516 l 5
 753 465 l 5
 86 465 l 5
46 490 m 5
 196 639 l 5
 230 604 l 5
 116 490 l 5
 230 376 l 5
 196 341 l 5
 46 490 l 5
86 157 m 5
 86 207 l 5
 753 208 l 5
 753 157 l 5
 86 157 l 5
46 182 m 5
 196 331 l 5
 230 296 l 5
 116 182 l 5
 230 68 l 5
 196 33 l 5
 46 182 l 5
EndSplineSet
EndChar

StartChar: uni21C8
Encoding: 8648 8648 774
GlifName: uni21C_8
Width: 698
Flags: HW
LayerCount: 2
Fore
SplineSet
478 649 m 5
 528 649 l 5
 529 -17 l 5
 478 -17 l 5
 478 649 l 5
504 689 m 5
 652 540 l 5
 617 505 l 5
 504 620 l 5
 389 505 l 5
 354 540 l 5
 504 689 l 5
170 649 m 5
 220 649 l 5
 221 -17 l 5
 170 -17 l 5
 170 649 l 5
196 689 m 5
 344 540 l 5
 309 505 l 5
 196 620 l 5
 81 505 l 5
 46 540 l 5
 196 689 l 5
EndSplineSet
EndChar

StartChar: uni21C9
Encoding: 8649 8649 775
GlifName: uni21C_9
Width: 798
Flags: HW
LayerCount: 2
Fore
SplineSet
713 207 m 5
 713 157 l 5
 46 156 l 5
 46 207 l 5
 713 207 l 5
753 181 m 5
 603 33 l 5
 568 68 l 5
 683 181 l 5
 568 296 l 5
 603 331 l 5
 753 181 l 5
713 515 m 5
 713 465 l 5
 46 464 l 5
 46 515 l 5
 713 515 l 5
753 489 m 5
 603 341 l 5
 568 376 l 5
 683 489 l 5
 568 604 l 5
 603 639 l 5
 753 489 l 5
EndSplineSet
EndChar

StartChar: uni21CA
Encoding: 8650 8650 776
GlifName: uni21C_A_
Width: 698
Flags: HW
LayerCount: 2
Fore
SplineSet
220 23 m 1
 170 23 l 1
 169 689 l 1
 220 689 l 1
 220 23 l 1
195 -17 m 1
 46 132 l 1
 81 167 l 1
 195 52 l 1
 309 167 l 1
 344 132 l 1
 195 -17 l 1
528 23 m 1
 478 23 l 1
 477 689 l 1
 528 689 l 1
 528 23 l 1
503 -17 m 1
 354 132 l 1
 389 167 l 1
 503 52 l 1
 617 167 l 1
 652 132 l 1
 503 -17 l 1
EndSplineSet
EndChar

StartChar: uni21CB
Encoding: 8651 8651 777
GlifName: uni21C_B_
Width: 798
Flags: HW
LayerCount: 2
Fore
SplineSet
141 453 m 1
 753 453 l 1
 753 401 l 1
 46 402 l 1
 46 427 l 1
 196 577 l 1
 230 542 l 1
 141 453 l 1
657 218 m 1
 46 218 l 1
 46 269 l 1
 753 268 l 1
 753 244 l 1
 603 94 l 1
 568 129 l 1
 657 218 l 1
EndSplineSet
EndChar

StartChar: uni21CC
Encoding: 8652 8652 778
GlifName: uni21C_C_
Width: 798
Flags: HW
LayerCount: 2
Fore
SplineSet
657 453 m 1
 568 542 l 1
 603 577 l 1
 753 427 l 1
 753 402 l 1
 46 401 l 1
 46 453 l 1
 657 453 l 1
141 218 m 1
 230 129 l 1
 196 94 l 1
 46 244 l 1
 46 268 l 1
 753 269 l 1
 753 218 l 1
 141 218 l 1
EndSplineSet
EndChar

StartChar: uni21CD
Encoding: 8653 8653 779
GlifName: uni21C_D_
Width: 798
Flags: HW
LayerCount: 2
Fore
SplineSet
542 597 m 5
 595 597 l 5
 423 75 l 5
 370 75 l 5
 542 597 l 5
154 249 m 1
 154 299 l 1
 752 300 l 1
 752 249 l 1
 154 249 l 1
154 392 m 1
 154 442 l 1
 753 443 l 1
 753 392 l 1
 154 392 l 1
46 346 m 1
 237 536 l 1
 271 501 l 1
 116 346 l 1
 271 190 l 1
 237 156 l 1
 46 346 l 1
EndSplineSet
EndChar

StartChar: uni21CE
Encoding: 8654 8654 780
GlifName: uni21C_E_
Width: 798
Flags: HW
LayerCount: 2
Fore
SplineSet
454 597 m 5
 507 597 l 5
 335 75 l 5
 282 75 l 5
 454 597 l 5
753 345 m 1
 562 156 l 1
 527 190 l 1
 683 345 l 1
 527 501 l 1
 562 536 l 1
 753 345 l 1
154 249 m 1
 154 299 l 1
 645 300 l 1
 645 249 l 1
 154 249 l 1
154 392 m 1
 154 442 l 1
 645 443 l 1
 645 392 l 1
 154 392 l 1
46 346 m 1
 237 536 l 1
 271 501 l 1
 116 346 l 1
 271 190 l 1
 237 156 l 1
 46 346 l 1
EndSplineSet
EndChar

StartChar: uni21CF
Encoding: 8655 8655 781
GlifName: uni21C_F_
Width: 798
Flags: HW
LayerCount: 2
Fore
SplineSet
381 597 m 5
 434 597 l 5
 262 75 l 5
 209 75 l 5
 381 597 l 5
645 442 m 1
 645 392 l 1
 47 391 l 1
 47 442 l 1
 645 442 l 1
645 299 m 1
 645 249 l 1
 46 248 l 1
 46 299 l 1
 645 299 l 1
753 345 m 1
 562 156 l 1
 527 190 l 1
 683 345 l 1
 527 501 l 1
 562 536 l 1
 753 345 l 1
EndSplineSet
EndChar

StartChar: uni21B4
Encoding: 8628 8628 782
GlifName: uni21B_4
Width: 781
Flags: HW
LayerCount: 2
Fore
SplineSet
545 70 m 5
 355 261 l 5
 390 295 l 5
 545 140 l 5
 700 295 l 5
 735 261 l 5
 545 70 l 5
570 110 m 5
 520 110 l 5
 519 492 l 5
 46 492 l 5
 46 541 l 5
 570 541 l 5
 570 110 l 5
EndSplineSet
EndChar

StartChar: carriagereturn
Encoding: 8629 8629 783
GlifName: carriagereturn
Width: 563
Flags: HW
LayerCount: 2
Fore
SplineSet
46 208 m 5
 237 397 l 5
 271 362 l 5
 116 208 l 5
 271 52 l 5
 237 17 l 5
 46 208 l 5
85 182 m 5
 85 232 l 5
 468 233 l 5
 468 707 l 5
 517 707 l 5
 517 182 l 5
 85 182 l 5
EndSplineSet
EndChar

StartChar: uni219A
Encoding: 8602 8602 784
GlifName: uni219A_
Width: 798
Flags: HW
LayerCount: 2
Fore
SplineSet
542 597 m 5
 595 597 l 5
 423 75 l 5
 370 75 l 5
 542 597 l 5
86 321 m 1
 86 371 l 1
 753 372 l 1
 753 321 l 1
 86 321 l 1
46 346 m 1
 237 536 l 1
 271 501 l 1
 116 346 l 1
 271 190 l 1
 237 156 l 1
 46 346 l 1
EndSplineSet
EndChar

StartChar: uni219B
Encoding: 8603 8603 785
GlifName: uni219B_
Width: 798
Flags: HW
LayerCount: 2
Fore
SplineSet
381 597 m 1
 434 597 l 1
 262 75 l 1
 209 75 l 1
 381 597 l 1
713 371 m 1
 713 321 l 1
 46 319 l 1
 46 371 l 1
 713 371 l 1
753 345 m 1
 562 156 l 1
 527 190 l 1
 683 345 l 1
 527 501 l 1
 562 536 l 1
 753 345 l 1
EndSplineSet
EndChar

StartChar: uni219E
Encoding: 8606 8606 786
GlifName: uni219E_
Width: 798
Flags: HW
LayerCount: 2
Fore
SplineSet
220 346 m 5
 411 536 l 5
 445 501 l 5
 290 346 l 5
 445 190 l 5
 411 156 l 5
 220 346 l 5
86 321 m 1
 86 371 l 1
 753 372 l 1
 753 321 l 1
 86 321 l 1
46 346 m 1
 237 536 l 1
 271 501 l 1
 116 346 l 1
 271 190 l 1
 237 156 l 1
 46 346 l 1
EndSplineSet
EndChar

StartChar: uni219F
Encoding: 8607 8607 787
GlifName: uni219F_
Width: 472
Flags: HW
LayerCount: 2
Fore
SplineSet
237 524 m 5
 426 334 l 5
 391 299 l 5
 237 455 l 5
 81 299 l 5
 46 334 l 5
 237 524 l 5
211 659 m 1
 261 659 l 1
 262 -8 l 1
 211 -8 l 1
 211 659 l 1
237 698 m 1
 426 508 l 1
 391 473 l 1
 237 629 l 1
 81 473 l 1
 46 508 l 1
 237 698 l 1
EndSplineSet
EndChar

StartChar: uni21A0
Encoding: 8608 8608 788
GlifName: uni21A_0
Width: 798
Flags: HW
LayerCount: 2
Fore
SplineSet
579 345 m 5
 388 156 l 5
 353 190 l 5
 509 345 l 5
 353 501 l 5
 388 536 l 5
 579 345 l 5
713 371 m 1
 713 321 l 1
 46 319 l 1
 46 371 l 1
 713 371 l 1
753 345 m 1
 562 156 l 1
 527 190 l 1
 683 345 l 1
 527 501 l 1
 562 536 l 1
 753 345 l 1
EndSplineSet
EndChar

StartChar: uni21A1
Encoding: 8609 8609 789
GlifName: uni21A_1
Width: 472
Flags: HW
LayerCount: 2
Fore
SplineSet
236 166 m 5
 46 356 l 5
 81 391 l 5
 236 236 l 5
 391 391 l 5
 426 356 l 5
 236 166 l 5
261 33 m 1
 211 33 l 1
 210 698 l 1
 261 698 l 1
 261 33 l 1
236 -8 m 1
 46 182 l 1
 81 217 l 1
 236 61 l 1
 391 217 l 1
 426 182 l 1
 236 -8 l 1
EndSplineSet
EndChar

StartChar: uni21A2
Encoding: 8610 8610 790
GlifName: uni21A_2
Width: 798
Flags: HW
LayerCount: 2
Fore
SplineSet
527 346 m 1
 718 536 l 1
 753 501 l 1
 597 346 l 1
 753 190 l 1
 718 156 l 1
 527 346 l 1
86 321 m 1
 86 371 l 1
 579 372 l 5
 579 321 l 5
 86 321 l 1
46 346 m 1
 237 536 l 1
 271 501 l 1
 116 346 l 1
 271 190 l 1
 237 156 l 1
 46 346 l 1
EndSplineSet
EndChar

StartChar: uni21A3
Encoding: 8611 8611 791
GlifName: uni21A_3
Width: 798
Flags: HW
LayerCount: 2
Fore
SplineSet
271 345 m 1
 81 156 l 1
 46 190 l 1
 202 345 l 1
 46 501 l 1
 81 536 l 1
 271 345 l 1
713 371 m 1
 713 321 l 1
 220 319 l 5
 220 371 l 5
 713 371 l 1
753 345 m 1
 562 156 l 1
 527 190 l 1
 683 345 l 1
 527 501 l 1
 562 536 l 1
 753 345 l 1
EndSplineSet
EndChar

StartChar: uni21A4
Encoding: 8612 8612 792
GlifName: uni21A_4
Width: 798
Flags: HW
LayerCount: 2
Fore
SplineSet
701 536 m 5
 753 536 l 5
 753 156 l 5
 701 156 l 5
 701 536 l 5
86 321 m 1
 86 371 l 1
 732 372 l 1
 732 321 l 1
 86 321 l 1
46 346 m 1
 237 536 l 1
 271 501 l 1
 116 346 l 1
 271 190 l 1
 237 156 l 1
 46 346 l 1
EndSplineSet
EndChar

StartChar: uni21A6
Encoding: 8614 8614 793
GlifName: uni21A_6
Width: 798
Flags: HW
LayerCount: 2
Fore
SplineSet
97 156 m 5
 46 156 l 5
 46 536 l 5
 97 536 l 5
 97 156 l 5
713 371 m 1
 713 321 l 1
 67 319 l 1
 67 371 l 1
 713 371 l 1
753 345 m 1
 562 156 l 1
 527 190 l 1
 683 345 l 1
 527 501 l 1
 562 536 l 1
 753 345 l 1
EndSplineSet
EndChar

StartChar: uni21A5
Encoding: 8613 8613 794
GlifName: uni21A_5
Width: 473
Flags: HW
LayerCount: 2
Fore
SplineSet
427 43 m 5
 427 -8 l 5
 46 -8 l 5
 46 43 l 5
 427 43 l 5
212 659 m 1
 261 659 l 1
 263 12 l 1
 212 12 l 1
 212 659 l 1
237 698 m 1
 427 508 l 1
 392 473 l 1
 237 629 l 1
 81 473 l 1
 46 508 l 1
 237 698 l 1
EndSplineSet
EndChar

StartChar: uni21A7
Encoding: 8615 8615 795
GlifName: uni21A_7
Width: 473
Flags: HW
LayerCount: 2
Fore
SplineSet
46 647 m 1
 46 698 l 1
 427 698 l 1
 427 647 l 1
 46 647 l 1
261 33 m 1
 212 33 l 1
 210 678 l 5
 261 678 l 5
 261 33 l 1
237 -8 m 1
 46 182 l 1
 81 217 l 1
 237 61 l 1
 392 217 l 1
 427 182 l 1
 237 -8 l 1
EndSplineSet
EndChar

StartChar: arrowupdnbse
Encoding: 8616 8616 796
GlifName: arrowupdnbse
Width: 472
Flags: HW
LayerCount: 2
Fore
SplineSet
237 699 m 1
 426 508 l 1
 391 474 l 1
 261 605 l 1
 261 88 l 1
 391 218 l 1
 426 183 l 1
 286 43 l 1
 427 43 l 1
 427 -8 l 1
 46 -8 l 1
 46 43 l 1
 185 43 l 1
 46 183 l 1
 81 218 l 1
 211 87 l 1
 211 604 l 1
 81 474 l 1
 46 508 l 1
 237 699 l 1
EndSplineSet
EndChar

StartChar: uni219C
Encoding: 8604 8604 797
GlifName: uni219C_
Width: 839
Flags: HW
LayerCount: 2
Fore
SplineSet
160 480 m 1
 402 367 l 1
 382 323 l 1
 183 415 l 1
 90 216 l 1
 46 238 l 1
 160 480 l 1
642 348 m 0
 735 348 794 270 794 143 c 1
 748 143 l 1
 748 239 706 303 644 303 c 0
 586 303 548 259 499 219 c 0
 456 183 416 139 339 139 c 0
 231 139 190 228 162 426 c 1
 206 426 l 1
 233 255 259 184 339 184 c 0
 395 184 431 223 473 262 c 0
 517 301 562 348 642 348 c 0
EndSplineSet
EndChar

StartChar: uni219D
Encoding: 8605 8605 798
GlifName: uni219D_
Width: 839
Flags: HW
LayerCount: 2
Fore
SplineSet
680 480 m 1
 794 238 l 1
 750 216 l 1
 656 415 l 1
 458 323 l 1
 437 367 l 1
 680 480 l 1
198 348 m 0
 278 348 323 301 367 262 c 0
 409 223 445 184 501 184 c 0
 581 184 607 255 634 426 c 1
 678 426 l 1
 650 228 609 139 501 139 c 0
 424 139 384 183 341 219 c 0
 292 259 254 303 196 303 c 0
 134 303 92 239 92 143 c 1
 46 143 l 1
 46 270 105 348 198 348 c 0
EndSplineSet
EndChar

StartChar: uni21AE
Encoding: 8622 8622 799
GlifName: uni21A_E_
Width: 798
Flags: HW
LayerCount: 2
Fore
SplineSet
454 597 m 1
 507 597 l 1
 335 75 l 1
 282 75 l 1
 454 597 l 1
753 345 m 1
 562 156 l 1
 527 190 l 1
 683 345 l 1
 527 501 l 1
 562 536 l 1
 753 345 l 1
86 321 m 1
 86 371 l 1
 713 371 l 1
 714 321 l 1
 86 321 l 1
46 346 m 1
 237 536 l 1
 271 501 l 1
 116 346 l 1
 271 190 l 1
 237 156 l 1
 46 346 l 1
EndSplineSet
EndChar

StartChar: uni21B2
Encoding: 8626 8626 800
GlifName: uni21B_2
Width: 450
Flags: HW
LayerCount: 2
Fore
SplineSet
46 208 m 1
 216 377 l 1
 251 342 l 1
 116 208 l 1
 251 73 l 1
 216 38 l 1
 46 208 l 1
85 182 m 1
 85 232 l 1
 355 233 l 1
 355 707 l 1
 404 707 l 1
 404 182 l 1
 85 182 l 1
EndSplineSet
EndChar

StartChar: uni21B0
Encoding: 8624 8624 801
GlifName: uni21B_0
Width: 450
Flags: HW
LayerCount: 2
Fore
SplineSet
404 537 m 1
 234 368 l 1
 200 402 l 1
 335 537 l 1
 200 672 l 1
 234 707 l 1
 404 537 l 1
366 562 m 1
 366 512 l 1
 95 511 l 1
 95 38 l 1
 46 38 l 1
 46 562 l 1
 366 562 l 1
EndSplineSet
EndChar

StartChar: uni21B1
Encoding: 8625 8625 802
GlifName: uni21B_1
Width: 450
Flags: HW
LayerCount: 2
Fore
SplineSet
46 537 m 1
 216 707 l 1
 251 672 l 1
 116 537 l 1
 251 402 l 1
 216 368 l 1
 46 537 l 1
85 562 m 1
 404 562 l 1
 404 38 l 1
 355 38 l 1
 355 511 l 1
 85 512 l 1
 85 562 l 1
EndSplineSet
EndChar

StartChar: uni21B3
Encoding: 8627 8627 803
GlifName: uni21B_3
Width: 450
Flags: HW
LayerCount: 2
Fore
SplineSet
404 208 m 1
 234 38 l 1
 200 73 l 1
 335 208 l 1
 200 342 l 1
 234 377 l 1
 404 208 l 1
366 182 m 1
 46 182 l 1
 46 707 l 1
 95 707 l 1
 95 233 l 1
 366 232 l 1
 366 182 l 1
EndSplineSet
EndChar

StartChar: uni21BA
Encoding: 8634 8634 804
GlifName: uni21B_A_
Width: 844
Flags: HW
LayerCount: 2
Fore
SplineSet
556 622 m 1
 799 508 l 1
 778 463 l 1
 580 557 l 1
 487 357 l 1
 441 378 l 1
 556 622 l 1
357 90 m 0
 514 90 623 197 623 353 c 0
 623 422 599 475 544 530 c 1
 583 568 l 1
 648 503 677 437 677 354 c 0
 677 168 542 34 357 34 c 0
 176 34 46 162 46 341 c 0
 46 425 76 492 145 561 c 1
 183 523 l 1
 125 465 100 410 100 341 c 0
 100 191 203 90 357 90 c 0
EndSplineSet
EndChar

StartChar: uni21BB
Encoding: 8635 8635 805
GlifName: uni21B_B_
Width: 844
Flags: HW
LayerCount: 2
Fore
SplineSet
289 622 m 1
 403 378 l 1
 357 357 l 1
 265 557 l 1
 67 463 l 1
 46 508 l 1
 289 622 l 1
487 90 m 0
 641 90 744 191 744 341 c 0
 744 410 720 465 662 523 c 1
 699 561 l 1
 768 492 799 425 799 341 c 0
 799 162 668 34 487 34 c 0
 302 34 168 168 168 354 c 0
 168 437 197 503 262 568 c 1
 301 530 l 1
 246 475 222 422 222 353 c 0
 222 197 330 90 487 90 c 0
EndSplineSet
EndChar

StartChar: uni21B6
Encoding: 8630 8630 806
GlifName: uni21B_6
Width: 887
Flags: HW
LayerCount: 2
Fore
SplineSet
236 54 m 5
 46 245 l 5
 81 280 l 5
 236 124 l 5
 391 280 l 5
 426 245 l 5
 236 54 l 5
787 255 m 5
 787 402 666 522 517 522 c 4
 364 522 261 416 261 259 c 6
 261 94 l 5
 211 94 l 5
 210 259 l 6
 210 447 335 575 519 575 c 4
 699 575 842 434 842 255 c 5
 787 255 l 5
EndSplineSet
EndChar

StartChar: uni21B7
Encoding: 8631 8631 807
GlifName: uni21B_7
Width: 887
Flags: HW
LayerCount: 2
Fore
SplineSet
652 54 m 1
 842 245 l 1
 807 280 l 1
 652 124 l 1
 497 280 l 1
 462 245 l 1
 652 54 l 1
100 255 m 1
 100 402 222 522 371 522 c 0
 524 522 627 416 627 259 c 2
 627 94 l 1
 677 94 l 1
 678 259 l 2
 678 447 553 575 369 575 c 0
 189 575 46 434 46 255 c 1
 100 255 l 1
EndSplineSet
EndChar

StartChar: uni21BC
Encoding: 8636 8636 808
GlifName: uni21B_C_
Width: 798
Flags: HW
LayerCount: 2
Fore
SplineSet
141 371 m 1
 230 460 l 1
 196 495 l 1
 46 345 l 1
 46 321 l 1
 753 319 l 1
 753 371 l 1
 141 371 l 1
EndSplineSet
EndChar

StartChar: uni21BD
Encoding: 8637 8637 809
GlifName: uni21B_D_
Width: 798
Flags: HW
LayerCount: 2
Fore
SplineSet
46 346 m 1
 196 197 l 1
 230 231 l 1
 141 321 l 1
 753 321 l 1
 753 372 l 1
 46 371 l 1
 46 346 l 1
EndSplineSet
EndChar

StartChar: uni21BE
Encoding: 8638 8638 810
GlifName: uni21B_E_
Width: 268
Flags: HW
LayerCount: 2
Fore
SplineSet
97 616 m 1
 187 526 l 1
 222 561 l 1
 73 711 l 1
 48 711 l 1
 46 4 l 1
 97 4 l 1
 97 616 l 1
EndSplineSet
EndChar

StartChar: uni21BF
Encoding: 8639 8639 811
GlifName: uni21B_F_
Width: 268
Flags: HW
LayerCount: 2
Fore
SplineSet
171 616 m 1
 81 526 l 1
 46 561 l 1
 196 711 l 1
 220 711 l 1
 222 4 l 1
 171 4 l 1
 171 616 l 1
EndSplineSet
EndChar

StartChar: uni21C0
Encoding: 8640 8640 812
GlifName: uni21C_0
Width: 798
Flags: HW
LayerCount: 2
Fore
SplineSet
753 345 m 1
 753 321 l 1
 46 319 l 1
 46 371 l 1
 657 371 l 1
 568 460 l 1
 603 495 l 1
 753 345 l 1
EndSplineSet
EndChar

StartChar: uni21C1
Encoding: 8641 8641 813
GlifName: uni21C_1
Width: 798
Flags: HW
LayerCount: 2
Fore
SplineSet
753 346 m 1
 603 197 l 1
 568 231 l 1
 657 321 l 1
 46 321 l 1
 46 372 l 1
 753 371 l 1
 753 346 l 1
EndSplineSet
EndChar

StartChar: uni21C2
Encoding: 8642 8642 814
GlifName: uni21C_2
Width: 268
Flags: HW
LayerCount: 2
Fore
SplineSet
97 98 m 1
 187 188 l 1
 222 154 l 1
 73 4 l 1
 48 4 l 1
 46 711 l 1
 97 711 l 1
 97 98 l 1
EndSplineSet
EndChar

StartChar: uni21C3
Encoding: 8643 8643 815
GlifName: uni21C_3
Width: 268
Flags: HW
LayerCount: 2
Fore
SplineSet
171 98 m 1
 171 711 l 1
 222 711 l 1
 220 4 l 1
 196 4 l 1
 46 154 l 1
 81 188 l 1
 171 98 l 1
EndSplineSet
EndChar

StartChar: uni21DA
Encoding: 8666 8666 816
GlifName: uni21D_A_
Width: 798
Flags: HW
LayerCount: 2
Fore
SplineSet
102 321 m 1
 102 371 l 1
 753 372 l 1
 753 321 l 1
 102 321 l 1
174 228 m 1
 174 279 l 1
 752 280 l 1
 752 228 l 1
 174 228 l 1
174 413 m 1
 174 463 l 1
 753 464 l 1
 753 413 l 1
 174 413 l 1
46 346 m 1
 237 536 l 1
 271 501 l 1
 116 346 l 1
 271 190 l 1
 237 156 l 1
 46 346 l 1
EndSplineSet
EndChar

StartChar: uni21DB
Encoding: 8667 8667 817
GlifName: uni21D_B_
Width: 798
Flags: HW
LayerCount: 2
Fore
SplineSet
696 371 m 1
 696 321 l 1
 46 319 l 1
 46 371 l 1
 696 371 l 1
625 463 m 1
 625 413 l 1
 47 412 l 1
 47 463 l 1
 625 463 l 1
625 279 m 1
 625 228 l 1
 46 227 l 1
 46 279 l 1
 625 279 l 1
753 345 m 1
 562 156 l 1
 527 190 l 1
 683 345 l 1
 527 501 l 1
 562 536 l 1
 753 345 l 1
EndSplineSet
EndChar

StartChar: uni21E4
Encoding: 8676 8676 818
GlifName: uni21E_4
Width: 798
Flags: HW
LayerCount: 2
Fore
SplineSet
97 156 m 1
 46 156 l 1
 46 536 l 1
 97 536 l 1
 97 156 l 1
86 321 m 1
 86 371 l 1
 753 372 l 1
 753 321 l 1
 86 321 l 1
46 346 m 1
 237 536 l 1
 271 501 l 1
 116 346 l 1
 271 190 l 1
 237 156 l 1
 46 346 l 1
EndSplineSet
EndChar

StartChar: uni21E5
Encoding: 8677 8677 819
GlifName: uni21E_5
Width: 798
Flags: HW
LayerCount: 2
Fore
SplineSet
701 536 m 5
 753 536 l 5
 753 156 l 5
 701 156 l 5
 701 536 l 5
713 371 m 1
 713 321 l 1
 46 319 l 1
 46 371 l 1
 713 371 l 1
753 345 m 1
 562 156 l 1
 527 190 l 1
 683 345 l 1
 527 501 l 1
 562 536 l 1
 753 345 l 1
EndSplineSet
EndChar

StartChar: uni21E6
Encoding: 8678 8678 820
GlifName: uni21E_6
Width: 798
Flags: HW
LayerCount: 2
Fore
SplineSet
288 442 m 1
 753 443 l 1
 753 249 l 1
 288 249 l 1
 288 156 l 1
 237 156 l 1
 46 346 l 1
 237 536 l 1
 288 536 l 1
 288 442 l 1
237 466 m 1
 116 346 l 1
 237 225 l 1
 237 299 l 1
 701 300 l 1
 701 392 l 1
 237 392 l 1
 237 466 l 1
EndSplineSet
EndChar

StartChar: uni21E7
Encoding: 8679 8679 821
GlifName: uni21E_7
Width: 473
Flags: HW
LayerCount: 2
Fore
SplineSet
334 457 m 1
 335 -8 l 1
 140 -8 l 1
 140 457 l 1
 46 457 l 1
 46 508 l 1
 237 698 l 1
 427 508 l 1
 427 457 l 1
 334 457 l 1
357 508 m 1
 237 629 l 1
 116 508 l 1
 189 508 l 1
 190 43 l 1
 284 43 l 1
 284 508 l 1
 357 508 l 1
EndSplineSet
EndChar

StartChar: uni21E8
Encoding: 8680 8680 822
GlifName: uni21E_8
Width: 798
Flags: HW
LayerCount: 2
Fore
SplineSet
511 249 m 1
 46 248 l 1
 46 442 l 1
 511 442 l 1
 511 536 l 1
 562 536 l 1
 753 345 l 1
 562 156 l 1
 511 156 l 1
 511 249 l 1
562 225 m 1
 683 345 l 1
 562 466 l 1
 562 392 l 1
 97 391 l 1
 97 299 l 1
 562 299 l 1
 562 225 l 1
EndSplineSet
EndChar

StartChar: uni21E9
Encoding: 8681 8681 823
GlifName: uni21E_9
Width: 473
Flags: HW
LayerCount: 2
Fore
SplineSet
139 233 m 1
 138 698 l 1
 333 698 l 1
 333 233 l 1
 427 233 l 1
 427 182 l 1
 237 -8 l 1
 46 182 l 1
 46 233 l 1
 139 233 l 1
116 182 m 1
 237 61 l 1
 357 182 l 1
 284 182 l 1
 283 647 l 1
 189 647 l 1
 189 182 l 1
 116 182 l 1
EndSplineSet
EndChar

StartChar: uni21F5
Encoding: 8693 8693 824
GlifName: uni21F_5
Width: 798
Flags: HW
LayerCount: 2
Fore
SplineSet
552 644 m 5
 502 644 l 5
 501 -23 l 5
 552 -23 l 5
 552 644 l 5
527 684 m 5
 378 534 l 5
 413 499 l 5
 527 614 l 5
 642 499 l 5
 676 534 l 5
 527 684 l 5
246 17 m 1
 296 17 l 1
 297 684 l 1
 246 684 l 1
 246 17 l 1
272 -23 m 1
 420 126 l 1
 386 161 l 1
 272 47 l 1
 157 161 l 1
 122 126 l 1
 272 -23 l 1
EndSplineSet
EndChar

StartChar: uni21F6
Encoding: 8694 8694 825
GlifName: uni21F_6
Width: 798
Flags: HW
LayerCount: 2
Fore
SplineSet
713 112 m 5
 713 61 l 5
 46 60 l 5
 46 112 l 5
 713 112 l 5
753 86 m 5
 634 -32 l 5
 599 3 l 5
 683 86 l 5
 599 170 l 5
 634 205 l 5
 753 86 l 5
713 357 m 5
 713 307 l 5
 46 306 l 5
 46 357 l 5
 713 357 l 5
753 332 m 5
 634 214 l 5
 599 249 l 5
 683 332 l 5
 599 416 l 5
 634 451 l 5
 753 332 l 5
713 603 m 5
 713 553 l 5
 46 552 l 5
 46 603 l 5
 713 603 l 5
753 578 m 5
 634 460 l 5
 599 495 l 5
 683 578 l 5
 599 662 l 5
 634 696 l 5
 753 578 l 5
EndSplineSet
EndChar

StartChar: uni21F7
Encoding: 8695 8695 826
GlifName: uni21F_7
Width: 798
Flags: HW
LayerCount: 2
Fore
SplineSet
456 536 m 5
 507 536 l 5
 507 156 l 5
 456 156 l 5
 456 536 l 5
86 321 m 1
 86 371 l 1
 732 372 l 1
 732 321 l 1
 86 321 l 1
46 346 m 1
 237 536 l 1
 271 501 l 1
 116 346 l 1
 271 190 l 1
 237 156 l 1
 46 346 l 1
EndSplineSet
EndChar

StartChar: uni21F8
Encoding: 8696 8696 827
GlifName: uni21F_8
Width: 798
Flags: HW
LayerCount: 2
Fore
SplineSet
312 536 m 5
 364 536 l 5
 364 156 l 5
 312 156 l 5
 312 536 l 5
713 371 m 1
 713 321 l 1
 46 319 l 1
 46 371 l 1
 713 371 l 1
753 345 m 1
 562 156 l 1
 527 190 l 1
 683 345 l 1
 527 501 l 1
 562 536 l 1
 753 345 l 1
EndSplineSet
EndChar

StartChar: uni21F9
Encoding: 8697 8697 828
GlifName: uni21F_9
Width: 798
Flags: HW
LayerCount: 2
Fore
SplineSet
378 536 m 5
 429 536 l 5
 429 156 l 5
 378 156 l 5
 378 536 l 5
753 345 m 1
 562 156 l 1
 527 190 l 1
 683 345 l 1
 527 501 l 1
 562 536 l 1
 753 345 l 1
86 321 m 1
 86 371 l 1
 713 371 l 1
 714 321 l 1
 86 321 l 1
46 346 m 1
 237 536 l 1
 271 501 l 1
 116 346 l 1
 271 190 l 1
 237 156 l 1
 46 346 l 1
EndSplineSet
EndChar

StartChar: uni21FA
Encoding: 8698 8698 829
GlifName: uni21F_A_
Width: 798
Flags: HW
LayerCount: 2
Fore
SplineSet
538 536 m 5
 589 536 l 5
 589 156 l 5
 538 156 l 5
 538 536 l 5
415 536 m 5
 466 536 l 5
 466 156 l 5
 415 156 l 5
 415 536 l 5
86 321 m 1
 86 371 l 1
 732 372 l 1
 732 321 l 1
 86 321 l 1
46 346 m 1
 237 536 l 1
 271 501 l 1
 116 346 l 1
 271 190 l 1
 237 156 l 1
 46 346 l 1
EndSplineSet
EndChar

StartChar: uni21FB
Encoding: 8699 8699 830
GlifName: uni21F_B_
Width: 798
Flags: HW
LayerCount: 2
Fore
SplineSet
333 536 m 5
 384 536 l 5
 384 156 l 5
 333 156 l 5
 333 536 l 5
210 536 m 5
 261 536 l 5
 261 156 l 5
 210 156 l 5
 210 536 l 5
713 371 m 1
 713 321 l 1
 46 319 l 1
 46 371 l 1
 713 371 l 1
753 345 m 1
 562 156 l 1
 527 190 l 1
 683 345 l 1
 527 501 l 1
 562 536 l 1
 753 345 l 1
EndSplineSet
EndChar

StartChar: uni21FC
Encoding: 8700 8700 831
GlifName: uni21F_C_
Width: 798
Flags: HW
LayerCount: 2
Fore
SplineSet
431 536 m 5
 482 536 l 5
 482 156 l 5
 431 156 l 5
 431 536 l 5
329 536 m 1
 380 536 l 1
 380 156 l 1
 329 156 l 1
 329 536 l 1
753 345 m 1
 562 156 l 1
 527 190 l 1
 683 345 l 1
 527 501 l 1
 562 536 l 1
 753 345 l 1
86 321 m 1
 86 371 l 1
 713 371 l 1
 714 321 l 1
 86 321 l 1
46 346 m 1
 237 536 l 1
 271 501 l 1
 116 346 l 1
 271 190 l 1
 237 156 l 1
 46 346 l 1
EndSplineSet
EndChar

StartChar: uni21FD
Encoding: 8701 8701 832
GlifName: uni21F_D_
Width: 798
Flags: HW
LayerCount: 2
Fore
SplineSet
237 466 m 1
 116 346 l 1
 237 225 l 1
 237 466 l 1
237 156 m 1
 46 346 l 1
 237 536 l 1
 288 536 l 1
 288 371 l 1
 753 372 l 1
 753 321 l 1
 288 321 l 1
 288 156 l 1
 237 156 l 1
EndSplineSet
EndChar

StartChar: uni21FE
Encoding: 8702 8702 833
GlifName: uni21F_E_
Width: 798
Flags: HW
LayerCount: 2
Fore
SplineSet
511 320 m 1
 46 319 l 1
 46 371 l 1
 511 371 l 1
 511 536 l 1
 562 536 l 1
 753 345 l 1
 562 156 l 1
 511 156 l 1
 511 320 l 1
562 225 m 1
 683 345 l 1
 562 466 l 1
 562 225 l 1
EndSplineSet
EndChar

StartChar: uni21FF
Encoding: 8703 8703 834
GlifName: uni21F_F_
Width: 798
Flags: HW
LayerCount: 2
Fore
SplineSet
562 225 m 1
 683 345 l 1
 562 466 l 1
 562 225 l 1
237 466 m 1
 116 346 l 1
 237 225 l 1
 237 466 l 1
237 156 m 1
 46 346 l 1
 237 536 l 1
 288 536 l 1
 288 371 l 1
 511 371 l 1
 511 536 l 1
 562 536 l 1
 753 345 l 1
 562 156 l 1
 511 156 l 1
 511 321 l 1
 288 321 l 1
 288 156 l 1
 237 156 l 1
EndSplineSet
EndChar

StartChar: zero.tabl.slsh
Encoding: 65757 -1 835
GlifName: zero.tabl.slsh
Width: 558
Flags: HW
LayerCount: 2
Fore
SplineSet
428 570 m 1
 465 540 l 1
 130 103 l 5
 93 134 l 5
 428 570 l 1
46 325 m 0
 46 546 134 676 280 676 c 0
 426 676 512 546 512 325 c 0
 512 115 426 -8 280 -8 c 0
 133 -8 46 115 46 325 c 0
458 325 m 0
 458 525 399 625 280 625 c 0
 160 625 100 525 100 325 c 0
 100 137 160 43 280 43 c 0
 399 43 458 137 458 325 c 0
EndSplineSet
EndChar

StartChar: zero.cv01
Encoding: 65758 -1 836
GlifName: zero.cv01
Width: 844
Flags: HW
LayerCount: 2
Fore
SplineSet
799 -41 m 5
 46 -41 l 5
 46 707 l 5
 799 707 l 5
 799 -41 l 5
261 332 m 0
 261 209 326 127 423 127 c 0
 519 127 584 209 584 332 c 0
 584 454 519 535 423 535 c 0
 326 535 261 454 261 332 c 0
529 332 m 0
 529 235 491 178 423 178 c 0
 355 178 315 235 315 332 c 0
 315 428 355 483 423 483 c 0
 491 483 529 428 529 332 c 0
EndSplineSet
EndChar

StartChar: one.cv01
Encoding: 65759 -1 837
GlifName: one.cv01
Width: 844
Flags: HW
LayerCount: 2
Fore
SplineSet
799 -41 m 5
 46 -41 l 5
 46 707 l 5
 799 707 l 5
 799 -41 l 5
422 530 m 1
 422 499 l 2
 422 458 400 445 355 445 c 2
 310 445 l 1
 310 401 l 1
 422 401 l 1
 422 135 l 1
 474 135 l 1
 474 530 l 1
 422 530 l 1
EndSplineSet
EndChar

StartChar: two.cv01
Encoding: 65760 -1 838
GlifName: two.cv01
Width: 844
Flags: HW
LayerCount: 2
Fore
SplineSet
799 -41 m 5
 46 -41 l 5
 46 707 l 5
 799 707 l 5
 799 -41 l 5
319 184 m 1
 328 221 381 241 446 268 c 0
 512 296 579 330 579 398 c 0
 579 480 519 535 430 535 c 0
 340 535 272 477 266 393 c 1
 319 393 l 1
 322 448 365 483 430 483 c 0
 490 483 524 453 524 402 c 0
 524 354 478 332 425 312 c 0
 351 283 266 254 266 150 c 2
 266 135 l 1
 575 135 l 1
 575 184 l 1
 319 184 l 1
EndSplineSet
EndChar

StartChar: three.cv01
Encoding: 65761 -1 839
GlifName: three.cv01
Width: 844
Flags: HW
LayerCount: 2
Fore
SplineSet
799 -41 m 5
 46 -41 l 5
 46 707 l 5
 799 707 l 5
 799 -41 l 5
524 331 m 1
 552 348 569 376 569 412 c 0
 569 487 510 536 421 536 c 0
 338 536 277 487 271 414 c 1
 326 414 l 1
 328 457 365 484 421 484 c 0
 481 484 515 458 515 412 c 0
 515 376 494 355 457 355 c 2
 395 355 l 1
 395 304 l 1
 457 304 l 2
 500 304 525 283 525 244 c 0
 525 202 489 178 424 178 c 0
 363 178 322 203 319 242 c 1
 265 242 l 1
 271 174 336 127 424 127 c 0
 517 127 580 173 580 244 c 0
 580 283 559 314 524 331 c 1
EndSplineSet
EndChar

StartChar: four.cv01
Encoding: 65762 -1 840
GlifName: four.cv01
Width: 844
Flags: HW
LayerCount: 2
Fore
SplineSet
799 -41 m 5
 46 -41 l 5
 46 707 l 5
 799 707 l 5
 799 -41 l 5
513 236 m 1
 588 236 l 1
 588 284 l 1
 513 284 l 1
 513 530 l 1
 451 530 l 1
 257 294 l 1
 257 236 l 1
 461 236 l 1
 461 135 l 1
 513 135 l 1
 513 236 l 1
461 284 m 1
 312 284 l 1
 461 467 l 1
 461 284 l 1
EndSplineSet
EndChar

StartChar: five.cv01
Encoding: 65763 -1 841
GlifName: five.cv01
Width: 844
Flags: HW
LayerCount: 2
Fore
SplineSet
799 -41 m 5
 46 -41 l 5
 46 707 l 5
 799 707 l 5
 799 -41 l 5
518 267 m 0
 518 208 483 178 424 178 c 0
 367 178 329 203 327 242 c 1
 272 242 l 1
 278 174 339 127 424 127 c 0
 512 127 572 180 572 268 c 0
 572 348 520 407 437 407 c 0
 390 407 353 387 329 356 c 1
 342 481 l 1
 553 481 l 1
 553 530 l 1
 298 530 l 1
 272 301 l 1
 323 301 l 1
 343 335 380 355 430 355 c 0
 486 355 518 321 518 267 c 0
EndSplineSet
EndChar

StartChar: six.cv01
Encoding: 65764 -1 842
GlifName: six.cv01
Width: 844
Flags: HW
LayerCount: 2
Fore
SplineSet
799 -41 m 5
 46 -41 l 5
 46 707 l 5
 799 707 l 5
 799 -41 l 5
265 327 m 0
 265 205 334 127 440 127 c 0
 521 127 580 181 580 257 c 0
 580 333 521 387 440 387 c 0
 387 387 341 355 322 305 c 1
 321 313 319 323 319 332 c 0
 319 433 357 483 434 483 c 0
 480 483 509 463 517 425 c 1
 571 425 l 1
 559 493 507 535 434 535 c 0
 328 535 265 458 265 327 c 0
342 257 m 0
 342 303 380 335 436 335 c 0
 490 335 525 304 525 257 c 0
 525 210 490 179 436 179 c 0
 383 179 342 213 342 257 c 0
EndSplineSet
EndChar

StartChar: seven.cv01
Encoding: 65765 -1 843
GlifName: seven.cv01
Width: 844
Flags: HW
LayerCount: 2
Fore
SplineSet
799 -41 m 5
 46 -41 l 5
 46 707 l 5
 799 707 l 5
 799 -41 l 5
408 135 m 1
 421 271 487 380 584 471 c 1
 584 530 l 1
 261 530 l 1
 261 481 l 1
 533 481 l 1
 448 396 376 302 353 135 c 1
 408 135 l 1
EndSplineSet
EndChar

StartChar: eight.cv01
Encoding: 65766 -1 844
GlifName: eight.cv01
Width: 844
Flags: HW
LayerCount: 2
Fore
SplineSet
799 -41 m 5
 46 -41 l 5
 46 707 l 5
 799 707 l 5
 799 -41 l 5
510 332 m 1
 547 350 569 381 569 421 c 0
 569 490 512 535 425 535 c 0
 335 535 275 490 275 421 c 0
 275 381 299 350 338 332 c 1
 293 314 265 280 265 236 c 0
 265 170 329 127 425 127 c 0
 518 127 580 170 580 236 c 0
 580 280 554 314 510 332 c 1
429 356 m 2
 422 356 l 2
 364 356 330 378 330 416 c 0
 330 459 365 483 425 483 c 0
 482 483 515 459 515 416 c 0
 515 378 483 356 429 356 c 2
429 305 m 2
 490 305 525 282 525 240 c 0
 525 201 488 178 425 178 c 0
 357 178 319 201 319 240 c 0
 319 282 357 305 422 305 c 2
 429 305 l 2
EndSplineSet
EndChar

StartChar: nine.cv01
Encoding: 65767 -1 845
GlifName: nine.cv01
Width: 844
Flags: HW
LayerCount: 2
Fore
SplineSet
799 -41 m 5
 46 -41 l 5
 46 707 l 5
 799 707 l 5
 799 -41 l 5
580 314 m 0
 580 449 514 535 412 535 c 0
 327 535 265 478 265 399 c 0
 265 321 325 265 407 265 c 0
 460 265 506 296 525 346 c 1
 526 338 527 328 527 319 c 0
 527 224 490 178 411 178 c 0
 361 178 330 196 321 231 c 1
 266 231 l 1
 279 166 335 127 411 127 c 0
 517 127 580 196 580 314 c 0
506 398 m 0
 506 349 468 316 412 316 c 0
 358 316 323 349 323 398 c 0
 323 448 358 481 412 481 c 0
 465 481 506 445 506 398 c 0
EndSplineSet
EndChar

StartChar: zero.cv02
Encoding: 65768 -1 846
GlifName: zero.cv02
Width: 844
Flags: HW
LayerCount: 2
Fore
SplineSet
748 10 m 5
 748 655 l 5
 97 655 l 5
 97 10 l 5
 748 10 l 5
799 -41 m 5
 46 -41 l 5
 46 707 l 5
 799 707 l 5
 799 -41 l 5
261 332 m 0
 261 454 326 535 423 535 c 0
 519 535 584 454 584 332 c 0
 584 209 519 127 423 127 c 0
 326 127 261 209 261 332 c 0
529 332 m 0
 529 428 491 483 423 483 c 0
 355 483 315 428 315 332 c 0
 315 235 355 178 423 178 c 0
 491 178 529 235 529 332 c 0
EndSplineSet
EndChar

StartChar: one.cv02
Encoding: 65769 -1 847
GlifName: one.cv02
Width: 844
Flags: HW
LayerCount: 2
Fore
SplineSet
748 10 m 5
 748 655 l 5
 97 655 l 5
 97 10 l 5
 748 10 l 5
799 -41 m 5
 46 -41 l 5
 46 707 l 5
 799 707 l 5
 799 -41 l 5
422 530 m 1
 474 530 l 1
 474 135 l 1
 422 135 l 1
 422 401 l 1
 310 401 l 1
 310 445 l 1
 355 445 l 2
 400 445 422 458 422 499 c 2
 422 530 l 1
EndSplineSet
EndChar

StartChar: two.cv02
Encoding: 65770 -1 848
GlifName: two.cv02
Width: 844
Flags: HW
LayerCount: 2
Fore
SplineSet
748 10 m 5
 748 655 l 5
 97 655 l 5
 97 10 l 5
 748 10 l 5
799 -41 m 5
 46 -41 l 5
 46 707 l 5
 799 707 l 5
 799 -41 l 5
319 184 m 1
 575 184 l 1
 575 135 l 1
 266 135 l 1
 266 150 l 2
 266 254 351 283 425 312 c 0
 478 332 524 354 524 402 c 0
 524 453 490 483 430 483 c 0
 365 483 322 448 319 393 c 1
 266 393 l 1
 272 477 340 535 430 535 c 0
 519 535 579 480 579 398 c 0
 579 330 512 296 446 268 c 0
 381 241 328 221 319 184 c 1
EndSplineSet
EndChar

StartChar: three.cv02
Encoding: 65771 -1 849
GlifName: three.cv02
Width: 844
Flags: HW
LayerCount: 2
Fore
SplineSet
748 10 m 5
 748 655 l 5
 97 655 l 5
 97 10 l 5
 748 10 l 5
799 -41 m 5
 46 -41 l 5
 46 707 l 5
 799 707 l 5
 799 -41 l 5
524 331 m 1
 559 314 580 283 580 244 c 0
 580 173 517 127 424 127 c 0
 336 127 271 174 265 242 c 1
 319 242 l 1
 322 203 363 178 424 178 c 0
 489 178 525 202 525 244 c 0
 525 283 500 304 457 304 c 2
 395 304 l 1
 395 355 l 1
 457 355 l 2
 494 355 515 376 515 412 c 0
 515 458 481 484 421 484 c 0
 365 484 328 457 326 414 c 1
 271 414 l 1
 277 487 338 536 421 536 c 0
 510 536 569 487 569 412 c 0
 569 376 552 348 524 331 c 1
EndSplineSet
EndChar

StartChar: four.cv02
Encoding: 65772 -1 850
GlifName: four.cv02
Width: 844
Flags: HW
LayerCount: 2
Fore
SplineSet
748 10 m 5
 748 655 l 5
 97 655 l 5
 97 10 l 5
 748 10 l 5
799 -41 m 5
 46 -41 l 5
 46 707 l 5
 799 707 l 5
 799 -41 l 5
513 236 m 1
 513 135 l 1
 461 135 l 1
 461 236 l 1
 257 236 l 1
 257 294 l 1
 451 530 l 1
 513 530 l 1
 513 284 l 1
 588 284 l 1
 588 236 l 1
 513 236 l 1
461 284 m 1
 461 467 l 1
 312 284 l 1
 461 284 l 1
EndSplineSet
EndChar

StartChar: five.cv02
Encoding: 65773 -1 851
GlifName: five.cv02
Width: 844
Flags: HW
LayerCount: 2
Fore
SplineSet
748 10 m 5
 748 655 l 5
 97 655 l 5
 97 10 l 5
 748 10 l 5
799 -41 m 5
 46 -41 l 5
 46 707 l 5
 799 707 l 5
 799 -41 l 5
518 267 m 0
 518 208 483 178 424 178 c 0
 367 178 329 203 327 242 c 1
 272 242 l 1
 278 174 339 127 424 127 c 0
 512 127 572 180 572 268 c 0
 572 348 520 407 437 407 c 0
 390 407 353 387 329 356 c 1
 342 481 l 1
 553 481 l 1
 553 530 l 1
 298 530 l 1
 272 301 l 1
 323 301 l 1
 343 335 380 355 430 355 c 0
 486 355 518 321 518 267 c 0
EndSplineSet
EndChar

StartChar: six.cv02
Encoding: 65774 -1 852
GlifName: six.cv02
Width: 844
Flags: HW
LayerCount: 2
Fore
SplineSet
748 10 m 5
 748 655 l 5
 97 655 l 5
 97 10 l 5
 748 10 l 5
799 -41 m 5
 46 -41 l 5
 46 707 l 5
 799 707 l 5
 799 -41 l 5
265 327 m 0
 265 458 328 535 434 535 c 0
 507 535 559 493 571 425 c 1
 517 425 l 1
 509 463 480 483 434 483 c 0
 357 483 319 433 319 332 c 0
 319 323 321 313 322 305 c 1
 341 355 387 387 440 387 c 0
 521 387 580 333 580 257 c 0
 580 181 521 127 440 127 c 0
 334 127 265 205 265 327 c 0
342 257 m 0
 342 213 383 179 436 179 c 0
 490 179 525 210 525 257 c 0
 525 304 490 335 436 335 c 0
 380 335 342 303 342 257 c 0
EndSplineSet
EndChar

StartChar: seven.cv02
Encoding: 65775 -1 853
GlifName: seven.cv02
Width: 844
Flags: HW
LayerCount: 2
Fore
SplineSet
748 10 m 5
 748 655 l 5
 97 655 l 5
 97 10 l 5
 748 10 l 5
799 -41 m 5
 46 -41 l 5
 46 707 l 5
 799 707 l 5
 799 -41 l 5
408 135 m 1
 421 271 487 380 584 471 c 1
 584 530 l 1
 261 530 l 1
 261 481 l 1
 533 481 l 1
 448 396 376 302 353 135 c 1
 408 135 l 1
EndSplineSet
EndChar

